{
copyright = "Copyright 2016 Michal Sahar. All rights reserved.";
customParameters = (
{
name = license;
value = "This Font Software is licensed under the SIL Open Font License, Version 1.1. This license is available with a FAQ at: http://scripts.sil.org/OFL";
},
{
name = licenseURL;
value = "http://scripts.sil.org/OFL";
},
{
name = trademark;
value = "Secular is a tradmark of Michal Sahar";
},
{
name = fsType;
value = (
);
},
{
name = vendorID;
value = MCHL;
}
);
date = "2016-03-12 21:15:21 +0000";
designer = "Michal Sahar";
designerURL = "http://Hagilda.com";
familyName = "Secular One";
featurePrefixes = (
{
automatic = 1;
code = "languagesystem DFLT dflt;\012languagesystem latn dflt;\012languagesystem hebr dflt;\012languagesystem latn ROM;\012languagesystem latn MOL;\012languagesystem latn KAZ;\012languagesystem latn TAT;\012languagesystem latn TRK;\012languagesystem latn CRT;\012languagesystem latn AZE;\012";
name = Languagesystems;
}
);
features = (
{
automatic = 1;
code = "feature ccmp;\012feature locl;\012feature sups;\012feature frac;\012feature ordn;\012feature lnum;\012feature onum;\012";
name = aalt;
},
{
automatic = 1;
code = "lookup latn_comb1 {\012\011script latn;\012@CombiningTopAccents = [acutecomb brevecomb caroncomb circumflexcomb commaturnedabovecomb dieresiscomb dotaccentcomb gravecomb hungarumlautcomb macroncomb ringcomb tildecomb];\012@CombiningNonTopAccents = [cedillacomb ogonekcomb slashlongcomb slashshortcomb strokelongcomb strokeshortcomb];\012\011sub [i]' @CombiningTopAccents by [idotless];\012\011sub [i]' @CombiningNonTopAccents @CombiningTopAccents by [idotless];\012} latn_comb1;\012";
name = ccmp;
},
{
automatic = 1;

glyphs = (
{
glyphname = A;
lastChange = "2016-03-12 22:01:08 +0000";
layers = (
{
anchors = (
{
name = bottom;
position = "{340, 0}";
},
{
name = ogonek;
position = "{619, 0}";
},
{
name = top;
position = "{340, 666}";
}
);
hints = (
{
horizontal = 1;
origin = "{0, 7}";
target = up;
type = BottomGhost;
},
{
horizontal = 1;
origin = "{0, 1}";
target = "{1, 2}";
},
{
horizontal = 1;
origin = "{0, 6}";
target = down;
type = TopGhost;
},
{
horizontal = 1;
origin = "{0, 6}";
target = "{1, 0}";
}
);
layerId = "67A5D7A9-2C6D-4B81-A947-AF9C36497881";
name = Regular;
paths = (
{
closed = 1;
nodes = (
"155 0 LINE",
"206 152 LINE",
"468 152 LINE",
"522 0 LINE",
"672 0 LINE",
"425 666 LINE",
"251 666 LINE",
"7 0 LINE"
);
},
{
closed = 1;
nodes = (
"335 531 LINE",
"425 276 LINE",
"248 276 LINE"
);
}
);
width = 679;
}
);
leftKerningGroup = A;
note = A;
rightKerningGroup = A;
unicode = 0041;
},
{
glyphname = Aogonek;
lastChange = "2016-03-12 22:01:08 +0000";
layers = (
{
hints = (
{
horizontal = 1;
origin = "{0, 26}";
target = "{0, 6}";
},
{
horizontal = 1;
origin = "{0, 16}";
target = up;
type = BottomGhost;
},
{
horizontal = 1;
origin = "{0, 18}";
target = "{1, 2}";
},
{
horizontal = 1;
origin = "{0, 15}";
target = down;
type = TopGhost;
},
{
horizontal = 1;
origin = "{0, 12}";
target = up;
type = BottomGhost;
},
{
horizontal = 1;
origin = "{0, 15}";
target = "{1, 0}";
},
{
origin = "{0, 23}";
target = "{0, 9}";
}
);
layerId = "67A5D7A9-2C6D-4B81-A947-AF9C36497881";
name = Regular;
paths = (
{
closed = 1;
nodes = (
"616 -220 OFFCURVE",
"648 -212 OFFCURVE",
"668 -197 CURVE",
"673 -120 LINE",
"655 -131 OFFCURVE",
"634 -137 OFFCURVE",
"615 -137 CURVE SMOOTH",
"586 -137 OFFCURVE",
"561 -123 OFFCURVE",
"561 -93 CURVE SMOOTH",
"561 -54 OFFCURVE",
"603 -17 OFFCURVE",
"660 -3 CURVE SMOOTH",
"672 0 LINE",
"425 666 LINE",
"251 666 LINE",
"7 0 LINE",
"155 0 LINE",
"206 152 LINE",
"469 152 LINE",
"529 -18 LINE",
"495 -41 OFFCURVE",
"470 -76 OFFCURVE",
"470 -122 CURVE SMOOTH",
"470 -181 OFFCURVE",
"512 -220 OFFCURVE",
"584 -220 CURVE SMOOTH"
);
},
{
closed = 1;
nodes = (
"335 531 LINE",
"425 276 LINE",
"248 276 LINE"
);
}
);
width = 680;
}
);
leftKerningGroup = A;
rightKerningGroup = A;
rightMetricsKey = A;
unicode = 0104;
},
{
glyphname = AE;
lastChange = "2016-03-12 22:01:08 +0000";
layers = (
{
anchors = (
{
name = bottom;
position = "{447, 0}";
},
{
name = top;
position = "{447, 666}";
}
);
hints = (
{
horizontal = 1;
origin = "{0, 15}";
target = "{0, 6}";
},
{
horizontal = 1;
origin = "{0, 7}";
target = "{0, 10}";
},
{
horizontal = 1;
origin = "{0, 14}";
target = "{0, 11}";
},
{
horizontal = 1;
origin = "{0, 1}";
target = "{1, 3}";
},
{
horizontal = 1;
origin = "{0, 14}";
target = "{1, 0}";
},
{
origin = "{0, 3}";
target = "{0, 6}";
}
);
layerId = "67A5D7A9-2C6D-4B81-A947-AF9C36497881";
name = Regular;
paths = (
{
closed = 1;
nodes = (
"148 0 LINE",
"222 152 LINE",
"433 152 LINE",
"433 0 LINE",
"838 0 LINE",
"838 126 LINE",
"576 126 LINE",
"576 285 LINE",
"793 285 LINE",
"793 407 LINE",
"576 407 LINE",
"576 540 LINE",
"838 540 LINE",
"838 666 LINE",
"328 666 LINE",
"0 0 LINE"
);
},
{
closed = 1;
nodes = (
"415 548 LINE",
"433 548 LINE",
"433 276 LINE",
"283 276 LINE"
);
}
);
width = 893;
}
);
rightMetricsKey = E;
unicode = 00C6;
},
{
glyphname = B;
lastChange = "2016-03-12 22:01:08 +0000";
layers = (
{
anchors = (
{
name = bottom;
position = "{285, 0}";
},
{
name = top;
position = "{285, 666}";
}
);
hints = (
{
horizontal = 1;
origin = "{0, 14}";
target = "{1, 8}";
},
{
horizontal = 1;
origin = "{1, 0}";
target = "{2, 8}";
},
{
horizontal = 1;
origin = "{0, 13}";
target = "{2, 0}";
},
{
origin = "{0, 14}";
target = "{1, 8}";
},
{
origin = "{1, 4}";
target = "{0, 3}";
},
{
origin = "{2, 4}";
target = "{0, 9}";
}
);
layerId = "67A5D7A9-2C6D-4B81-A947-AF9C36497881";
name = Regular;
paths = (
{
closed = 1;
nodes = (
"295 0 LINE SMOOTH",
"430 0 OFFCURVE",
"529 83 OFFCURVE",
"529 205 CURVE SMOOTH",
"529 277 OFFCURVE",
"494 325 OFFCURVE",
"424 353 CURVE",
"477 386 OFFCURVE",
"503 432 OFFCURVE",
"503 493 CURVE SMOOTH",
"503 600 OFFCURVE",
"423 666 OFFCURVE",
"293 666 CURVE SMOOTH",
"70 666 LINE",
"70 0 LINE"
);
},
{
closed = 1;
nodes = (
"209 283 LINE",
"287 283 LINE SMOOTH",
"353 283 OFFCURVE",
"388 254 OFFCURVE",
"388 203 CURVE SMOOTH",
"388 147 OFFCURVE",
"345 111 OFFCURVE",
"273 111 CURVE SMOOTH",
"209 111 LINE"
);
},
{
closed = 1;
nodes = (
"209 556 LINE",
"272 556 LINE SMOOTH",
"333 556 OFFCURVE",
"364 531 OFFCURVE",
"364 482 CURVE SMOOTH",
"364 428 OFFCURVE",
"326 395 OFFCURVE",
"259 395 CURVE SMOOTH",
"209 395 LINE"
);
}
);
width = 569;
}
);
leftKerningGroup = H;
note = B;
rightKerningGroup = B;
unicode = 0042;
},
{
glyphname = C;
lastChange = "2016-03-12 22:01:07 +0000";
layers = (
{
anchors = (
{
name = bottom;
position = "{342, 0}";
},
{
name = top;
position = "{352, 666}";
}
);
hints = (
{
horizontal = 1;
origin = "{0, 25}";
target = "{0, 6}";
},
{
horizontal = 1;
origin = "{0, 19}";
target = "{0, 12}";
},
{
origin = "{0, 22}";
target = "{0, 9}";
}
);
layerId = "67A5D7A9-2C6D-4B81-A947-AF9C36497881";
name = Regular;
paths = (
{
closed = 1;
nodes = (
"443 -13 OFFCURVE",
"500 -3 OFFCURVE",
"547 15 CURVE",
"525 138 LINE",
"484 124 OFFCURVE",
"439 117 OFFCURVE",
"399 117 CURVE SMOOTH",
"267 117 OFFCURVE",
"188 195 OFFCURVE",
"188 330 CURVE SMOOTH",
"188 460 OFFCURVE",
"262 548 OFFCURVE",
"385 548 CURVE SMOOTH",
"429 548 OFFCURVE",
"473 537 OFFCURVE",
"517 517 CURVE",
"544 646 LINE",
"495 665 OFFCURVE",
"441 676 OFFCURVE",
"384 676 CURVE SMOOTH",
"177 676 OFFCURVE",
"41 533 OFFCURVE",
"41 316 CURVE SMOOTH",
"41 106 OFFCURVE",
"169 -13 OFFCURVE",
"381 -13 CURVE SMOOTH"
);
}
);
width = 594;
}
);
leftKerningGroup = O;
note = C;
rightKerningGroup = C;
unicode = 0043;
},
{
glyphname = D;
lastChange = "2016-03-12 22:01:08 +0000";
layers = (
{
anchors = (
{
name = bottom;
position = "{313, 0}";
},
{
name = center;
position = "{162, 324}";
},
{
name = top;
position = "{303, 666}";
}
);
hints = (
{
horizontal = 1;
origin = "{0, 15}";
target = "{1, 8}";
},
{
horizontal = 1;
origin = "{0, 14}";
target = "{1, 0}";
},
{
origin = "{0, 15}";
target = "{1, 8}";
},
{
origin = "{1, 4}";
target = "{0, 5}";
}
);
layerId = "67A5D7A9-2C6D-4B81-A947-AF9C36497881";
name = Regular;
paths = (
{
closed = 1;
nodes = (
"210 -1 OFFCURVE",
"245 -1 OFFCURVE",
"280 0 CURVE SMOOTH",
"500 3 OFFCURVE",
"645 140 OFFCURVE",
"645 351 CURVE SMOOTH",
"645 543 OFFCURVE",
"520 664 OFFCURVE",
"323 666 CURVE SMOOTH",
"281 667 OFFCURVE",
"238 667 OFFCURVE",
"196 667 CURVE SMOOTH",
"154 667 OFFCURVE",
"112 667 OFFCURVE",
"69 666 CURVE",
"69 0 LINE",
"104 -1 OFFCURVE",
"139 -1 OFFCURVE",
"175 -1 CURVE SMOOTH"
);
},
{
closed = 1;
nodes = (
"214 540 LINE",
"304 540 LINE SMOOTH",
"428 540 OFFCURVE",
"496 471 OFFCURVE",
"496 347 CURVE SMOOTH",
"496 210 OFFCURVE",
"413 126 OFFCURVE",
"279 126 CURVE SMOOTH",
"214 126 LINE"
);
}
);
width = 685;
}
);
leftKerningGroup = H;
note = D;
rightKerningGroup = O;
unicode = 0044;
},
{
glyphname = E;
lastChange = "2016-03-12 22:01:07 +0000";
layers = (
{
anchors = (
{
name = bottom;
position = "{275, 0}";
},
{
name = ogonek;
position = "{424, 0}";
},
{
name = top;
position = "{275, 666}";
},
{
name = topleft;
position = "{20, 666}";
}
);
hints = (
{
horizontal = 1;
origin = "{0, 11}";
target = "{0, 2}";
},
{
horizontal = 1;
origin = "{0, 3}";
target = "{0, 6}";
},
{
horizontal = 1;
origin = "{0, 10}";
target = "{0, 7}";
},
{
origin = "{0, 11}";
target = "{0, 2}";
}
);
layerId = "67A5D7A9-2C6D-4B81-A947-AF9C36497881";
name = Regular;
paths = (
{
closed = 1;
nodes = (
"475 0 LINE",
"475 126 LINE",
"213 126 LINE",
"213 285 LINE",
"430 285 LINE",
"430 407 LINE",
"213 407 LINE",
"213 540 LINE",
"475 540 LINE",
"475 666 LINE",
"70 666 LINE",
"70 0 LINE"
);
}
);
width = 530;
}
);
leftKerningGroup = H;
note = E;
rightKerningGroup = E;
unicode = 0045;
},
{
glyphname = F;
lastChange = "2016-03-12 22:01:07 +0000";
layers = (
{
anchors = (
{
name = bottom;
position = "{141, 0}";
},
{
name = top;
position = "{279, 666}";
}
);
hints = (
{
horizontal = 1;
origin = "{0, 9}";
target = up;
type = BottomGhost;
},
{
horizontal = 1;
origin = "{0, 1}";
target = "{0, 4}";
},
{
horizontal = 1;
origin = "{0, 8}";
target = "{0, 5}";
},
{
origin = "{0, 9}";
target = "{0, 0}";
}
);
layerId = "67A5D7A9-2C6D-4B81-A947-AF9C36497881";
name = Regular;
paths = (
{
closed = 1;
nodes = (
"215 0 LINE",
"215 263 LINE",
"432 263 LINE",
"432 388 LINE",
"215 388 LINE",
"215 540 LINE",
"477 540 LINE",
"477 666 LINE",
"70 666 LINE",
"70 0 LINE"
);
}
);
width = 517;
}
);
leftKerningGroup = H;
note = F;
rightKerningGroup = F;
unicode = 0046;
},
{
glyphname = G;
lastChange = "2016-03-12 22:01:07 +0000";
layers = (
{
anchors = (
{
name = bottom;
position = "{399, 0}";
},
{
name = top;
position = "{394, 666}";
}
);
hints = (
{
horizontal = 1;
origin = "{0, 29}";
target = "{0, 10}";
},
{
horizontal = 1;
origin = "{0, 5}";
target = "{0, 4}";
},
{
horizontal = 1;
origin = "{0, 23}";
target = "{0, 16}";
},
{
origin = "{0, 26}";
target = "{0, 13}";
},
{
origin = "{0, 7}";
target = "{0, 2}";
}
);
layerId = "67A5D7A9-2C6D-4B81-A947-AF9C36497881";
name = Regular;
paths = (
{
closed = 1;
nodes = (
"480 -15 OFFCURVE",
"558 -1 OFFCURVE",
"624 24 CURVE",
"624 370 LINE",
"407 370 LINE",
"407 253 LINE",
"491 253 LINE",
"491 115 LINE",
"467 111 OFFCURVE",
"441 109 OFFCURVE",
"413 109 CURVE SMOOTH",
"273 109 OFFCURVE",
"187 191 OFFCURVE",
"187 324 CURVE SMOOTH",
"187 461 OFFCURVE",
"276 552 OFFCURVE",
"409 552 CURVE SMOOTH",
"471 552 OFFCURVE",
"538 533 OFFCURVE",
"590 501 CURVE",
"625 621 LINE",
"568 656 OFFCURVE",
"491 675 OFFCURVE",
"409 675 CURVE SMOOTH",
"190 675 OFFCURVE",
"45 531 OFFCURVE",
"45 314 CURVE SMOOTH",
"45 108 OFFCURVE",
"179 -15 OFFCURVE",
"403 -15 CURVE SMOOTH"
);
}
);
width = 688;
}
);
leftKerningGroup = O;
note = G;
rightKerningGroup = G;
unicode = 0047;
},
{
glyphname = H;
lastChange = "2016-03-12 22:01:07 +0000";
layers = (
{
anchors = (
{
name = bottom;
position = "{358, 0}";
},
{
name = center;
position = "{358, 536}";
},
{
name = top;
position = "{358, 666}";
},
{
name = topleft;
position = "{20, 666}";
}
);
hints = (
{
horizontal = 1;
origin = "{0, 11}";
target = up;
type = BottomGhost;
},
{
horizontal = 1;
origin = "{0, 1}";
target = "{0, 8}";
},
{
horizontal = 1;
origin = "{0, 10}";
target = down;
type = TopGhost;
},
{
origin = "{0, 11}";
target = "{0, 0}";
},
{
origin = "{0, 3}";
target = "{0, 4}";
}
);
layerId = "67A5D7A9-2C6D-4B81-A947-AF9C36497881";
name = Regular;
paths = (
{
closed = 1;
nodes = (
"216 0 LINE",
"216 284 LINE",
"499 284 LINE",
"499 0 LINE",
"646 0 LINE",
"646 666 LINE",
"499 666 LINE",
"499 408 LINE",
"216 408 LINE",
"216 666 LINE",
"70 666 LINE",
"70 0 LINE"
);
}
);
width = 716;
}
);
leftKerningGroup = H;
note = H;
rightKerningGroup = H;
unicode = 0048;
},
{
glyphname = I;
lastChange = "2016-03-12 22:01:07 +0000";
layers = (
{
anchors = (
{
name = bottom;
position = "{151, 0}";
},
{
name = ogonek;
position = "{172, 0}";
},
{
name = top;
position = "{151, 666}";
},
{
name = topleft;
position = "{20, 666}";
}
);
hints = (
{
horizontal = 1;
origin = "{0, 3}";
target = up;
type = BottomGhost;
},
{
horizontal = 1;
origin = "{0, 2}";
target = down;
type = TopGhost;
},
{
origin = "{0, 3}";
target = "{0, 0}";
}
);
layerId = "67A5D7A9-2C6D-4B81-A947-AF9C36497881";
name = Regular;
paths = (
{
closed = 1;
nodes = (
"223 0 LINE",
"223 666 LINE",
"78 666 LINE",
"78 0 LINE"
);
}
);
width = 301;
}
);
leftKerningGroup = H;
note = I;
rightKerningGroup = H;
unicode = 0049;
},
{
glyphname = Iogonek;
lastChange = "2016-03-12 22:01:07 +0000";
layers = (
{
hints = (
{
horizontal = 1;
origin = "{0, 21}";
target = "{0, 6}";
},
{
horizontal = 1;
origin = "{0, 12}";
target = down;
type = TopGhost;
},
{
horizontal = 1;
origin = "{0, 14}";
target = down;
type = TopGhost;
},
{
origin = "{0, 15}";
target = "{0, 12}";
}
);
layerId = "67A5D7A9-2C6D-4B81-A947-AF9C36497881";
name = Regular;
paths = (
{
closed = 1;
nodes = (
"169 -220 OFFCURVE",
"201 -212 OFFCURVE",
"221 -197 CURVE",
"226 -120 LINE",
"208 -131 OFFCURVE",
"187 -137 OFFCURVE",
"168 -137 CURVE SMOOTH",
"139 -137 OFFCURVE",
"114 -123 OFFCURVE",
"114 -93 CURVE SMOOTH",
"114 -52 OFFCURVE",
"160 -19 OFFCURVE",
"223 0 CURVE",
"223 666 LINE",
"78 666 LINE",
"78 -20 LINE",
"46 -43 OFFCURVE",
"23 -78 OFFCURVE",
"23 -122 CURVE SMOOTH",
"23 -181 OFFCURVE",
"65 -220 OFFCURVE",
"137 -220 CURVE SMOOTH"
);
}
);
width = 301;
}
);
leftKerningGroup = H;
rightKerningGroup = H;
unicode = 012E;
},
{
glyphname = J;
lastChange = "2016-03-12 22:01:07 +0000";
layers = (
{
anchors = (
{
name = bottom;
position = "{169, 0}";
},
{
name = top;
position = "{181, 666}";
}
);
hints = (
{
horizontal = 1;
origin = "{0, 15}";
target = "{0, 8}";
},
{
horizontal = 1;
origin = "{0, 4}";
target = down;
type = TopGhost;
},
{
horizontal = 1;
origin = "{0, 15}";
target = up;
type = BottomGhost;
},
{
origin = "{0, 5}";
target = "{0, 2}";
},
{
horizontal = 1;
origin = "{0, 11}";
target = down;
type = TopGhost;
}
);
layerId = "67A5D7A9-2C6D-4B81-A947-AF9C36497881";
name = Regular;
paths = (
{
closed = 1;
nodes = (
"200 -15 OFFCURVE",
"268 53 OFFCURVE",
"268 161 CURVE SMOOTH",
"268 666 LINE",
"128 666 LINE",
"128 173 LINE SMOOTH",
"128 129 OFFCURVE",
"109 111 OFFCURVE",
"78 111 CURVE SMOOTH",
"59 111 OFFCURVE",
"42 118 OFFCURVE",
"25 127 CURVE",
"-13 6 LINE",
"21 -9 OFFCURVE",
"60 -15 OFFCURVE",
"93 -15 CURVE SMOOTH"
);
}
);
width = 338;
}
);
leftKerningGroup = J;
note = J;
rightKerningGroup = J;
unicode = 004A;
},
{
glyphname = K;
lastChange = "2016-03-12 22:01:07 +0000";
layers = (
{
anchors = (
{
name = bottom;
position = "{308, 0}";
},
{
name = top;
position = "{308, 666}";
}
);
hints = (
{
horizontal = 1;
origin = "{0, 10}";
target = up;
type = BottomGhost;
},
{
horizontal = 1;
origin = "{0, 9}";
target = down;
type = TopGhost;
},
{
origin = "{0, 10}";
target = "{0, 0}";
}
);
layerId = "67A5D7A9-2C6D-4B81-A947-AF9C36497881";
name = Regular;
paths = (
{
closed = 1;
nodes = (
"215 0 LINE",
"215 269 LINE",
"415 0 LINE",
"591 0 LINE",
"331 350 LINE",
"605 666 LINE",
"432 666 LINE",
"215 408 LINE",
"215 666 LINE",
"70 666 LINE",
"70 0 LINE"
);
}
);
width = 615;
}
);
leftKerningGroup = H;
note = K;
rightKerningGroup = K;
unicode = 004B;
},
{
glyphname = L;
lastChange = "2016-03-12 22:01:07 +0000";
layers = (
{
anchors = (
{
name = bottom;
position = "{261, 0}";
},
{
name = center;
position = "{151, 363}";
},
{
name = top;
position = "{143, 666}";
},
{
name = topright;
position = "{465, 666}";
}
);
hints = (
{
horizontal = 1;
origin = "{0, 5}";
target = "{0, 2}";
},
{
horizontal = 1;
origin = "{0, 4}";
target = down;
type = TopGhost;
},
{
origin = "{0, 5}";
target = "{0, 2}";
}
);
layerId = "67A5D7A9-2C6D-4B81-A947-AF9C36497881";
name = Regular;
paths = (
{
closed = 1;
nodes = (
"455 0 LINE",
"455 126 LINE",
"215 126 LINE",
"215 666 LINE",
"70 666 LINE",
"70 0 LINE"
);
}
);
width = 485;
}
);
leftKerningGroup = H;
note = L;
rightKerningGroup = L;
unicode = 004C;
},
{
glyphname = Lcaron;
lastChange = "2016-03-12 22:01:08 +0000";
layers = (
{
hints = (
{
horizontal = 1;
origin = "{0, 5}";
target = "{0, 2}";
},
{
horizontal = 1;
origin = "{0, 4}";
target = down;
type = TopGhost;
},
{
origin = "{0, 5}";
target = "{0, 2}";
},
{
origin = "{1, 11}";
target = "{1, 2}";
},
{
horizontal = 1;
origin = "{1, 16}";
target = up;
type = BottomGhost;
},
{
horizontal = 1;
origin = "{1, 12}";
target = "{1, 5}";
}
);
layerId = "67A5D7A9-2C6D-4B81-A947-AF9C36497881";
name = Regular;
paths = (
{
closed = 1;
nodes = (
"455 0 LINE",
"455 126 LINE",
"215 126 LINE",
"215 666 LINE",
"70 666 LINE",
"70 0 LINE"
);
},
{
closed = 1;
nodes = (
"418 484 OFFCURVE",
"477 546 OFFCURVE",
"477 609 CURVE SMOOTH",
"477 659 OFFCURVE",
"443 691 OFFCURVE",
"404 691 CURVE SMOOTH",
"381 691 OFFCURVE",
"361 681 OFFCURVE",
"348 666 CURVE SMOOTH",
"336 651 OFFCURVE",
"330 631 OFFCURVE",
"332 609 CURVE",
"370 561 LINE",
"361 537 OFFCURVE",
"344 508 OFFCURVE",
"324 484 CURVE",
"350 449 LINE"
);
}
);
width = 505;
}
);
leftKerningGroup = H;
unicode = 013D;
},
{
glyphname = M;
lastChange = "2016-03-12 22:01:07 +0000";
layers = (
{
anchors = (
{
name = bottom;
position = "{453, 0}";
},
{
name = top;
position = "{453, 666}";
}
);
guideLines = (
{
position = "{221, 457}";
}
);
hints = (
{
horizontal = 1;
origin = "{0, 0}";
target = up;
type = BottomGhost;
},
{
horizontal = 1;
origin = "{0, 8}";
target = down;
type = TopGhost;
},
{
horizontal = 1;
origin = "{0, 9}";
target = down;
type = TopGhost;
}
);
layerId = "67A5D7A9-2C6D-4B81-A947-AF9C36497881";
name = Regular;
paths = (
{
closed = 1;
nodes = (
"512 -7 LINE",
"688 468 LINE",
"734 0 LINE",
"864 0 LINE",
"803 666 LINE",
"623 666 LINE",
"458 188 LINE",
"288 666 LINE",
"108 666 LINE",
"45 0 LINE SMOOTH",
"174 0 LINE",
"216 470 LINE",
"393 -18 LINE"
);
}
);
width = 911;
}
);
leftKerningGroup = M;
note = M;
rightKerningGroup = M;
unicode = 004D;
},
{
glyphname = N;
lastChange = "2016-03-12 22:01:07 +0000";
layers = (
{
anchors = (
{
name = bottom;
position = "{360, 0}";
},
{
name = top;
position = "{360, 666}";
}
);
hints = (
{
horizontal = 1;
origin = "{0, 9}";
target = up;
type = BottomGhost;
},
{
horizontal = 1;
origin = "{0, 8}";
target = down;
type = TopGhost;
},
{
origin = "{0, 9}";
target = "{0, 0}";
},
{
origin = "{0, 6}";
target = "{0, 3}";
}
);
layerId = "67A5D7A9-2C6D-4B81-A947-AF9C36497881";
name = Regular;
paths = (
{
closed = 1;
nodes = (
"203 0 LINE",
"203 470 LINE",
"481 0 LINE",
"649 0 LINE",
"649 666 LINE",
"516 666 LINE",
"516 199 LINE",
"240 666 LINE",
"70 666 LINE",
"70 0 LINE"
);
}
);
width = 719;
}
);
leftKerningGroup = H;
note = N;
rightKerningGroup = H;
unicode = 004E;
},
{
glyphname = Eng;
lastChange = "2016-03-12 22:01:07 +0000";
layers = (
{
hints = (
{
horizontal = 1;
origin = "{0, 23}";
target = "{0, 16}";
},
{
horizontal = 1;
origin = "{0, 8}";
target = up;
type = BottomGhost;
},
{
horizontal = 1;
origin = "{0, 7}";
target = down;
type = TopGhost;
},
{
horizontal = 1;
origin = "{0, 23}";
target = up;
type = BottomGhost;
},
{
origin = "{0, 8}";
target = "{0, 9}";
},
{
origin = "{0, 5}";
target = "{0, 2}";
}
);
layerId = "67A5D7A9-2C6D-4B81-A947-AF9C36497881";
name = Regular;
paths = (
{
closed = 1;
nodes = (
"581 -233 OFFCURVE",
"649 -165 OFFCURVE",
"649 -57 CURVE SMOOTH",
"649 666 LINE",
"516 666 LINE",
"516 199 LINE",
"240 666 LINE",
"70 666 LINE",
"70 0 LINE",
"203 0 LINE",
"203 470 LINE",
"481 0 LINE",
"509 0 LINE",
"509 -46 LINE SMOOTH",
"509 -87 OFFCURVE",
"492 -107 OFFCURVE",
"457 -107 CURVE SMOOTH",
"443 -107 OFFCURVE",
"426 -103 OFFCURVE",
"411 -96 CURVE",
"373 -214 LINE",
"408 -226 OFFCURVE",
"442 -233 OFFCURVE",
"474 -233 CURVE SMOOTH"
);
}
);
width = 719;
}
);
leftKerningGroup = H;
rightKerningGroup = J;
rightMetricsKey = J;
unicode = 014A;
},
{
glyphname = O;
lastChange = "2016-03-12 22:01:08 +0000";
layers = (
{
anchors = (
{
name = bottom;
position = "{371, 0}";
},
{
name = center;
position = "{371, 333}";
},
{
name = ogonek;
position = "{420, 0}";
},
{
name = top;
position = "{371, 666}";
},
{
name = topleft;
position = "{20, 666}";
},
{
name = topright;
position = "{721, 666}";
}
);
hints = (
{
horizontal = 1;
origin = "{0, 11}";
target = "{1, 11}";
},
{
horizontal = 1;
origin = "{0, 5}";
target = "{1, 5}";
},
{
origin = "{0, 8}";
target = "{1, 2}";
},
{
origin = "{1, 8}";
target = "{0, 2}";
}
);
layerId = "67A5D7A9-2C6D-4B81-A947-AF9C36497881";
name = Regular;
paths = (
{
closed = 1;
nodes = (
"569 -13 OFFCURVE",
"701 126 OFFCURVE",
"701 334 CURVE SMOOTH",
"701 538 OFFCURVE",
"569 674 OFFCURVE",
"371 674 CURVE SMOOTH",
"172 674 OFFCURVE",
"40 537 OFFCURVE",
"40 330 CURVE SMOOTH",
"40 125 OFFCURVE",
"173 -13 OFFCURVE",
"371 -13 CURVE SMOOTH"
);
},
{
closed = 1;
nodes = (
"262 114 OFFCURVE",
"190 200 OFFCURVE",
"190 330 CURVE SMOOTH",
"190 460 OFFCURVE",
"263 547 OFFCURVE",
"371 546 CURVE SMOOTH",
"479 547 OFFCURVE",
"552 460 OFFCURVE",
"552 330 CURVE SMOOTH",
"552 199 OFFCURVE",
"481 114 OFFCURVE",
"371 114 CURVE SMOOTH"
);
}
);
width = 741;
}
);
leftKerningGroup = O;
note = O;
rightKerningGroup = O;
unicode = 004F;
},
{
glyphname = OE;
lastChange = "2016-03-12 22:01:08 +0000";
layers = (
{
anchors = (
{
name = bottom;
position = "{455, 0}";
},
{
name = top;
position = "{455, 666}";
}
);
hints = (
{
horizontal = 1;
origin = "{0, 22}";
target = "{1, 12}";
},
{
horizontal = 1;
origin = "{0, 6}";
target = "{0, 9}";
},
{
horizontal = 1;
origin = "{0, 13}";
target = "{0, 10}";
},
{
horizontal = 1;
origin = "{0, 2}";
target = "{0, 5}";
},
{
horizontal = 1;
origin = "{0, 16}";
target = "{1, 5}";
},
{
origin = "{0, 19}";
target = "{1, 2}";
},
{
origin = "{1, 9}";
target = "{0, 5}";
}
);
layerId = "67A5D7A9-2C6D-4B81-A947-AF9C36497881";
name = Regular;
paths = (
{
closed = 1;
nodes = (
"406 -13 OFFCURVE",
"440 -9 OFFCURVE",
"470 0 CURVE",
"855 0 LINE",
"855 126 LINE",
"593 126 LINE",
"593 285 LINE",
"810 285 LINE",
"810 407 LINE",
"593 407 LINE",
"593 540 LINE",
"855 540 LINE",
"855 666 LINE",
"450 666 LINE",
"425 671 OFFCURVE",
"399 674 OFFCURVE",
"371 674 CURVE SMOOTH",
"172 674 OFFCURVE",
"40 537 OFFCURVE",
"40 330 CURVE SMOOTH",
"40 125 OFFCURVE",
"173 -13 OFFCURVE",
"371 -13 CURVE SMOOTH"
);
},
{
closed = 1;
nodes = (
"262 114 OFFCURVE",
"190 200 OFFCURVE",
"190 330 CURVE SMOOTH",
"190 459 OFFCURVE",
"262 546 OFFCURVE",
"369 546 CURVE SMOOTH",
"399 546 OFFCURVE",
"426 540 OFFCURVE",
"450 529 CURVE",
"450 131 LINE",
"427 120 OFFCURVE",
"400 114 OFFCURVE",
"371 114 CURVE SMOOTH"
);
}
);
width = 910;
}
);
leftKerningGroup = O;
rightKerningGroup = E;
rightMetricsKey = E;
unicode = 0152;
},
{
glyphname = P;
lastChange = "2016-03-12 22:01:08 +0000";
layers = (
{
anchors = (
{
name = bottom;
position = "{142, 0}";
},
{
name = top;
position = "{274, 666}";
}
);
hints = (
{
horizontal = 1;
origin = "{0, 15}";
target = up;
type = BottomGhost;
},
{
horizontal = 1;
origin = "{0, 1}";
target = "{1, 8}";
},
{
horizontal = 1;
origin = "{0, 14}";
target = "{1, 0}";
},
{
origin = "{0, 15}";
target = "{0, 0}";
},
{
origin = "{1, 4}";
target = "{0, 5}";
}
);
layerId = "67A5D7A9-2C6D-4B81-A947-AF9C36497881";
name = Regular;
paths = (
{
closed = 1;
nodes = (
"209 0 LINE",
"209 238 LINE",
"274 238 LINE SMOOTH",
"414 238 OFFCURVE",
"512 328 OFFCURVE",
"512 464 CURVE SMOOTH",
"512 591 OFFCURVE",
"427 663 OFFCURVE",
"291 666 CURVE SMOOTH",
"262 667 OFFCURVE",
"221 667 OFFCURVE",
"180 667 CURVE SMOOTH",
"139 667 OFFCURVE",
"99 667 OFFCURVE",
"70 666 CURVE",
"70 0 LINE"
);
},
{
closed = 1;
nodes = (
"209 548 LINE",
"275 548 LINE SMOOTH",
"339 548 OFFCURVE",
"372 518 OFFCURVE",
"372 460 CURVE SMOOTH",
"372 396 OFFCURVE",
"333 356 OFFCURVE",
"268 356 CURVE SMOOTH",
"209 356 LINE"
);
}
);
width = 547;
}
);
leftKerningGroup = H;
note = P;
rightKerningGroup = P;
unicode = 0050;
},
{
glyphname = Thorn;
lastChange = "2016-03-12 22:01:08 +0000";
layers = (
{
anchors = (
{
name = bottom;
position = "{132, 0}";
},
{
name = top;
position = "{300, 666}";
}
);
hints = (
{
horizontal = 1;
origin = "{0, 12}";
target = up;
type = BottomGhost;
},
{
horizontal = 1;
place = "{113.000000, 119.000000}";
},
{
horizontal = 1;
origin = "{1, 0}";
target = "{0, 9}";
},
{
horizontal = 1;
origin = "{0, 11}";
target = down;
type = TopGhost;
},
{
origin = "{0, 12}";
target = "{0, 0}";
},
{
origin = "{1, 4}";
target = "{0, 5}";
}
);
layerId = "67A5D7A9-2C6D-4B81-A947-AF9C36497881";
name = Regular;
paths = (
{
closed = 1;
nodes = (
"209 0 LINE",
"209 112 LINE",
"268 114 LINE SMOOTH",
"414 119 OFFCURVE",
"512 204 OFFCURVE",
"512 341 CURVE SMOOTH",
"512 467 OFFCURVE",
"428 542 OFFCURVE",
"286 542 CURVE SMOOTH",
"209 542 LINE",
"209 666 LINE",
"70 666 LINE",
"70 0 LINE"
);
},
{
closed = 1;
nodes = (
"209 425 LINE",
"267 425 LINE SMOOTH",
"335 425 OFFCURVE",
"372 394 OFFCURVE",
"372 336 CURVE SMOOTH",
"372 272 OFFCURVE",
"326 232 OFFCURVE",
"253 232 CURVE SMOOTH",
"209 232 LINE"
);
}
);
width = 557;
}
);
leftKerningGroup = H;
unicode = 00DE;
},
{
glyphname = Q;
lastChange = "2016-03-12 22:01:08 +0000";
layers = (
{
anchors = (
{
name = bottom;
position = "{373, 0}";
},
{
name = top;
position = "{371, 673}";
}
);
hints = (
{
horizontal = 1;
origin = "{0, 13}";
target = "{1, 13}";
},
{
horizontal = 1;
origin = "{0, 7}";
target = "{1, 5}";
},
{
origin = "{0, 10}";
target = "{1, 2}";
},
{
origin = "{1, 8}";
target = "{0, 4}";
},
{
horizontal = 1;
origin = "{0, 17}";
target = up;
type = BottomGhost;
},
{
horizontal = 1;
origin = "{1, 12}";
target = down;
type = TopGhost;
}
);
layerId = "67A5D7A9-2C6D-4B81-A947-AF9C36497881";
name = Regular;
paths = (
{
closed = 1;
nodes = (
"704 34 LINE",
"611 82 LINE",
"668 143 OFFCURVE",
"701 230 OFFCURVE",
"701 333 CURVE SMOOTH",
"701 538 OFFCURVE",
"569 673 OFFCURVE",
"371 673 CURVE SMOOTH",
"172 673 OFFCURVE",
"40 536 OFFCURVE",
"40 329 CURVE SMOOTH",
"40 124 OFFCURVE",
"173 -14 OFFCURVE",
"371 -14 CURVE SMOOTH",
"410 -14 OFFCURVE",
"446 -9 OFFCURVE",
"479 1 CURVE",
"689 -103 LINE"
);
},
{
closed = 1;
nodes = (
"261 114 OFFCURVE",
"190 200 OFFCURVE",
"190 329 CURVE SMOOTH",
"190 459 OFFCURVE",
"263 547 OFFCURVE",
"371 546 CURVE SMOOTH",
"479 547 OFFCURVE",
"552 460 OFFCURVE",
"552 329 CURVE SMOOTH",
"552 250 OFFCURVE",
"526 187 OFFCURVE",
"481 150 CURVE",
"378 204 LINE",
"369 113 LINE"
);
}
);
width = 746;
}
);
leftKerningGroup = O;
note = Q;
rightKerningGroup = Q;
unicode = 0051;
},
{
glyphname = R;
lastChange = "2016-03-12 22:01:08 +0000";
layers = (
{
anchors = (
{
name = bottom;
position = "{297, 0}";
},
{
name = top;
position = "{270, 666}";
}
);
hints = (
{
horizontal = 1;
origin = "{0, 25}";
target = up;
type = BottomGhost;
},
{
horizontal = 1;
origin = "{0, 1}";
target = "{1, 8}";
},
{
horizontal = 1;
origin = "{0, 24}";
target = "{1, 0}";
},
{
origin = "{0, 25}";
target = "{0, 0}";
},
{
origin = "{1, 4}";
target = "{0, 15}";
}
);
layerId = "67A5D7A9-2C6D-4B81-A947-AF9C36497881";
name = Regular;
paths = (
{
closed = 1;
nodes = (
"205 0 LINE",
"205 260 LINE",
"241 260 OFFCURVE",
"256 256 OFFCURVE",
"281 210 CURVE SMOOTH",
"394 0 LINE",
"562 0 LINE",
"532 54 OFFCURVE",
"516 82 OFFCURVE",
"479 141 CURVE SMOOTH",
"430 219 OFFCURVE",
"405 255 OFFCURVE",
"375 279 CURVE",
"464 301 OFFCURVE",
"517 374 OFFCURVE",
"517 472 CURVE SMOOTH",
"517 583 OFFCURVE",
"448 660 OFFCURVE",
"291 666 CURVE SMOOTH",
"261 667 OFFCURVE",
"219 667 OFFCURVE",
"178 667 CURVE SMOOTH",
"137 667 OFFCURVE",
"96 667 OFFCURVE",
"66 666 CURVE",
"66 0 LINE"
);
},
{
closed = 1;
nodes = (
"205 549 LINE",
"275 549 LINE SMOOTH",
"342 549 OFFCURVE",
"377 521 OFFCURVE",
"377 467 CURVE SMOOTH",
"377 408 OFFCURVE",
"336 371 OFFCURVE",
"267 371 CURVE SMOOTH",
"205 371 LINE"
);
}
);
width = 560;
}
);
leftKerningGroup = H;
note = R;
rightKerningGroup = R;
unicode = 0052;
},
{
glyphname = S;
lastChange = "2016-03-12 22:01:07 +0000";
layers = (
{
anchors = (
{
name = bottom;
position = "{271, 0}";
},
{
name = top;
position = "{271, 666}";
}
);
hints = (
{
horizontal = 1;
origin = "{0, 37}";
target = "{0, 30}";
},
{
horizontal = 1;
origin = "{0, 18}";
target = "{0, 11}";
},
{
origin = "{0, 21}";
target = "{0, 8}";
},
{
origin = "{0, 27}";
target = "{0, 2}";
},
{
horizontal = 1;
origin = "{0, 14}";
target = up;
type = BottomGhost;
},
{
horizontal = 1;
origin = "{0, 33}";
target = down;
type = TopGhost;
}
);
layerId = "67A5D7A9-2C6D-4B81-A947-AF9C36497881";
name = Regular;
paths = (
{
closed = 1;
nodes = (
"404 -13 OFFCURVE",
"496 63 OFFCURVE",
"496 192 CURVE SMOOTH",
"496 350 OFFCURVE",
"356 376 OFFCURVE",
"267 414 CURVE SMOOTH",
"223 433 OFFCURVE",
"191 449 OFFCURVE",
"191 488 CURVE SMOOTH",
"191 529 OFFCURVE",
"227 556 OFFCURVE",
"290 556 CURVE SMOOTH",
"340 556 OFFCURVE",
"401 539 OFFCURVE",
"450 511 CURVE",
"472 643 LINE",
"411 667 OFFCURVE",
"351 679 OFFCURVE",
"292 679 CURVE SMOOTH",
"137 679 OFFCURVE",
"46 600 OFFCURVE",
"46 473 CURVE SMOOTH",
"46 334 OFFCURVE",
"157 303 OFFCURVE",
"244 266 CURVE SMOOTH",
"301 242 OFFCURVE",
"351 230 OFFCURVE",
"351 183 CURVE SMOOTH",
"351 139 OFFCURVE",
"307 110 OFFCURVE",
"243 110 CURVE SMOOTH",
"187 110 OFFCURVE",
"117 132 OFFCURVE",
"57 169 CURVE",
"45 35 LINE",
"94 6 OFFCURVE",
"167 -13 OFFCURVE",
"246 -13 CURVE SMOOTH"
);
}
);
width = 541;
}
);
leftKerningGroup = S;
note = S;
rightKerningGroup = S;
unicode = 0053;
},
{
glyphname = T;
lastChange = "2016-03-12 22:01:07 +0000";
layers = (
{
anchors = (
{
name = bottom;
position = "{284, 0}";
},
{
name = center;
position = "{284, 333}";
},
{
name = top;
position = "{284, 666}";
}
);
hints = (
{
horizontal = 1;
origin = "{0, 7}";
target = up;
type = BottomGhost;
},
{
horizontal = 1;
origin = "{0, 4}";
target = "{0, 5}";
},
{
origin = "{0, 7}";
target = "{0, 0}";
}
);
layerId = "67A5D7A9-2C6D-4B81-A947-AF9C36497881";
name = Regular;
paths = (
{
closed = 1;
nodes = (
"358 0 LINE",
"358 540 LINE",
"538 540 LINE",
"538 666 LINE",
"30 666 LINE",
"30 540 LINE",
"212 540 LINE",
"212 0 LINE"
);
}
);
width = 568;
}
);
leftKerningGroup = T;
note = T;
rightKerningGroup = T;
unicode = 0054;
},
{
glyphname = U;
lastChange = "2016-03-12 22:01:07 +0000";
layers = (
{
anchors = (
{
name = bottom;
position = "{348, 0}";
},
{
name = ogonek;
position = "{390, 0}";
},
{
name = top;
position = "{348, 666}";
},
{
name = topright;
position = "{710, 666}";
}
);
hints = (
{
horizontal = 1;
origin = "{0, 17}";
target = "{0, 8}";
},
{
horizontal = 1;
origin = "{0, 13}";
target = down;
type = TopGhost;
},
{
origin = "{0, 14}";
target = "{0, 11}";
},
{
origin = "{0, 5}";
target = "{0, 2}";
}
);
layerId = "67A5D7A9-2C6D-4B81-A947-AF9C36497881";
name = Regular;
paths = (
{
closed = 1;
nodes = (
"515 -13 OFFCURVE",
"626 99 OFFCURVE",
"626 267 CURVE SMOOTH",
"626 666 LINE",
"481 666 LINE",
"481 278 LINE SMOOTH",
"481 180 OFFCURVE",
"429 117 OFFCURVE",
"348 117 CURVE SMOOTH",
"267 117 OFFCURVE",
"216 179 OFFCURVE",
"216 278 CURVE SMOOTH",
"216 666 LINE",
"70 666 LINE",
"70 267 LINE SMOOTH",
"70 99 OFFCURVE",
"181 -13 OFFCURVE",
"348 -13 CURVE SMOOTH"
);
}
);
width = 696;
}
);
leftKerningGroup = U;
note = U;
rightKerningGroup = U;
unicode = 0055;
},
{
glyphname = V;
lastChange = "2016-03-12 22:01:07 +0000";
layers = (
{
anchors = (
{
name = bottom;
position = "{322, 0}";
},
{
name = top;
position = "{322, 666}";
}
);
hints = (
{
horizontal = 1;
origin = "{0, 6}";
target = up;
type = BottomGhost;
},
{
horizontal = 1;
origin = "{0, 5}";
target = down;
type = TopGhost;
},
{
horizontal = 1;
origin = "{0, 0}";
target = "{0, 3}";
}
);
layerId = "67A5D7A9-2C6D-4B81-A947-AF9C36497881";
name = Regular;
paths = (
{
closed = 1;
nodes = (
"410 0 LINE",
"634 666 LINE",
"485 666 LINE",
"328 158 LINE",
"170 666 LINE",
"10 666 LINE",
"235 0 LINE"
);
}
);
width = 644;
}
);
leftKerningGroup = V;
note = V;
rightKerningGroup = V;
unicode = 0056;
},
{
glyphname = W;
lastChange = "2016-03-12 22:01:07 +0000";
layers = (
{
anchors = (
{
name = bottom;
position = "{511, 0}";
},
{
name = top;
position = "{511, 666}";
}
);
hints = (
{
horizontal = 1;
origin = "{0, 12}";
target = up;
type = BottomGhost;
},
{
horizontal = 1;
origin = "{0, 7}";
target = down;
type = TopGhost;
},
{
horizontal = 1;
origin = "{0, 11}";
target = down;
type = TopGhost;
},
{
horizontal = 1;
origin = "{0, 7}";
target = "{0, 1}";
},
{
horizontal = 1;
origin = "{0, 3}";
target = "{0, 6}";
}
);
layerId = "67A5D7A9-2C6D-4B81-A947-AF9C36497881";
name = Regular;
paths = (
{
closed = 1;
nodes = (
"374 0 LINE",
"508 527 LINE",
"637 0 LINE",
"812 0 LINE",
"992 666 LINE",
"849 666 LINE",
"732 173 LINE",
"606 676 LINE",
"419 662 LINE",
"300 187 LINE",
"184 666 LINE",
"30 666 LINE",
"201 0 LINE"
);
}
);
width = 1022;
}
);
leftKerningGroup = V;
note = W;
rightKerningGroup = V;
unicode = 0057;
},
{
glyphname = X;
lastChange = "2016-03-12 22:01:07 +0000";
layers = (
{
anchors = (
{
name = bottom;
position = "{337, 0}";
},
{
name = top;
position = "{337, 666}";
}
);
hints = (
{
horizontal = 1;
origin = "{0, 11}";
target = up;
type = BottomGhost;
},
{
horizontal = 1;
origin = "{0, 9}";
target = down;
type = TopGhost;
}
);
layerId = "67A5D7A9-2C6D-4B81-A947-AF9C36497881";
name = Regular;
paths = (
{
closed = 1;
nodes = (
"173 0 LINE",
"329 235 LINE",
"490 0 LINE",
"667 0 LINE",
"426 350 LINE",
"645 666 LINE",
"485 666 LINE",
"340 452 LINE",
"195 666 LINE",
"23 666 LINE",
"243 342 LINE",
"6 0 LINE"
);
}
);
width = 673;
}
);
leftKerningGroup = X;
note = X;
rightKerningGroup = X;
unicode = 0058;
},
{
glyphname = Y;
lastChange = "2016-03-12 22:01:07 +0000";
layers = (
{
anchors = (
{
name = bottom;
position = "{301, 0}";
},
{
name = top;
position = "{301, 666}";
},
{
name = topleft;
position = "{20, 666}";
}
);
hints = (
{
horizontal = 1;
origin = "{0, 8}";
target = up;
type = BottomGhost;
},
{
horizontal = 1;
origin = "{0, 6}";
target = down;
type = TopGhost;
},
{
origin = "{0, 8}";
target = "{0, 0}";
}
);
layerId = "67A5D7A9-2C6D-4B81-A947-AF9C36497881";
name = Regular;
paths = (
{
closed = 1;
nodes = (
"373 0 LINE",
"373 277 LINE",
"597 666 LINE",
"437 666 LINE",
"303 403 LINE",
"168 666 LINE",
"5 666 LINE",
"228 277 LINE",
"228 0 LINE"
);
}
);
width = 607;
}
);
leftKerningGroup = Y;
note = Y;
rightKerningGroup = Y;
unicode = 0059;
},
{
glyphname = Z;
lastChange = "2016-03-12 22:01:07 +0000";
layers = (
{
anchors = (
{
name = bottom;
position = "{295, 0}";
},
{
name = top;
position = "{295, 666}";
}
);
hints = (
{
horizontal = 1;
origin = "{0, 9}";
target = "{0, 2}";
},
{
horizontal = 1;
origin = "{0, 5}";
target = "{0, 6}";
}
);
layerId = "67A5D7A9-2C6D-4B81-A947-AF9C36497881";
name = Regular;
paths = (
{
closed = 1;
nodes = (
"540 0 LINE",
"540 126 LINE",
"224 126 LINE",
"540 552 LINE",
"540 666 LINE",
"54 666 LINE",
"54 540 LINE",
"363 540 LINE",
"45 109 LINE",
"45 0 LINE"
);
}
);
width = 590;
}
);
leftKerningGroup = Z;
note = Z;
rightKerningGroup = Z;
unicode = 005A;
},
{
glyphname = a;
lastChange = "2016-03-12 22:01:08 +0000";
layers = (
{
anchors = (
{
name = bottom;
position = "{279, 0}";
},
{
name = ogonek;
position = "{434, 0}";
},
{
name = top;
position = "{305, 515}";
}
);
hints = (
{
horizontal = 1;
origin = "{0, 15}";
target = "{1, 12}";
},
{
horizontal = 1;
origin = "{0, 9}";
target = "{1, 5}";
},
{
horizontal = 1;
origin = "{0, 4}";
target = up;
type = BottomGhost;
},
{
origin = "{0, 12}";
target = "{1, 2}";
},
{
origin = "{1, 9}";
target = "{0, 5}";
}
);
layerId = "67A5D7A9-2C6D-4B81-A947-AF9C36497881";
name = Regular;
paths = (
{
closed = 1;
nodes = (
"277 -15 OFFCURVE",
"328 19 OFFCURVE",
"362 82 CURVE",
"366 82 LINE",
"363 0 LINE",
"497 0 LINE",
"497 505 LINE",
"429 521 OFFCURVE",
"369 529 OFFCURVE",
"319 529 CURVE SMOOTH",
"139 529 OFFCURVE",
"40 427 OFFCURVE",
"40 238 CURVE SMOOTH",
"40 81 OFFCURVE",
"108 -15 OFFCURVE",
"214 -15 CURVE SMOOTH"
);
},
{
closed = 1;
nodes = (
"201 108 OFFCURVE",
"176 160 OFFCURVE",
"176 244 CURVE SMOOTH",
"176 351 OFFCURVE",
"217 406 OFFCURVE",
"297 406 CURVE SMOOTH",
"315 406 OFFCURVE",
"340 403 OFFCURVE",
"361 397 CURVE",
"361 229 LINE",
"329 161 OFFCURVE",
"288 108 OFFCURVE",
"244 108 CURVE SMOOTH"
);
}
);
width = 557;
}
);
leftKerningGroup = o;
note = a;
rightKerningGroup = a;
unicode = 0061;
},
{
glyphname = aogonek;
lastChange = "2016-03-12 22:01:08 +0000";
layers = (
{
hints = (
{
horizontal = 1;
origin = "{0, 33}";
target = "{0, 6}";
},
{
horizontal = 1;
origin = "{0, 12}";
target = up;
type = BottomGhost;
},
{
horizontal = 1;
origin = "{0, 16}";
target = "{1, 5}";
},
{
horizontal = 1;
origin = "{0, 22}";
target = "{1, 12}";
},
{
origin = "{0, 19}";
target = "{1, 2}";
},
{
origin = "{0, 30}";
target = "{0, 9}";
},
{
origin = "{1, 9}";
target = "{0, 12}";
}
);
layerId = "67A5D7A9-2C6D-4B81-A947-AF9C36497881";
name = Regular;
paths = (
{
closed = 1;
nodes = (
"443 -220 OFFCURVE",
"475 -212 OFFCURVE",
"495 -197 CURVE",
"500 -120 LINE",
"482 -131 OFFCURVE",
"461 -137 OFFCURVE",
"442 -137 CURVE SMOOTH",
"413 -137 OFFCURVE",
"388 -123 OFFCURVE",
"388 -93 CURVE SMOOTH",
"388 -52 OFFCURVE",
"434 -19 OFFCURVE",
"497 0 CURVE",
"497 505 LINE",
"429 521 OFFCURVE",
"369 529 OFFCURVE",
"319 529 CURVE SMOOTH",
"139 529 OFFCURVE",
"40 427 OFFCURVE",
"40 238 CURVE SMOOTH",
"40 81 OFFCURVE",
"108 -15 OFFCURVE",
"214 -15 CURVE SMOOTH",
"277 -15 OFFCURVE",
"328 19 OFFCURVE",
"362 82 CURVE",
"366 82 LINE",
"364 -12 LINE",
"326 -36 OFFCURVE",
"297 -73 OFFCURVE",
"297 -122 CURVE SMOOTH",
"297 -181 OFFCURVE",
"339 -220 OFFCURVE",
"411 -220 CURVE SMOOTH"
);
},
{
closed = 1;
nodes = (
"201 108 OFFCURVE",
"176 160 OFFCURVE",
"176 244 CURVE SMOOTH",
"176 351 OFFCURVE",
"217 406 OFFCURVE",
"297 406 CURVE SMOOTH",
"315 406 OFFCURVE",
"340 403 OFFCURVE",
"361 397 CURVE",
"361 229 LINE",
"329 161 OFFCURVE",
"288 108 OFFCURVE",
"244 108 CURVE SMOOTH"
);
}
);
width = 557;
}
);
leftKerningGroup = o;
rightKerningGroup = a;
unicode = 0105;
},
{
glyphname = ae;
lastChange = "2016-03-12 22:01:08 +0000";
layers = (
{
anchors = (
{
name = bottom;
position = "{429, 0}";
},
{
name = top;
position = "{429, 515}";
}
);
hints = (
{
horizontal = 1;
origin = "{0, 35}";
target = "{0, 13}";
},
{
horizontal = 1;
origin = "{0, 16}";
target = "{2, 6}";
},
{
horizontal = 1;
origin = "{0, 29}";
target = "{2, 2}";
},
{
horizontal = 1;
origin = "{0, 29}";
target = "{1, 5}";
},
{
origin = "{0, 32}";
target = "{1, 2}";
},
{
origin = "{1, 11}";
target = "{2, 6}";
},
{
origin = "{2, 5}";
target = "{0, 20}";
},
{
horizontal = 1;
origin = "{0, 10}";
target = down;
type = TopGhost;
}
);
layerId = "67A5D7A9-2C6D-4B81-A947-AF9C36497881";
name = Regular;
paths = (
{
closed = 1;
nodes = (
"285 -15 OFFCURVE",
"348 21 OFFCURVE",
"377 87 CURVE",
"381 87 LINE",
"426 21 OFFCURVE",
"503 -15 OFFCURVE",
"602 -15 CURVE SMOOTH",
"668 -15 OFFCURVE",
"736 1 OFFCURVE",
"789 29 CURVE",
"766 142 LINE",
"726 121 OFFCURVE",
"669 107 OFFCURVE",
"619 107 CURVE SMOOTH",
"538 107 OFFCURVE",
"489 144 OFFCURVE",
"476 215 CURVE",
"816 215 LINE",
"817 226 OFFCURVE",
"817 237 OFFCURVE",
"817 249 CURVE SMOOTH",
"817 430 OFFCURVE",
"734 529 OFFCURVE",
"585 529 CURVE SMOOTH",
"546 529 OFFCURVE",
"510 522 OFFCURVE",
"479 509 CURVE",
"415 522 OFFCURVE",
"360 529 OFFCURVE",
"313 529 CURVE SMOOTH",
"137 529 OFFCURVE",
"40 425 OFFCURVE",
"40 236 CURVE SMOOTH",
"40 80 OFFCURVE",
"106 -15 OFFCURVE",
"217 -15 CURVE SMOOTH"
);
},
{
closed = 1;
nodes = (
"204 108 OFFCURVE",
"176 160 OFFCURVE",
"176 246 CURVE SMOOTH",
"176 350 OFFCURVE",
"217 406 OFFCURVE",
"297 406 CURVE SMOOTH",
"315 406 OFFCURVE",
"342 403 OFFCURVE",
"362 397 CURVE",
"344 357 OFFCURVE",
"334 310 OFFCURVE",
"334 257 CURVE SMOOTH",
"334 225 OFFCURVE",
"337 196 OFFCURVE",
"344 170 CURVE",
"317 129 OFFCURVE",
"285 108 OFFCURVE",
"254 108 CURVE SMOOTH"
);
},
{
closed = 1;
nodes = (
"484 380 OFFCURVE",
"522 415 OFFCURVE",
"580 415 CURVE SMOOTH",
"640 415 OFFCURVE",
"678 378 OFFCURVE",
"682 321 CURVE",
"475 321 LINE"
);
}
);
width = 857;
}
);
leftKerningGroup = o;
leftMetricsKey = a;
rightKerningGroup = e;
rightMetricsKey = e;
unicode = 00E6;
},
{
glyphname = b;
lastChange = "2016-03-12 22:01:08 +0000";
layers = (
{
anchors = (
{
name = bottom;
position = "{289, 0}";
},
{
name = top;
position = "{289, 515}";
}
);
hints = (
{
horizontal = 1;
origin = "{0, 14}";
target = "{1, 12}";
},
{
horizontal = 1;
origin = "{0, 5}";
target = "{1, 6}";
},
{
horizontal = 1;
origin = "{0, 10}";
target = down;
type = TopGhost;
},
{
origin = "{0, 11}";
target = "{1, 2}";
},
{
origin = "{1, 9}";
target = "{0, 2}";
}
);
layerId = "67A5D7A9-2C6D-4B81-A947-AF9C36497881";
name = Regular;
paths = (
{
closed = 1;
nodes = (
"436 -15 OFFCURVE",
"537 88 OFFCURVE",
"537 277 CURVE SMOOTH",
"537 435 OFFCURVE",
"467 529 OFFCURVE",
"349 529 CURVE SMOOTH",
"292 529 OFFCURVE",
"243 507 OFFCURVE",
"204 465 CURVE",
"204 730 LINE",
"65 730 LINE",
"65 9 LINE",
"133 -6 OFFCURVE",
"200 -15 OFFCURVE",
"254 -15 CURVE SMOOTH"
);
},
{
closed = 1;
nodes = (
"249 108 OFFCURVE",
"225 111 OFFCURVE",
"204 117 CURVE",
"204 318 LINE",
"233 375 OFFCURVE",
"272 406 OFFCURVE",
"314 406 CURVE SMOOTH",
"367 406 OFFCURVE",
"396 355 OFFCURVE",
"396 269 CURVE SMOOTH",
"396 163 OFFCURVE",
"352 108 OFFCURVE",
"269 108 CURVE SMOOTH"
);
}
);
width = 577;
}
);
leftKerningGroup = h;
note = b;
rightKerningGroup = o;
unicode = 0062;
},
{
glyphname = c;
lastChange = "2016-03-12 22:01:07 +0000";
layers = (
{
anchors = (
{
name = bottom;
position = "{299, 0}";
},
{
name = top;
position = "{277, 515}";
}
);
hints = (
{
horizontal = 1;
origin = "{0, 25}";
target = "{0, 6}";
},
{
horizontal = 1;
origin = "{0, 19}";
target = "{0, 12}";
},
{
origin = "{0, 22}";
target = "{0, 9}";
},
{
horizontal = 1;
origin = "{0, 15}";
target = up;
type = BottomGhost;
},
{
horizontal = 1;
origin = "{0, 3}";
target = down;
type = TopGhost;
}
);
layerId = "67A5D7A9-2C6D-4B81-A947-AF9C36497881";
name = Regular;
paths = (
{
closed = 1;
nodes = (
"354 -15 OFFCURVE",
"400 -7 OFFCURVE",
"445 11 CURVE",
"424 125 LINE",
"388 113 OFFCURVE",
"355 107 OFFCURVE",
"323 107 CURVE SMOOTH",
"229 107 OFFCURVE",
"175 160 OFFCURVE",
"175 253 CURVE SMOOTH",
"175 345 OFFCURVE",
"230 406 OFFCURVE",
"312 406 CURVE SMOOTH",
"343 406 OFFCURVE",
"383 397 OFFCURVE",
"414 382 CURVE",
"441 501 LINE",
"412 516 OFFCURVE",
"351 529 OFFCURVE",
"301 529 CURVE SMOOTH",
"142 529 OFFCURVE",
"36 415 OFFCURVE",
"36 245 CURVE SMOOTH",
"36 80 OFFCURVE",
"134 -15 OFFCURVE",
"305 -15 CURVE SMOOTH"
);
}
);
width = 480;
}
);
leftKerningGroup = o;
note = c;
rightKerningGroup = c;
unicode = 0063;
},
{
glyphname = d;
lastChange = "2016-03-12 22:01:08 +0000";
layers = (
{
anchors = (
{
name = bottom;
position = "{279, 0}";
},
{
name = center;
position = "{407, 623}";
},
{
name = top;
position = "{289, 515}";
},
{
name = topright;
position = "{577, 515}";
}
);
guideLines = (
{
angle = 90;
position = "{486, 460}";
}
);
hints = (
{
horizontal = 1;
origin = "{0, 17}";
target = "{1, 12}";
},
{
horizontal = 1;
origin = "{0, 11}";
target = "{1, 5}";
},
{
horizontal = 1;
origin = "{0, 7}";
target = down;
type = TopGhost;
},
{
horizontal = 1;
origin = "{0, 4}";
target = up;
type = BottomGhost;
},
{
origin = "{0, 14}";
target = "{1, 2}";
},
{
origin = "{1, 9}";
target = "{0, 5}";
}
);
layerId = "67A5D7A9-2C6D-4B81-A947-AF9C36497881";
name = Regular;
paths = (
{
closed = 1;
nodes = (
"290 -15 OFFCURVE",
"341 14 OFFCURVE",
"375 67 CURVE",
"379 67 LINE",
"376 0 LINE",
"513 0 LINE",
"513 730 LINE",
"374 730 LINE",
"374 527 LINE",
"357 528 OFFCURVE",
"341 529 OFFCURVE",
"323 529 CURVE SMOOTH",
"142 529 OFFCURVE",
"40 426 OFFCURVE",
"40 237 CURVE SMOOTH",
"40 78 OFFCURVE",
"111 -15 OFFCURVE",
"226 -15 CURVE SMOOTH"
);
},
{
closed = 1;
nodes = (
"210 108 OFFCURVE",
"181 159 OFFCURVE",
"181 245 CURVE SMOOTH",
"181 350 OFFCURVE",
"225 406 OFFCURVE",
"309 406 CURVE SMOOTH",
"329 406 OFFCURVE",
"351 403 OFFCURVE",
"374 397 CURVE",
"374 214 LINE",
"342 146 OFFCURVE",
"300 108 OFFCURVE",
"258 108 CURVE SMOOTH"
);
}
);
width = 577;
}
);
leftKerningGroup = o;
note = d;
rightKerningGroup = d;
unicode = 0064;
},
{
glyphname = eth;
lastChange = "2016-03-12 22:01:08 +0000";
layers = (
{
hints = (
{
horizontal = 1;
origin = "{0, 18}";
target = "{1, 11}";
},
{
horizontal = 1;
origin = "{0, 12}";
target = "{1, 5}";
},
{
horizontal = 1;
origin = "{2, 1}";
target = down;
type = TopGhost;
},
{
origin = "{0, 15}";
target = "{1, 2}";
},
{
origin = "{1, 8}";
target = "{0, 2}";
},
{
horizontal = 1;
origin = "{2, 1}";
target = down;
type = TopGhost;
},
{
horizontal = 1;
origin = "{2, 3}";
target = up;
type = BottomGhost;
}
);
layerId = "67A5D7A9-2C6D-4B81-A947-AF9C36497881";
name = Regular;
paths = (
{
closed = 1;
nodes = (
"460 -15 OFFCURVE",
"541 117 OFFCURVE",
"541 298 CURVE SMOOTH",
"541 488 OFFCURVE",
"451 636 OFFCURVE",
"308 751 CURVE",
"161 712 LINE",
"254 638 OFFCURVE",
"325 578 OFFCURVE",
"377 512 CURVE",
"350 524 OFFCURVE",
"323 529 OFFCURVE",
"291 529 CURVE SMOOTH",
"144 529 OFFCURVE",
"45 420 OFFCURVE",
"45 257 CURVE SMOOTH",
"45 93 OFFCURVE",
"144 -15 OFFCURVE",
"294 -15 CURVE SMOOTH"
);
},
{
closed = 1;
nodes = (
"225 106 OFFCURVE",
"182 166 OFFCURVE",
"182 258 CURVE SMOOTH",
"182 349 OFFCURVE",
"225 408 OFFCURVE",
"292 408 CURVE SMOOTH",
"359 408 OFFCURVE",
"402 349 OFFCURVE",
"402 258 CURVE SMOOTH",
"402 166 OFFCURVE",
"359 106 OFFCURVE",
"292 106 CURVE SMOOTH"
);
},
{
closed = 1;
nodes = (
"501 663 LINE",
"488 735 LINE",
"170 625 LINE",
"183 553 LINE"
);
}
);
width = 586;
}
);
leftKerningGroup = o;
rightKerningGroup = o;
unicode = 00F0;
},
{
glyphname = dcaron;
lastChange = "2016-03-12 22:01:08 +0000";
layers = (
{
hints = (
{
horizontal = 1;
origin = "{0, 3}";
target = up;
type = BottomGhost;
},
{
horizontal = 1;
origin = "{0, 10}";
target = "{1, 5}";
},
{
horizontal = 1;
origin = "{0, 6}";
target = down;
type = TopGhost;
},
{
horizontal = 1;
origin = "{0, 16}";
target = "{1, 12}";
},
{
origin = "{0, 13}";
target = "{1, 2}";
},
{
origin = "{1, 9}";
target = "{0, 4}";
},
{
origin = "{2, 11}";
target = "{2, 2}";
},
{
horizontal = 1;
origin = "{2, 16}";
target = up;
type = BottomGhost;
}
);
layerId = "67A5D7A9-2C6D-4B81-A947-AF9C36497881";
name = Regular;
paths = (
{
closed = 1;
nodes = (
"287 -15 OFFCURVE",
"339 10 OFFCURVE",
"377 56 CURVE",
"377 0 LINE",
"513 0 LINE",
"513 730 LINE",
"374 730 LINE",
"374 527 LINE",
"357 528 OFFCURVE",
"340 529 OFFCURVE",
"325 529 CURVE SMOOTH",
"141 529 OFFCURVE",
"40 426 OFFCURVE",
"40 237 CURVE SMOOTH",
"40 79 OFFCURVE",
"110 -15 OFFCURVE",
"227 -15 CURVE SMOOTH"
);
},
{
closed = 1;
nodes = (
"211 108 OFFCURVE",
"181 158 OFFCURVE",
"181 245 CURVE SMOOTH",
"181 350 OFFCURVE",
"225 406 OFFCURVE",
"309 406 CURVE SMOOTH",
"329 406 OFFCURVE",
"351 403 OFFCURVE",
"374 397 CURVE",
"374 196 LINE",
"345 139 OFFCURVE",
"306 108 OFFCURVE",
"264 108 CURVE SMOOTH"
);
},
{
closed = 1;
nodes = (
"666 600 OFFCURVE",
"725 662 OFFCURVE",
"725 725 CURVE SMOOTH",
"725 775 OFFCURVE",
"691 807 OFFCURVE",
"652 807 CURVE SMOOTH",
"629 807 OFFCURVE",
"609 797 OFFCURVE",
"596 782 CURVE SMOOTH",
"584 767 OFFCURVE",
"578 747 OFFCURVE",
"580 725 CURVE",
"618 677 LINE",
"609 653 OFFCURVE",
"592 624 OFFCURVE",
"572 600 CURVE",
"598 565 LINE"
);
}
);
width = 725;
}
);
leftKerningGroup = o;
unicode = 010F;
},
{
glyphname = e;
lastChange = "2016-03-16 13:26:51 +0000";
layers = (
{
anchors = (
{
name = bottom;
position = "{292, 0}";
},
{
name = ogonek;
position = "{369, 0}";
},
{
name = top;
position = "{291, 515}";
}
);
hints = (
{
horizontal = 1;
origin = "{0, 22}";
target = "{0, 6}";
},
{
horizontal = 1;
origin = "{0, 9}";
target = "{1, 6}";
},
{
horizontal = 1;
origin = "{0, 16}";
target = "{1, 2}";
},
{
origin = "{0, 19}";
target = "{1, 6}";
},
{
origin = "{1, 5}";
target = "{0, 13}";
},
{
horizontal = 1;
origin = "{0, 3}";
target = down;
type = TopGhost;
}
);
layerId = "67A5D7A9-2C6D-4B81-A947-AF9C36497881";
name = Regular;
paths = (
{
closed = 1;
nodes = (
"374 -15 OFFCURVE",
"442 1 OFFCURVE",
"495 29 CURVE",
"472 142 LINE",
"432 121 OFFCURVE",
"375 107 OFFCURVE",
"325 107 CURVE SMOOTH",
"244 107 OFFCURVE",
"195 144 OFFCURVE",
"182 215 CURVE",
"522 215 LINE",
"523 226 OFFCURVE",
"523 237 OFFCURVE",
"523 249 CURVE SMOOTH",
"523 430 OFFCURVE",
"440 529 OFFCURVE",
"291 529 CURVE SMOOTH",
"138 529 OFFCURVE",
"40 425 OFFCURVE",
"40 257 CURVE SMOOTH",
"40 86 OFFCURVE",
"142 -15 OFFCURVE",
"308 -15 CURVE SMOOTH"
);
},
{
closed = 1;
nodes = (
"190 380 OFFCURVE",
"228 415 OFFCURVE",
"286 415 CURVE SMOOTH",
"346 415 OFFCURVE",
"384 378 OFFCURVE",
"388 321 CURVE",
"181 321 LINE"
);
}
);
width = 563;
}
);
leftKerningGroup = o;
note = e;
rightKerningGroup = e;
unicode = 0065;
},
{
glyphname = f;
lastChange = "2016-03-12 22:01:07 +0000";
layers = (
{
anchors = (
{
name = bottom;
position = "{226, 0}";
},
{
name = top;
position = "{245, 730}";
}
);
hints = (
{
horizontal = 1;
origin = "{0, 28}";
target = "{0, 27}";
},
{
horizontal = 1;
origin = "{0, 23}";
target = "{0, 24}";
},
{
horizontal = 1;
origin = "{0, 18}";
target = "{0, 11}";
},
{
origin = "{0, 0}";
target = "{0, 3}";
},
{
horizontal = 1;
origin = "{0, 14}";
target = up;
type = BottomGhost;
}
);
layerId = "67A5D7A9-2C6D-4B81-A947-AF9C36497881";
name = Regular;
paths = (
{
closed = 1;
nodes = (
"137 0 LINE",
"398 0 LINE",
"398 121 LINE",
"278 121 LINE",
"278 394 LINE",
"398 394 LINE",
"398 515 LINE",
"278 515 LINE",
"278 571 LINE SMOOTH",
"278 604 OFFCURVE",
"296 622 OFFCURVE",
"327 622 CURVE SMOOTH",
"345 622 OFFCURVE",
"366 616 OFFCURVE",
"388 605 CURVE",
"437 716 LINE",
"393 734 OFFCURVE",
"350 744 OFFCURVE",
"313 744 CURVE SMOOTH",
"207 744 OFFCURVE",
"137 678 OFFCURVE",
"137 578 CURVE SMOOTH",
"137 515 LINE",
"46 515 LINE",
"46 394 LINE",
"137 394 LINE",
"137 121 LINE",
"46 121 LINE",
"46 0 LINE"
);
}
);
width = 452;
}
);
leftKerningGroup = f;
note = f;
rightKerningGroup = f;
unicode = 0066;
},
{
glyphname = g;
lastChange = "2016-03-12 22:01:08 +0000";
layers = (
{
anchors = (
{
name = bottom;
position = "{277, -218}";
},
{
name = top;
position = "{309, 515}";
}
);
hints = (
{
horizontal = 1;
origin = "{0, 31}";
target = "{0, 24}";
},
{
horizontal = 1;
origin = "{0, 17}";
target = "{1, 12}";
},
{
horizontal = 1;
origin = "{0, 11}";
target = "{1, 5}";
},
{
origin = "{0, 14}";
target = "{1, 2}";
},
{
place = "{373.500000, 140.500000}";
},
{
horizontal = 1;
origin = "{0, 27}";
target = down;
type = TopGhost;
}
);
layerId = "67A5D7A9-2C6D-4B81-A947-AF9C36497881";
name = Regular;
paths = (
{
closed = 1;
nodes = (
"420 -227 OFFCURVE",
"510 -134 OFFCURVE",
"513 55 CURVE SMOOTH",
"514 102 OFFCURVE",
"514 148 OFFCURVE",
"514 195 CURVE SMOOTH",
"514 298 OFFCURVE",
"513 402 OFFCURVE",
"512 505 CURVE",
"444 520 OFFCURVE",
"378 529 OFFCURVE",
"324 529 CURVE SMOOTH",
"142 529 OFFCURVE",
"40 427 OFFCURVE",
"40 236 CURVE SMOOTH",
"40 78 OFFCURVE",
"110 -15 OFFCURVE",
"227 -15 CURVE SMOOTH",
"285 -15 OFFCURVE",
"336 8 OFFCURVE",
"373 51 CURVE",
"376 51 LINE",
"372 -61 OFFCURVE",
"348 -108 OFFCURVE",
"245 -108 CURVE SMOOTH",
"193 -108 OFFCURVE",
"140 -96 OFFCURVE",
"85 -80 CURVE",
"58 -204 LINE",
"121 -221 OFFCURVE",
"184 -227 OFFCURVE",
"232 -227 CURVE SMOOTH"
);
},
{
closed = 1;
nodes = (
"211 108 OFFCURVE",
"181 159 OFFCURVE",
"181 246 CURVE SMOOTH",
"181 350 OFFCURVE",
"224 406 OFFCURVE",
"309 406 CURVE SMOOTH",
"329 406 OFFCURVE",
"351 403 OFFCURVE",
"373 397 CURVE",
"374 196 LINE",
"345 141 OFFCURVE",
"306 108 OFFCURVE",
"264 108 CURVE SMOOTH"
);
}
);
width = 577;
}
);
leftKerningGroup = g;
note = g;
rightKerningGroup = g;
unicode = 0067;
},
{
glyphname = h;
lastChange = "2016-03-12 22:01:07 +0000";
layers = (
{
anchors = (
{
name = bottom;
position = "{303, 0}";
},
{
name = center;
position = "{168, 623}";
},
{
name = top;
position = "{389, 515}";
}
);
hints = (
{
horizontal = 1;
origin = "{0, 19}";
target = up;
type = BottomGhost;
},
{
horizontal = 1;
origin = "{0, 13}";
target = "{0, 4}";
},
{
horizontal = 1;
origin = "{0, 18}";
target = down;
type = TopGhost;
},
{
origin = "{0, 19}";
target = "{0, 0}";
},
{
origin = "{0, 8}";
target = "{0, 9}";
}
);
layerId = "67A5D7A9-2C6D-4B81-A947-AF9C36497881";
name = Regular;
paths = (
{
closed = 1;
nodes = (
"206 0 LINE",
"206 312 LINE",
"233 366 OFFCURVE",
"280 405 OFFCURVE",
"331 405 CURVE SMOOTH",
"376 405 OFFCURVE",
"405 374 OFFCURVE",
"405 320 CURVE SMOOTH",
"405 0 LINE",
"546 0 LINE",
"546 342 LINE SMOOTH",
"546 459 OFFCURVE",
"479 529 OFFCURVE",
"369 529 CURVE SMOOTH",
"301 529 OFFCURVE",
"248 502 OFFCURVE",
"206 440 CURVE",
"206 730 LINE",
"65 730 LINE",
"65 0 LINE"
);
}
);
width = 606;
}
);
leftKerningGroup = h;
note = h;
rightKerningGroup = n;
unicode = 0068;
},
{
glyphname = i;
lastChange = "2016-03-12 22:01:08 +0000";
layers = (
{
hints = (
{
horizontal = 1;
origin = "{0, 9}";
target = "{0, 8}";
},
{
horizontal = 1;
origin = "{0, 4}";
target = "{0, 5}";
},
{
horizontal = 1;
origin = "{1, 2}";
target = "{1, 3}";
},
{
origin = "{1, 3}";
target = "{1, 0}";
},
{
origin = "{0, 7}";
target = "{0, 2}";
}
);
layerId = "67A5D7A9-2C6D-4B81-A947-AF9C36497881";
name = Regular;
paths = (
{
closed = 1;
nodes = (
"370 0 LINE",
"370 121 LINE",
"284 121 LINE",
"284 515 LINE",
"47 515 LINE",
"47 394 LINE",
"143 394 LINE",
"143 121 LINE",
"47 121 LINE",
"47 0 LINE"
);
},
{
closed = 1;
nodes = (
"286 600 LINE",
"286 730 LINE",
"125 730 LINE",
"125 600 LINE"
);
}
);
width = 398;
}
);
leftKerningGroup = i;
note = i;
rightKerningGroup = i;
unicode = 0069;
},
{
glyphname = idotless;
lastChange = "2016-03-12 22:01:07 +0000";
layers = (
{
anchors = (
{
name = bottom;
position = "{199, 0}";
},
{
name = ogonek;
position = "{319, 0}";
},
{
name = top;
position = "{199, 515}";
}
);
hints = (
{
horizontal = 1;
origin = "{0, 9}";
target = "{0, 8}";
},
{
horizontal = 1;
origin = "{0, 4}";
target = "{0, 5}";
},
{
origin = "{0, 7}";
target = "{0, 2}";
}
);
layerId = "67A5D7A9-2C6D-4B81-A947-AF9C36497881";
name = Regular;
paths = (
{
closed = 1;
nodes = (
"370 0 LINE",
"370 121 LINE",
"284 121 LINE",
"284 515 LINE",
"47 515 LINE",
"47 394 LINE",
"143 394 LINE",
"143 121 LINE",
"47 121 LINE",
"47 0 LINE"
);
}
);
width = 398;
}
);
leftKerningGroup = i;
rightKerningGroup = i;
unicode = 0131;
},
{
glyphname = j;
lastChange = "2016-03-12 22:01:08 +0000";
layers = (
{
hints = (
{
horizontal = 1;
origin = "{0, 15}";
target = "{0, 12}";
},
{
horizontal = 1;
origin = "{0, 4}";
target = down;
type = TopGhost;
},
{
horizontal = 1;
origin = "{1, 2}";
target = "{1, 3}";
},
{
horizontal = 1;
origin = "{0, 15}";
target = "{0, 8}";
},
{
origin = "{1, 3}";
target = "{1, 0}";
},
{
origin = "{0, 5}";
target = "{0, 2}";
},
{
horizontal = 1;
origin = "{0, 11}";
target = down;
type = TopGhost;
}
);
layerId = "67A5D7A9-2C6D-4B81-A947-AF9C36497881";
name = Regular;
paths = (
{
closed = 1;
nodes = (
"164 -233 OFFCURVE",
"232 -165 OFFCURVE",
"232 -56 CURVE SMOOTH",
"232 515 LINE",
"91 515 LINE",
"91 -45 LINE SMOOTH",
"91 -87 OFFCURVE",
"75 -107 OFFCURVE",
"40 -107 CURVE SMOOTH",
"26 -107 OFFCURVE",
"9 -103 OFFCURVE",
"-6 -96 CURVE",
"-43 -213 LINE",
"-11 -226 OFFCURVE",
"24 -233 OFFCURVE",
"57 -233 CURVE SMOOTH"
);
},
{
closed = 1;
nodes = (
"242 600 LINE",
"242 730 LINE",
"81 730 LINE",
"81 600 LINE"
);
}
);
width = 303;
}
);
leftKerningGroup = j;
note = j;
rightKerningGroup = j;
unicode = 006A;
},
{
glyphname = k;
lastChange = "2016-03-12 22:01:07 +0000";
layers = (
{
anchors = (
{
name = bottom;
position = "{278, 0}";
},
{
name = top;
position = "{132, 730}";
}
);
hints = (
{
horizontal = 1;
origin = "{0, 10}";
target = up;
type = BottomGhost;
},
{
horizontal = 1;
origin = "{0, 3}";
target = up;
type = BottomGhost;
},
{
horizontal = 1;
origin = "{0, 6}";
target = down;
type = TopGhost;
},
{
horizontal = 1;
origin = "{0, 7}";
target = down;
type = TopGhost;
},
{
origin = "{0, 7}";
target = "{0, 8}";
}
);
layerId = "67A5D7A9-2C6D-4B81-A947-AF9C36497881";
name = Regular;
paths = (
{
closed = 1;
nodes = (
"545 6 LINE",
"328 284 LINE",
"534 515 LINE",
"367 515 LINE",
"206 327 LINE",
"206 731 LINE",
"65 731 LINE",
"65 0 LINE",
"206 0 LINE",
"206 224 LINE",
"392 -15 LINE"
);
}
);
width = 545;
}
);
leftKerningGroup = h;
note = k;
rightKerningGroup = k;
unicode = 006B;
},
{
glyphname = l;
lastChange = "2016-03-12 22:01:07 +0000";
layers = (
{
anchors = (
{
name = bottom;
position = "{197, 0}";
},
{
name = center;
position = "{197, 379}";
},
{
name = top;
position = "{187, 730}";
},
{
name = topright;
position = "{373, 515}";
}
);
hints = (
{
horizontal = 1;
origin = "{0, 9}";
target = "{0, 8}";
},
{
horizontal = 1;
origin = "{0, 4}";
target = "{0, 5}";
},
{
origin = "{0, 7}";
target = "{0, 2}";
}
);
layerId = "67A5D7A9-2C6D-4B81-A947-AF9C36497881";
name = Regular;
paths = (
{
closed = 1;
nodes = (
"365 0 LINE",
"365 121 LINE",
"274 121 LINE",
"274 730 LINE",
"47 730 LINE",
"47 610 LINE",
"133 610 LINE",
"133 121 LINE",
"42 121 LINE",
"42 0 LINE"
);
}
);
width = 393;
}
);
leftKerningGroup = l;
note = l;
rightKerningGroup = l;
unicode = 006C;
},
{
glyphname = lacute;
lastChange = "2016-03-12 22:01:08 +0000";
layers = (
{
hints = (
{
horizontal = 1;
origin = "{0, 9}";
target = "{0, 8}";
},
{
horizontal = 1;
origin = "{0, 4}";
target = "{0, 5}";
},
{
origin = "{0, 7}";
target = "{0, 2}";
},
{
origin = "{1, 8}";
target = "{1, 2}";
},
{
horizontal = 1;
origin = "{1, 13}";
target = up;
type = BottomGhost;
}
);
layerId = "67A5D7A9-2C6D-4B81-A947-AF9C36497881";
name = Regular;
paths = (
{
closed = 1;
nodes = (
"365 0 LINE",
"365 121 LINE",
"274 121 LINE",
"274 730 LINE",
"47 730 LINE",
"47 610 LINE",
"133 610 LINE",
"133 121 LINE",
"42 121 LINE",
"42 0 LINE"
);
},
{
closed = 1;
nodes = (
"256 817 OFFCURVE",
"334 874 OFFCURVE",
"334 946 CURVE SMOOTH",
"334 991 OFFCURVE",
"301 1022 OFFCURVE",
"261 1022 CURVE SMOOTH",
"220 1022 OFFCURVE",
"191 988 OFFCURVE",
"191 953 CURVE",
"217 900 LINE",
"203 878 OFFCURVE",
"181 854 OFFCURVE",
"156 834 CURVE",
"174 795 LINE"
);
}
);
width = 393;
}
);
leftKerningGroup = l;
rightKerningGroup = l;
rightMetricsKey = l;
unicode = 013A;
},
{
glyphname = lcaron;
lastChange = "2016-03-12 22:01:08 +0000";
layers = (
{
hints = (
{
horizontal = 1;
origin = "{0, 9}";
target = "{0, 8}";
},
{
horizontal = 1;
origin = "{0, 4}";
target = "{0, 5}";
},
{
origin = "{0, 7}";
target = "{0, 2}";
},
{
origin = "{1, 11}";
target = "{1, 2}";
},
{
horizontal = 1;
origin = "{1, 16}";
target = up;
type = BottomGhost;
}
);
layerId = "67A5D7A9-2C6D-4B81-A947-AF9C36497881";
name = Regular;
paths = (
{
closed = 1;
nodes = (
"365 0 LINE",
"365 121 LINE",
"274 121 LINE",
"274 730 LINE",
"47 730 LINE",
"47 610 LINE",
"133 610 LINE",
"133 121 LINE",
"42 121 LINE",
"42 0 LINE"
);
},
{
closed = 1;
nodes = (
"433 600 OFFCURVE",
"492 662 OFFCURVE",
"492 725 CURVE SMOOTH",
"492 775 OFFCURVE",
"458 807 OFFCURVE",
"419 807 CURVE SMOOTH",
"396 807 OFFCURVE",
"376 797 OFFCURVE",
"363 782 CURVE SMOOTH",
"351 767 OFFCURVE",
"345 747 OFFCURVE",
"347 725 CURVE",
"385 677 LINE",
"376 653 OFFCURVE",
"359 624 OFFCURVE",
"339 600 CURVE",
"365 565 LINE"
);
}
);
width = 488;
}
);
leftKerningGroup = l;
unicode = 013E;
},
{
glyphname = m;
lastChange = "2016-03-12 22:01:07 +0000";
layers = (
{
anchors = (
{
name = bottom;
position = "{472, 0}";
},
{
name = top;
position = "{472, 515}";
}
);
hints = (
{
horizontal = 1;
origin = "{0, 34}";
target = up;
type = BottomGhost;
},
{
horizontal = 1;
origin = "{0, 28}";
target = "{0, 4}";
},
{
horizontal = 1;
origin = "{0, 33}";
target = down;
type = TopGhost;
},
{
origin = "{0, 34}";
target = "{0, 0}";
},
{
origin = "{0, 8}";
target = "{0, 9}";
},
{
origin = "{0, 17}";
target = "{0, 18}";
}
);
layerId = "67A5D7A9-2C6D-4B81-A947-AF9C36497881";
name = Regular;
paths = (
{
closed = 1;
nodes = (
"206 0 LINE",
"206 300 LINE",
"233 367 OFFCURVE",
"280 405 OFFCURVE",
"328 405 CURVE SMOOTH",
"372 405 OFFCURVE",
"401 373 OFFCURVE",
"401 320 CURVE SMOOTH",
"401 0 LINE",
"542 0 LINE",
"542 284 LINE",
"564 354 OFFCURVE",
"614 405 OFFCURVE",
"670 405 CURVE SMOOTH",
"714 405 OFFCURVE",
"742 374 OFFCURVE",
"742 320 CURVE SMOOTH",
"742 0 LINE",
"883 0 LINE",
"883 342 LINE SMOOTH",
"883 459 OFFCURVE",
"817 529 OFFCURVE",
"707 529 CURVE SMOOTH",
"632 529 OFFCURVE",
"576 496 OFFCURVE",
"529 423 CURVE",
"504 490 OFFCURVE",
"447 529 OFFCURVE",
"368 529 CURVE SMOOTH",
"298 529 OFFCURVE",
"244 498 OFFCURVE",
"203 435 CURVE",
"203 515 LINE",
"65 515 LINE",
"65 0 LINE"
);
}
);
width = 943;
}
);
leftKerningGroup = n;
note = m;
rightKerningGroup = n;
unicode = 006D;
},
{
glyphname = n;
lastChange = "2016-03-12 22:01:07 +0000";
layers = (
{
anchors = (
{
name = bottom;
position = "{306, 0}";
},
{
name = top;
position = "{306, 515}";
}
);
hints = (
{
horizontal = 1;
origin = "{0, 19}";
target = up;
type = BottomGhost;
},
{
horizontal = 1;
origin = "{0, 18}";
target = down;
type = TopGhost;
},
{
horizontal = 1;
origin = "{0, 13}";
target = "{0, 4}";
},
{
origin = "{0, 19}";
target = "{0, 0}";
},
{
origin = "{0, 8}";
target = "{0, 9}";
}
);
layerId = "67A5D7A9-2C6D-4B81-A947-AF9C36497881";
name = Regular;
paths = (
{
closed = 1;
nodes = (
"206 0 LINE",
"206 299 LINE",
"231 359 OFFCURVE",
"282 405 OFFCURVE",
"337 405 CURVE SMOOTH",
"382 405 OFFCURVE",
"411 374 OFFCURVE",
"411 320 CURVE SMOOTH",
"411 0 LINE",
"552 0 LINE",
"552 342 LINE SMOOTH",
"552 459 OFFCURVE",
"485 529 OFFCURVE",
"375 529 CURVE SMOOTH",
"302 529 OFFCURVE",
"246 498 OFFCURVE",
"203 426 CURVE",
"203 515 LINE",
"65 515 LINE",
"65 0 LINE"
);
}
);
width = 612;
}
);
leftKerningGroup = n;
note = n;
rightKerningGroup = n;
unicode = 006E;
},
{
glyphname = eng;
lastChange = "2016-03-12 22:01:07 +0000";
layers = (
{
hints = (
{
horizontal = 1;
origin = "{0, 31}";
target = "{0, 28}";
},
{
horizontal = 1;
origin = "{0, 12}";
target = up;
type = BottomGhost;
},
{
horizontal = 1;
origin = "{0, 11}";
target = down;
type = TopGhost;
},
{
horizontal = 1;
origin = "{0, 6}";
target = "{0, 17}";
},
{
horizontal = 1;
origin = "{0, 31}";
target = "{0, 24}";
},
{
origin = "{0, 12}";
target = "{0, 13}";
},
{
origin = "{0, 21}";
target = "{0, 2}";
},
{
horizontal = 1;
origin = "{0, 27}";
target = down;
type = TopGhost;
}
);
layerId = "67A5D7A9-2C6D-4B81-A947-AF9C36497881";
name = Regular;
paths = (
{
closed = 1;
nodes = (
"484 -233 OFFCURVE",
"552 -165 OFFCURVE",
"552 -56 CURVE SMOOTH",
"552 342 LINE SMOOTH",
"552 459 OFFCURVE",
"485 529 OFFCURVE",
"375 529 CURVE SMOOTH",
"302 529 OFFCURVE",
"246 498 OFFCURVE",
"203 426 CURVE",
"203 515 LINE",
"65 515 LINE",
"65 0 LINE",
"206 0 LINE",
"206 299 LINE",
"231 359 OFFCURVE",
"282 405 OFFCURVE",
"337 405 CURVE SMOOTH",
"382 405 OFFCURVE",
"411 374 OFFCURVE",
"411 320 CURVE SMOOTH",
"411 -45 LINE SMOOTH",
"411 -87 OFFCURVE",
"395 -107 OFFCURVE",
"360 -107 CURVE SMOOTH",
"346 -107 OFFCURVE",
"329 -103 OFFCURVE",
"314 -96 CURVE",
"277 -213 LINE",
"309 -226 OFFCURVE",
"344 -233 OFFCURVE",
"377 -233 CURVE SMOOTH"
);
}
);
width = 613;
}
);
leftKerningGroup = n;
rightKerningGroup = j;
rightMetricsKey = j;
unicode = 014B;
},
{
glyphname = o;
lastChange = "2016-03-12 22:01:08 +0000";
layers = (
{
anchors = (
{
name = bottom;
position = "{302, 0}";
},
{
name = center;
position = "{302, 258}";
},
{
name = ogonek;
position = "{347, 0}";
},
{
name = top;
position = "{302, 515}";
},
{
name = topright;
position = "{584, 515}";
}
);
hints = (
{
horizontal = 1;
origin = "{0, 11}";
target = "{1, 11}";
},
{
horizontal = 1;
origin = "{0, 5}";
target = "{1, 5}";
},
{
origin = "{0, 8}";
target = "{1, 2}";
},
{
origin = "{1, 8}";
target = "{0, 2}";
}
);
layerId = "67A5D7A9-2C6D-4B81-A947-AF9C36497881";
name = Regular;
paths = (
{
closed = 1;
nodes = (
"459 -15 OFFCURVE",
"564 96 OFFCURVE",
"564 260 CURVE SMOOTH",
"564 422 OFFCURVE",
"459 529 OFFCURVE",
"302 529 CURVE SMOOTH",
"145 529 OFFCURVE",
"40 420 OFFCURVE",
"40 257 CURVE SMOOTH",
"40 93 OFFCURVE",
"145 -15 OFFCURVE",
"303 -15 CURVE SMOOTH"
);
},
{
closed = 1;
nodes = (
"230 107 OFFCURVE",
"183 167 OFFCURVE",
"183 258 CURVE SMOOTH",
"183 348 OFFCURVE",
"230 407 OFFCURVE",
"302 407 CURVE SMOOTH",
"374 407 OFFCURVE",
"421 348 OFFCURVE",
"421 258 CURVE SMOOTH",
"421 167 OFFCURVE",
"374 107 OFFCURVE",
"302 107 CURVE SMOOTH"
);
}
);
width = 604;
}
);
leftKerningGroup = o;
note = o;
rightKerningGroup = o;
unicode = 006F;
},
{
glyphname = oslash;
lastChange = "2016-03-12 22:01:08 +0000";
layers = (
{
hints = (
{
horizontal = 1;
origin = "{1, 11}";
target = "{2, 11}";
},
{
horizontal = 1;
origin = "{1, 5}";
target = "{2, 5}";
},
{
origin = "{1, 8}";
target = "{2, 2}";
},
{
origin = "{2, 8}";
target = "{1, 2}";
},
{
horizontal = 1;
origin = "{0, 1}";
target = down;
type = TopGhost;
},
{
horizontal = 1;
origin = "{0, 3}";
target = up;
type = BottomGhost;
}
);
layerId = "67A5D7A9-2C6D-4B81-A947-AF9C36497881";
name = Regular;
paths = (
{
closed = 1;
nodes = (
"558 449 LINE",
"534 557 LINE",
"50 67 LINE",
"74 -41 LINE"
);
},
{
closed = 1;
nodes = (
"461 -15 OFFCURVE",
"566 96 OFFCURVE",
"566 260 CURVE SMOOTH",
"566 422 OFFCURVE",
"461 529 OFFCURVE",
"304 529 CURVE SMOOTH",
"147 529 OFFCURVE",
"42 420 OFFCURVE",
"42 257 CURVE SMOOTH",
"42 93 OFFCURVE",
"147 -15 OFFCURVE",
"305 -15 CURVE SMOOTH"
);
},
{
closed = 1;
nodes = (
"232 107 OFFCURVE",
"185 167 OFFCURVE",
"185 258 CURVE SMOOTH",
"185 348 OFFCURVE",
"232 407 OFFCURVE",
"304 407 CURVE SMOOTH",
"376 407 OFFCURVE",
"423 348 OFFCURVE",
"423 258 CURVE SMOOTH",
"423 167 OFFCURVE",
"376 107 OFFCURVE",
"304 107 CURVE SMOOTH"
);
}
);
width = 607;
}
);
leftKerningGroup = o;
rightKerningGroup = o;
unicode = 00F8;
},
{
glyphname = oe;
lastChange = "2016-03-12 22:01:08 +0000";
layers = (
{
anchors = (
{
name = bottom;
position = "{452, 0}";
},
{
name = top;
position = "{452, 515}";
}
);
hints = (
{
horizontal = 1;
origin = "{0, 34}";
target = "{1, 17}";
},
{
horizontal = 1;
origin = "{0, 15}";
target = "{2, 6}";
},
{
horizontal = 1;
origin = "{0, 28}";
target = "{2, 2}";
},
{
horizontal = 1;
origin = "{0, 28}";
target = "{1, 5}";
},
{
origin = "{0, 31}";
target = "{1, 2}";
},
{
origin = "{1, 14}";
target = "{2, 6}";
},
{
origin = "{2, 5}";
target = "{0, 19}";
},
{
horizontal = 1;
origin = "{0, 9}";
target = down;
type = TopGhost;
}
);
layerId = "67A5D7A9-2C6D-4B81-A947-AF9C36497881";
name = Regular;
paths = (
{
closed = 1;
nodes = (
"369 -15 OFFCURVE",
"426 5 OFFCURVE",
"469 41 CURVE",
"514 5 OFFCURVE",
"575 -15 OFFCURVE",
"648 -15 CURVE SMOOTH",
"714 -15 OFFCURVE",
"782 1 OFFCURVE",
"835 29 CURVE",
"812 142 LINE",
"772 121 OFFCURVE",
"715 107 OFFCURVE",
"665 107 CURVE SMOOTH",
"584 107 OFFCURVE",
"535 144 OFFCURVE",
"522 215 CURVE",
"862 215 LINE",
"863 226 OFFCURVE",
"863 237 OFFCURVE",
"863 249 CURVE SMOOTH",
"863 430 OFFCURVE",
"780 529 OFFCURVE",
"631 529 CURVE SMOOTH",
"566 529 OFFCURVE",
"511 510 OFFCURVE",
"469 476 CURVE",
"425 510 OFFCURVE",
"368 529 OFFCURVE",
"302 529 CURVE SMOOTH",
"145 529 OFFCURVE",
"40 420 OFFCURVE",
"40 257 CURVE SMOOTH",
"40 93 OFFCURVE",
"145 -15 OFFCURVE",
"303 -15 CURVE SMOOTH"
);
},
{
closed = 1;
nodes = (
"230 107 OFFCURVE",
"183 167 OFFCURVE",
"183 258 CURVE SMOOTH",
"183 348 OFFCURVE",
"230 407 OFFCURVE",
"302 407 CURVE SMOOTH",
"341 407 OFFCURVE",
"373 389 OFFCURVE",
"394 359 CURVE",
"385 328 OFFCURVE",
"380 294 OFFCURVE",
"380 257 CURVE SMOOTH",
"380 220 OFFCURVE",
"385 186 OFFCURVE",
"394 156 CURVE",
"373 125 OFFCURVE",
"341 107 OFFCURVE",
"302 107 CURVE SMOOTH"
);
},
{
closed = 1;
nodes = (
"530 380 OFFCURVE",
"568 415 OFFCURVE",
"626 415 CURVE SMOOTH",
"686 415 OFFCURVE",
"724 378 OFFCURVE",
"728 321 CURVE",
"521 321 LINE"
);
}
);
width = 903;
}
);
leftKerningGroup = o;
rightKerningGroup = e;
rightMetricsKey = e;
unicode = 0153;
},
{
glyphname = p;
lastChange = "2016-03-12 22:01:08 +0000";
layers = (
{
anchors = (
{
name = bottom;
position = "{133, -218}";
},
{
name = top;
position = "{289, 515}";
}
);
hints = (
{
horizontal = 1;
origin = "{0, 17}";
target = up;
type = BottomGhost;
},
{
horizontal = 1;
origin = "{0, 4}";
target = "{1, 12}";
},
{
horizontal = 1;
origin = "{0, 10}";
target = "{1, 6}";
},
{
horizontal = 1;
origin = "{0, 16}";
target = "{0, 14}";
},
{
origin = "{0, 17}";
target = "{0, 0}";
},
{
origin = "{1, 9}";
target = "{0, 7}";
}
);
layerId = "67A5D7A9-2C6D-4B81-A947-AF9C36497881";
name = Regular;
paths = (
{
closed = 1;
nodes = (
"204 -218 LINE",
"204 -12 LINE",
"221 -13 OFFCURVE",
"237 -14 OFFCURVE",
"255 -14 CURVE SMOOTH",
"436 -14 OFFCURVE",
"538 89 OFFCURVE",
"538 278 CURVE SMOOTH",
"538 437 OFFCURVE",
"467 530 OFFCURVE",
"352 530 CURVE SMOOTH",
"288 530 OFFCURVE",
"237 501 OFFCURVE",
"203 448 CURVE",
"199 448 LINE",
"202 515 LINE",
"65 515 LINE",
"65 -218 LINE"
);
},
{
closed = 1;
nodes = (
"249 109 OFFCURVE",
"227 112 OFFCURVE",
"204 118 CURVE",
"204 301 LINE",
"236 369 OFFCURVE",
"278 407 OFFCURVE",
"320 407 CURVE SMOOTH",
"368 407 OFFCURVE",
"397 356 OFFCURVE",
"397 270 CURVE SMOOTH",
"397 165 OFFCURVE",
"353 109 OFFCURVE",
"269 109 CURVE SMOOTH"
);
}
);
width = 577;
}
);
leftKerningGroup = p;
note = p;
rightKerningGroup = o;
unicode = 0070;
},
{
glyphname = thorn;
lastChange = "2016-03-12 22:01:08 +0000";
layers = (
{
anchors = (
{
name = bottom;
position = "{133, -218}";
},
{
name = top;
position = "{300, 515}";
}
);
hints = (
{
horizontal = 1;
origin = "{0, 17}";
target = up;
type = BottomGhost;
},
{
horizontal = 1;
origin = "{0, 4}";
target = "{1, 12}";
},
{
horizontal = 1;
origin = "{0, 10}";
target = "{1, 6}";
},
{
horizontal = 1;
origin = "{0, 16}";
target = down;
type = TopGhost;
},
{
origin = "{0, 17}";
target = "{0, 0}";
},
{
origin = "{1, 9}";
target = "{0, 7}";
}
);
layerId = "67A5D7A9-2C6D-4B81-A947-AF9C36497881";
name = Regular;
paths = (
{
closed = 1;
nodes = (
"204 -218 LINE",
"204 -12 LINE",
"221 -13 OFFCURVE",
"237 -14 OFFCURVE",
"255 -14 CURVE SMOOTH",
"436 -14 OFFCURVE",
"538 89 OFFCURVE",
"538 278 CURVE SMOOTH",
"538 437 OFFCURVE",
"467 530 OFFCURVE",
"352 530 CURVE SMOOTH",
"288 530 OFFCURVE",
"237 501 OFFCURVE",
"203 448 CURVE",
"201 448 LINE",
"201 730 LINE",
"65 730 LINE",
"65 -218 LINE"
);
},
{
closed = 1;
nodes = (
"249 109 OFFCURVE",
"227 112 OFFCURVE",
"204 118 CURVE",
"204 301 LINE",
"236 369 OFFCURVE",
"278 407 OFFCURVE",
"320 407 CURVE SMOOTH",
"368 407 OFFCURVE",
"397 356 OFFCURVE",
"397 270 CURVE SMOOTH",
"397 165 OFFCURVE",
"353 109 OFFCURVE",
"269 109 CURVE SMOOTH"
);
}
);
width = 578;
}
);
rightKerningGroup = o;
rightMetricsKey = o;
unicode = 00FE;
},
{
glyphname = q;
lastChange = "2016-03-12 22:01:08 +0000";
layers = (
{
anchors = (
{
name = bottom;
position = "{442, -218}";
},
{
name = top;
position = "{293, 515}";
}
);
hints = (
{
horizontal = 1;
origin = "{0, 14}";
target = up;
type = BottomGhost;
},
{
horizontal = 1;
origin = "{0, 10}";
target = "{1, 12}";
},
{
horizontal = 1;
origin = "{0, 4}";
target = "{1, 5}";
},
{
origin = "{0, 7}";
target = "{1, 2}";
},
{
place = "{373.500000, 139.000000}";
}
);
layerId = "67A5D7A9-2C6D-4B81-A947-AF9C36497881";
name = Regular;
paths = (
{
closed = 1;
nodes = (
"513 -218 LINE",
"512 506 LINE",
"443 521 OFFCURVE",
"375 529 OFFCURVE",
"324 529 CURVE SMOOTH",
"141 529 OFFCURVE",
"40 426 OFFCURVE",
"40 236 CURVE SMOOTH",
"40 78 OFFCURVE",
"110 -15 OFFCURVE",
"227 -15 CURVE SMOOTH",
"285 -15 OFFCURVE",
"336 8 OFFCURVE",
"373 51 CURVE",
"374 -218 LINE"
);
},
{
closed = 1;
nodes = (
"211 108 OFFCURVE",
"181 159 OFFCURVE",
"181 246 CURVE SMOOTH",
"181 350 OFFCURVE",
"224 406 OFFCURVE",
"309 406 CURVE SMOOTH",
"329 406 OFFCURVE",
"351 403 OFFCURVE",
"373 397 CURVE",
"374 196 LINE",
"345 141 OFFCURVE",
"306 108 OFFCURVE",
"264 108 CURVE SMOOTH"
);
}
);
width = 577;
}
);
leftKerningGroup = g;
note = q;
rightKerningGroup = q;
unicode = 0071;
},
{
glyphname = r;
lastChange = "2016-03-12 22:01:07 +0000";
layers = (
{
anchors = (
{
name = bottom;
position = "{136, 0}";
},
{
name = top;
position = "{200, 515}";
}
);
hints = (
{
horizontal = 1;
origin = "{0, 18}";
target = up;
type = BottomGhost;
},
{
horizontal = 1;
origin = "{0, 11}";
target = down;
type = TopGhost;
},
{
horizontal = 1;
origin = "{0, 17}";
target = "{0, 4}";
},
{
horizontal = 1;
origin = "{0, 8}";
target = up;
type = BottomGhost;
},
{
horizontal = 1;
origin = "{0, 17}";
target = down;
type = TopGhost;
},
{
origin = "{0, 18}";
target = "{0, 0}";
},
{
horizontal = 1;
origin = "{0, 7}";
target = up;
type = BottomGhost;
}
);
layerId = "67A5D7A9-2C6D-4B81-A947-AF9C36497881";
name = Regular;
paths = (
{
closed = 1;
nodes = (
"209 0 LINE",
"209 302 LINE",
"247 350 OFFCURVE",
"270 381 OFFCURVE",
"319 381 CURVE SMOOTH",
"333 381 OFFCURVE",
"346 378 OFFCURVE",
"361 374 CURVE",
"376 526 LINE",
"367 529 OFFCURVE",
"357 530 OFFCURVE",
"346 530 CURVE SMOOTH",
"284 530 OFFCURVE",
"252 492 OFFCURVE",
"217 431 CURVE",
"209 431 LINE",
"209 515 LINE",
"68 515 LINE",
"68 0 LINE"
);
}
);
width = 399;
}
);
leftKerningGroup = r;
note = r;
rightKerningGroup = r;
unicode = 0072;
},
{
glyphname = s;
lastChange = "2016-03-12 22:01:07 +0000";
layers = (
{
anchors = (
{
name = bottom;
position = "{233, 0}";
},
{
name = top;
position = "{233, 515}";
}
);
hints = (
{
horizontal = 1;
origin = "{0, 37}";
target = "{0, 30}";
},
{
horizontal = 1;
origin = "{0, 18}";
target = "{0, 11}";
},
{
origin = "{0, 34}";
target = "{0, 8}";
},
{
origin = "{0, 27}";
target = "{0, 2}";
},
{
horizontal = 1;
origin = "{0, 14}";
target = up;
type = BottomGhost;
},
{
horizontal = 1;
origin = "{0, 33}";
target = down;
type = TopGhost;
}
);
layerId = "67A5D7A9-2C6D-4B81-A947-AF9C36497881";
name = Regular;
paths = (
{
closed = 1;
nodes = (
"336 -15 OFFCURVE",
"429 35 OFFCURVE",
"429 149 CURVE SMOOTH",
"429 256 OFFCURVE",
"347 287 OFFCURVE",
"289 310 CURVE SMOOTH",
"230 333 OFFCURVE",
"184 339 OFFCURVE",
"184 376 CURVE SMOOTH",
"184 405 OFFCURVE",
"214 419 OFFCURVE",
"256 419 CURVE SMOOTH",
"299 419 OFFCURVE",
"351 404 OFFCURVE",
"390 381 CURVE",
"409 500 LINE",
"361 517 OFFCURVE",
"308 529 OFFCURVE",
"253 529 CURVE SMOOTH",
"132 529 OFFCURVE",
"42 471 OFFCURVE",
"42 364 CURVE SMOOTH",
"42 258 OFFCURVE",
"129 230 OFFCURVE",
"183 210 CURVE SMOOTH",
"254 183 OFFCURVE",
"287 176 OFFCURVE",
"287 144 CURVE SMOOTH",
"287 110 OFFCURVE",
"249 95 OFFCURVE",
"207 95 CURVE SMOOTH",
"159 95 OFFCURVE",
"100 114 OFFCURVE",
"55 142 CURVE",
"42 22 LINE",
"84 -1 OFFCURVE",
"149 -15 OFFCURVE",
"214 -15 CURVE SMOOTH"
);
}
);
width = 469;
}
);
leftKerningGroup = s;
note = s;
rightKerningGroup = s;
unicode = 0073;
},
{
glyphname = germandbls;
lastChange = "2016-03-12 22:01:07 +0000";
layers = (
{
anchors = (
{
name = bottom;
position = "{390, 0}";
},
{
name = top;
position = "{295, 724}";
}
);
hints = (
{
horizontal = 1;
origin = "{0, 39}";
target = up;
type = BottomGhost;
},
{
horizontal = 1;
origin = "{0, 23}";
target = "{0, 16}";
},
{
horizontal = 1;
origin = "{0, 4}";
target = "{0, 35}";
},
{
origin = "{0, 39}";
target = "{0, 0}";
},
{
origin = "{0, 7}";
target = "{0, 32}";
},
{
origin = "{0, 10}";
target = "{0, 29}";
},
{
origin = "{0, 13}";
target = "{0, 26}";
},
{
horizontal = 1;
origin = "{0, 19}";
target = down;
type = TopGhost;
}
);
layerId = "67A5D7A9-2C6D-4B81-A947-AF9C36497881";
name = Regular;
paths = (
{
closed = 1;
nodes = (
"206 -218 LINE",
"206 522 LINE SMOOTH",
"206 586 OFFCURVE",
"241 627 OFFCURVE",
"295 627 CURVE SMOOTH",
"337 627 OFFCURVE",
"358 602 OFFCURVE",
"358 570 CURVE SMOOTH",
"358 507 OFFCURVE",
"274 442 OFFCURVE",
"274 353 CURVE SMOOTH",
"274 237 OFFCURVE",
"413 217 OFFCURVE",
"413 147 CURVE SMOOTH",
"413 122 OFFCURVE",
"396 106 OFFCURVE",
"366 106 CURVE SMOOTH",
"348 106 OFFCURVE",
"326 112 OFFCURVE",
"305 123 CURVE",
"256 14 LINE",
"300 -3 OFFCURVE",
"342 -13 OFFCURVE",
"381 -13 CURVE SMOOTH",
"484 -13 OFFCURVE",
"555 52 OFFCURVE",
"555 152 CURVE SMOOTH",
"555 302 OFFCURVE",
"393 338 OFFCURVE",
"393 385 CURVE SMOOTH",
"393 423 OFFCURVE",
"500 465 OFFCURVE",
"500 581 CURVE SMOOTH",
"500 685 OFFCURVE",
"413 746 OFFCURVE",
"299 746 CURVE SMOOTH",
"155 746 OFFCURVE",
"65 650 OFFCURVE",
"65 500 CURVE SMOOTH",
"65 -218 LINE"
);
}
);
width = 580;
}
);
unicode = 00DF;
},
{
glyphname = t;
lastChange = "2016-03-12 22:01:07 +0000";
layers = (
{
anchors = (
{
name = bottom;
position = "{241, 0}";
},
{
name = center;
position = "{195, 265}";
},
{
name = top;
position = "{174, 621}";
},
{
name = topright;
position = "{451, 515}";
}
);
hints = (
{
horizontal = 1;
origin = "{0, 25}";
target = up;
type = BottomGhost;
},
{
horizontal = 1;
origin = "{0, 19}";
target = "{0, 20}";
},
{
horizontal = 1;
origin = "{0, 25}";
target = "{0, 6}";
},
{
origin = "{0, 22}";
target = "{0, 9}";
},
{
horizontal = 1;
origin = "{0, 3}";
target = down;
type = TopGhost;
},
{
horizontal = 1;
origin = "{0, 14}";
target = down;
type = TopGhost;
}
);
layerId = "67A5D7A9-2C6D-4B81-A947-AF9C36497881";
name = Regular;
paths = (
{
closed = 1;
nodes = (
"297 -15 OFFCURVE",
"343 -5 OFFCURVE",
"386 15 CURVE",
"355 121 LINE",
"333 113 OFFCURVE",
"310 108 OFFCURVE",
"291 108 CURVE SMOOTH",
"260 108 OFFCURVE",
"243 123 OFFCURVE",
"243 151 CURVE SMOOTH",
"243 394 LINE",
"373 394 LINE",
"373 515 LINE",
"243 515 LINE",
"243 643 LINE",
"196 639 OFFCURVE",
"150 633 OFFCURVE",
"103 625 CURVE",
"103 515 LINE",
"23 515 LINE",
"23 394 LINE",
"103 394 LINE",
"103 125 LINE SMOOTH",
"103 35 OFFCURVE",
"158 -15 OFFCURVE",
"254 -15 CURVE SMOOTH"
);
}
);
width = 421;
}
);
leftKerningGroup = t;
note = t;
rightKerningGroup = t;
unicode = 0074;
},
{
glyphname = tcaron;
lastChange = "2016-03-12 22:01:08 +0000";
layers = (
{
hints = (
{
horizontal = 1;
origin = "{0, 25}";
target = up;
type = BottomGhost;
},
{
horizontal = 1;
origin = "{0, 19}";
target = "{0, 20}";
},
{
horizontal = 1;
origin = "{0, 25}";
target = "{0, 6}";
},
{
origin = "{0, 22}";
target = "{0, 9}";
},
{
origin = "{1, 11}";
target = "{1, 2}";
},
{
horizontal = 1;
origin = "{0, 14}";
target = down;
type = TopGhost;
},
{
horizontal = 1;
origin = "{1, 16}";
target = up;
type = BottomGhost;
},
{
horizontal = 1;
origin = "{0, 3}";
target = down;
type = TopGhost;
}
);
layerId = "67A5D7A9-2C6D-4B81-A947-AF9C36497881";
name = Regular;
paths = (
{
closed = 1;
nodes = (
"297 -15 OFFCURVE",
"343 -5 OFFCURVE",
"386 15 CURVE",
"355 121 LINE",
"333 113 OFFCURVE",
"310 108 OFFCURVE",
"291 108 CURVE SMOOTH",
"260 108 OFFCURVE",
"243 123 OFFCURVE",
"243 151 CURVE SMOOTH",
"243 394 LINE",
"373 394 LINE",
"373 515 LINE",
"243 515 LINE",
"243 643 LINE",
"196 639 OFFCURVE",
"150 633 OFFCURVE",
"103 625 CURVE",
"103 515 LINE",
"23 515 LINE",
"23 394 LINE",
"103 394 LINE",
"103 125 LINE SMOOTH",
"103 35 OFFCURVE",
"158 -15 OFFCURVE",
"254 -15 CURVE SMOOTH"
);
},
{
closed = 1;
nodes = (
"448 600 OFFCURVE",
"507 662 OFFCURVE",
"507 725 CURVE SMOOTH",
"507 775 OFFCURVE",
"473 807 OFFCURVE",
"434 807 CURVE SMOOTH",
"411 807 OFFCURVE",
"391 797 OFFCURVE",
"378 782 CURVE SMOOTH",
"366 767 OFFCURVE",
"360 747 OFFCURVE",
"362 725 CURVE",
"400 677 LINE",
"391 653 OFFCURVE",
"374 624 OFFCURVE",
"354 600 CURVE",
"380 565 LINE"
);
}
);
width = 502;
}
);
leftKerningGroup = t;
unicode = 0165;
},
{
glyphname = u;
lastChange = "2016-03-12 22:01:07 +0000";
layers = (
{
anchors = (
{
name = bottom;
position = "{290, 0}";
},
{
name = ogonek;
position = "{483, 0}";
},
{
name = top;
position = "{300, 515}";
},
{
name = topright;
position = "{579, 515}";
}
);
hints = (
{
horizontal = 1;
origin = "{0, 19}";
target = "{0, 10}";
},
{
horizontal = 1;
origin = "{0, 15}";
target = down;
type = TopGhost;
},
{
horizontal = 1;
origin = "{0, 3}";
target = up;
type = BottomGhost;
},
{
origin = "{0, 16}";
target = "{0, 13}";
},
{
origin = "{0, 3}";
target = "{0, 4}";
}
);
layerId = "67A5D7A9-2C6D-4B81-A947-AF9C36497881";
name = Regular;
paths = (
{
closed = 1;
nodes = (
"312 -14 OFFCURVE",
"358 21 OFFCURVE",
"393 68 CURVE",
"393 0 LINE",
"534 0 LINE",
"534 515 LINE",
"393 515 LINE",
"393 191 LINE",
"365 142 OFFCURVE",
"321 110 OFFCURVE",
"275 110 CURVE SMOOTH",
"230 110 OFFCURVE",
"201 141 OFFCURVE",
"201 196 CURVE SMOOTH",
"201 515 LINE",
"60 515 LINE",
"60 173 LINE SMOOTH",
"60 58 OFFCURVE",
"126 -14 OFFCURVE",
"236 -14 CURVE SMOOTH"
);
}
);
width = 599;
}
);
leftKerningGroup = u;
note = u;
rightKerningGroup = u;
unicode = 0075;
},
{
glyphname = uogonek;
lastChange = "2016-03-12 22:01:07 +0000";
layers = (
{
hints = (
{
horizontal = 1;
origin = "{0, 40}";
target = "{0, 6}";
},
{
horizontal = 1;
origin = "{0, 12}";
target = up;
type = BottomGhost;
},
{
horizontal = 1;
origin = "{0, 23}";
target = down;
type = TopGhost;
},
{
horizontal = 1;
origin = "{0, 27}";
target = "{0, 18}";
},
{
origin = "{0, 24}";
target = "{0, 21}";
},
{
origin = "{0, 37}";
target = "{0, 9}";
},
{
origin = "{0, 15}";
target = "{0, 12}";
}
);
layerId = "67A5D7A9-2C6D-4B81-A947-AF9C36497881";
name = Regular;
paths = (
{
closed = 1;
nodes = (
"480 -220 OFFCURVE",
"512 -212 OFFCURVE",
"532 -197 CURVE",
"537 -120 LINE",
"519 -131 OFFCURVE",
"498 -137 OFFCURVE",
"479 -137 CURVE SMOOTH",
"450 -137 OFFCURVE",
"425 -123 OFFCURVE",
"425 -93 CURVE SMOOTH",
"425 -52 OFFCURVE",
"471 -19 OFFCURVE",
"534 0 CURVE",
"534 515 LINE",
"393 515 LINE",
"393 191 LINE",
"365 142 OFFCURVE",
"321 110 OFFCURVE",
"275 110 CURVE SMOOTH",
"230 110 OFFCURVE",
"201 141 OFFCURVE",
"201 196 CURVE SMOOTH",
"201 515 LINE",
"60 515 LINE",
"60 173 LINE SMOOTH",
"60 58 OFFCURVE",
"126 -14 OFFCURVE",
"236 -14 CURVE SMOOTH",
"314 -14 OFFCURVE",
"360 22 OFFCURVE",
"395 71 CURVE",
"395 54 LINE SMOOTH",
"395 30 OFFCURVE",
"395 6 OFFCURVE",
"394 -17 CURVE",
"359 -40 OFFCURVE",
"334 -76 OFFCURVE",
"334 -122 CURVE SMOOTH",
"334 -181 OFFCURVE",
"376 -220 OFFCURVE",
"448 -220 CURVE SMOOTH"
);
}
);
width = 599;
}
);
leftKerningGroup = u;
rightKerningGroup = u;
unicode = 0173;
},
{
glyphname = v;
lastChange = "2016-03-12 22:01:07 +0000";
layers = (
{
anchors = (
{
name = bottom;
position = "{274, 0}";
},
{
name = top;
position = "{274, 515}";
}
);
hints = (
{
horizontal = 1;
origin = "{0, 6}";
target = up;
type = BottomGhost;
},
{
horizontal = 1;
origin = "{0, 4}";
target = down;
type = TopGhost;
},
{
horizontal = 1;
origin = "{0, 2}";
target = up;
type = BottomGhost;
},
{
horizontal = 1;
origin = "{0, 0}";
target = "{0, 3}";
}
);
layerId = "67A5D7A9-2C6D-4B81-A947-AF9C36497881";
name = Regular;
paths = (
{
closed = 1;
nodes = (
"352 0 LINE",
"533 515 LINE",
"382 515 LINE",
"273 156 LINE",
"159 527 LINE",
"5 513 LINE",
"187 0 LINE"
);
}
);
width = 547;
}
);
leftKerningGroup = v;
note = v;
rightKerningGroup = v;
unicode = 0076;
},
{
glyphname = w;
lastChange = "2016-03-12 22:01:07 +0000";
layers = (
{
anchors = (
{
name = bottom;
position = "{425, 0}";
},
{
name = top;
position = "{425, 515}";
}
);
hints = (
{
horizontal = 1;
origin = "{0, 12}";
target = up;
type = BottomGhost;
},
{
horizontal = 1;
origin = "{0, 7}";
target = down;
type = TopGhost;
},
{
horizontal = 1;
origin = "{0, 11}";
target = down;
type = TopGhost;
},
{
horizontal = 1;
origin = "{0, 3}";
target = "{0, 6}";
},
{
horizontal = 1;
origin = "{0, 7}";
target = "{0, 1}";
}
);
layerId = "67A5D7A9-2C6D-4B81-A947-AF9C36497881";
name = Regular;
paths = (
{
closed = 1;
nodes = (
"308 0 LINE",
"419 374 LINE",
"525 0 LINE",
"679 0 LINE",
"836 515 LINE",
"702 515 LINE",
"608 164 LINE",
"501 525 LINE",
"342 512 LINE",
"243 174 LINE",
"151 515 LINE",
"7 515 LINE",
"157 0 LINE"
);
}
);
width = 850;
}
);
leftKerningGroup = v;
note = w;
rightKerningGroup = v;
unicode = 0077;
},
{
glyphname = x;
lastChange = "2016-03-12 22:01:07 +0000";
layers = (
{
anchors = (
{
name = bottom;
position = "{273, 0}";
},
{
name = top;
position = "{273, 515}";
}
);
hints = (
{
horizontal = 1;
origin = "{0, 11}";
target = up;
type = BottomGhost;
},
{
horizontal = 1;
origin = "{0, 5}";
target = down;
type = TopGhost;
},
{
horizontal = 1;
origin = "{0, 8}";
target = down;
type = TopGhost;
},
{
horizontal = 1;
origin = "{0, 6}";
target = down;
type = TopGhost;
}
);
layerId = "67A5D7A9-2C6D-4B81-A947-AF9C36497881";
name = Regular;
paths = (
{
closed = 1;
nodes = (
"538 0 LINE",
"353 273 LINE",
"523 515 LINE",
"369 515 LINE",
"279 377 LINE",
"182 523 LINE",
"26 515 LINE",
"198 266 LINE",
"8 0 LINE",
"168 0 LINE",
"271 158 LINE",
"382 -8 LINE"
);
}
);
width = 545;
}
);
leftKerningGroup = x;
note = x;
rightKerningGroup = x;
unicode = 0078;
},
{
glyphname = y;
lastChange = "2016-03-12 22:01:07 +0000";
layers = (
{
anchors = (
{
name = bottom;
position = "{244, -218}";
},
{
name = top;
position = "{271, 515}";
}
);
hints = (
{
horizontal = 1;
origin = "{0, 20}";
target = "{0, 13}";
},
{
horizontal = 1;
origin = "{0, 6}";
target = up;
type = BottomGhost;
},
{
horizontal = 1;
origin = "{0, 8}";
target = down;
type = TopGhost;
},
{
horizontal = 1;
origin = "{0, 20}";
target = up;
type = BottomGhost;
},
{
horizontal = 1;
origin = "{0, 10}";
target = "{0, 7}";
}
);
layerId = "67A5D7A9-2C6D-4B81-A947-AF9C36497881";
name = Regular;
paths = (
{
closed = 1;
nodes = (
"206 -224 OFFCURVE",
"248 -189 OFFCURVE",
"284 -125 CURVE SMOOTH",
"341 -23 OFFCURVE",
"454 291 OFFCURVE",
"528 515 CURVE",
"389 515 LINE",
"275 156 LINE",
"152 525 LINE",
"6 513 LINE",
"207 -15 LINE",
"186 -74 OFFCURVE",
"171 -105 OFFCURVE",
"127 -105 CURVE SMOOTH",
"108 -105 OFFCURVE",
"89 -99 OFFCURVE",
"63 -86 CURVE",
"42 -202 LINE",
"74 -216 OFFCURVE",
"105 -224 OFFCURVE",
"138 -224 CURVE SMOOTH"
);
}
);
width = 542;
}
);
leftKerningGroup = v;
note = y;
rightKerningGroup = v;
unicode = 0079;
},
{
glyphname = z;
lastChange = "2016-03-12 22:01:07 +0000";
layers = (
{
anchors = (
{
name = bottom;
position = "{252, 0}";
},
{
name = top;
position = "{252, 515}";
}
);
hints = (
{
horizontal = 1;
origin = "{0, 9}";
target = "{0, 2}";
},
{
horizontal = 1;
origin = "{0, 5}";
target = "{0, 6}";
},
{
origin = "{0, 9}";
target = "{0, 0}";
},
{
horizontal = 1;
origin = "{0, 4}";
target = "{0, 3}";
},
{
horizontal = 1;
origin = "{0, 9}";
target = "{0, 8}";
}
);
layerId = "67A5D7A9-2C6D-4B81-A947-AF9C36497881";
name = Regular;
paths = (
{
closed = 1;
nodes = (
"457 1 LINE",
"457 121 LINE",
"211 121 LINE",
"457 423 LINE",
"457 515 LINE",
"55 515 LINE",
"55 394 LINE",
"285 394 LINE",
"38 93 LINE",
"38 1 LINE"
);
}
);
width = 503;
}
);
leftKerningGroup = z;
note = z;
rightKerningGroup = z;
unicode = 007A;
},
{
glyphname = fi;
lastChange = "2016-03-12 22:01:08 +0000";
layers = (
{
anchors = (
{
name = caret_1;
position = "{609, 0}";
}
);
hints = (
{
horizontal = 1;
origin = "{0, 33}";
target = "{0, 32}";
},
{
horizontal = 1;
origin = "{0, 28}";
target = "{0, 29}";
},
{
horizontal = 1;
origin = "{1, 2}";
target = "{1, 3}";
},
{
horizontal = 1;
origin = "{0, 23}";
target = "{0, 16}";
},
{
origin = "{0, 31}";
target = "{0, 2}";
},
{
origin = "{0, 5}";
target = "{0, 10}";
},
{
origin = "{1, 3}";
target = "{1, 0}";
}
);
layerId = "67A5D7A9-2C6D-4B81-A947-AF9C36497881";
name = Regular;
paths = (
{
closed = 1;
nodes = (
"398 0 LINE",
"398 121 LINE",
"278 121 LINE",
"278 394 LINE",
"588 394 LINE",
"588 121 LINE",
"492 121 LINE",
"492 0 LINE",
"815 0 LINE",
"815 121 LINE",
"729 121 LINE",
"729 515 LINE",
"278 515 LINE",
"278 571 LINE SMOOTH",
"278 604 OFFCURVE",
"296 622 OFFCURVE",
"327 622 CURVE SMOOTH",
"345 622 OFFCURVE",
"366 616 OFFCURVE",
"388 605 CURVE",
"437 716 LINE",
"393 734 OFFCURVE",
"350 744 OFFCURVE",
"313 744 CURVE SMOOTH",
"207 744 OFFCURVE",
"137 678 OFFCURVE",
"137 578 CURVE SMOOTH",
"137 515 LINE",
"46 515 LINE",
"46 394 LINE",
"137 394 LINE",
"137 121 LINE",
"46 121 LINE",
"46 0 LINE"
);
},
{
closed = 1;
nodes = (
"731 600 LINE",
"731 730 LINE",
"570 730 LINE",
"570 600 LINE"
);
}
);
width = 843;
}
);
leftKerningGroup = f;
leftMetricsKey = f;
rightKerningGroup = i;
rightMetricsKey = i;
unicode = FB01;
},
{
glyphname = fl;
lastChange = "2016-03-12 22:01:07 +0000";
layers = (
{
anchors = (
{
name = caret_1;
position = "{609, 0}";
}
);
hints = (
{
horizontal = 1;
origin = "{0, 33}";
target = "{0, 32}";
},
{
horizontal = 1;
origin = "{0, 28}";
target = "{0, 29}";
},
{
horizontal = 1;
origin = "{0, 4}";
target = "{0, 5}";
},
{
horizontal = 1;
origin = "{0, 23}";
target = "{0, 16}";
},
{
origin = "{0, 31}";
target = "{0, 8}";
},
{
origin = "{0, 7}";
target = "{0, 2}";
}
);
layerId = "67A5D7A9-2C6D-4B81-A947-AF9C36497881";
name = Regular;
paths = (
{
closed = 1;
nodes = (
"809 0 LINE",
"809 121 LINE",
"718 121 LINE",
"718 730 LINE",
"491 730 LINE",
"491 610 LINE",
"577 610 LINE",
"577 121 LINE",
"278 121 LINE",
"278 394 LINE",
"398 394 LINE",
"398 515 LINE",
"278 515 LINE",
"278 571 LINE SMOOTH",
"278 604 OFFCURVE",
"296 622 OFFCURVE",
"327 622 CURVE SMOOTH",
"345 622 OFFCURVE",
"366 616 OFFCURVE",
"388 605 CURVE",
"437 716 LINE",
"393 734 OFFCURVE",
"350 744 OFFCURVE",
"313 744 CURVE SMOOTH",
"207 744 OFFCURVE",
"137 678 OFFCURVE",
"137 578 CURVE SMOOTH",
"137 515 LINE",
"46 515 LINE",
"46 394 LINE",
"137 394 LINE",
"137 121 LINE",
"46 121 LINE",
"46 0 LINE"
);
}
);
width = 837;
}
);
leftKerningGroup = f;
leftMetricsKey = f;
rightKerningGroup = l;
rightMetricsKey = l;
unicode = FB02;
},
{
glyphname = ordfeminine;
lastChange = "2016-03-12 22:01:08 +0000";
layers = (
{
hints = (
{
horizontal = 1;
origin = "{1, 3}";
target = "{1, 2}";
},
{
horizontal = 1;
origin = "{0, 15}";
target = "{2, 12}";
},
{
horizontal = 1;
origin = "{2, 5}";
target = "{0, 9}";
},
{
origin = "{0, 12}";
target = "{2, 2}";
},
{
origin = "{2, 9}";
target = "{0, 5}";
}
);
layerId = "67A5D7A9-2C6D-4B81-A947-AF9C36497881";
name = Regular;
paths = (
{
closed = 1;
nodes = (
"213 381 OFFCURVE",
"246 397 OFFCURVE",
"266 425 CURVE",
"268 425 LINE",
"266 390 LINE",
"347 390 LINE",
"347 694 LINE",
"304 703 OFFCURVE",
"268 708 OFFCURVE",
"236 708 CURVE SMOOTH",
"130 708 OFFCURVE",
"72 645 OFFCURVE",
"72 532 CURVE SMOOTH",
"72 438 OFFCURVE",
"112 381 OFFCURVE",
"179 381 CURVE SMOOTH"
);
},
{
closed = 1;
nodes = (
"386 272 LINE",
"386 321 LINE",
"65 321 LINE",
"65 272 LINE"
);
},
{
closed = 1;
nodes = (
"171 455 OFFCURVE",
"154 486 OFFCURVE",
"154 538 CURVE SMOOTH",
"154 600 OFFCURVE",
"179 634 OFFCURVE",
"227 634 CURVE SMOOTH",
"237 634 OFFCURVE",
"252 632 OFFCURVE",
"265 629 CURVE",
"265 510 LINE",
"247 474 OFFCURVE",
"224 455 OFFCURVE",
"201 455 CURVE SMOOTH"
);
}
);
width = 451;
}
);
unicode = 00AA;
},
{
glyphname = ordmasculine;
lastChange = "2016-03-12 22:01:08 +0000";
layers = (
{
hints = (
{
horizontal = 1;
origin = "{1, 3}";
target = "{1, 2}";
},
{
horizontal = 1;
origin = "{0, 11}";
target = "{2, 11}";
},
{
horizontal = 1;
origin = "{2, 5}";
target = "{0, 5}";
},
{
origin = "{0, 8}";
target = "{2, 2}";
},
{
origin = "{2, 8}";
target = "{0, 2}";
}
);
layerId = "67A5D7A9-2C6D-4B81-A947-AF9C36497881";
name = Regular;
paths = (
{
closed = 1;
nodes = (
"318 381 OFFCURVE",
"381 448 OFFCURVE",
"381 546 CURVE SMOOTH",
"381 644 OFFCURVE",
"318 708 OFFCURVE",
"224 708 CURVE SMOOTH",
"130 708 OFFCURVE",
"67 642 OFFCURVE",
"67 545 CURVE SMOOTH",
"67 446 OFFCURVE",
"130 381 OFFCURVE",
"225 381 CURVE SMOOTH"
);
},
{
closed = 1;
nodes = (
"386 272 LINE",
"386 321 LINE",
"65 321 LINE",
"65 272 LINE"
);
},
{
closed = 1;
nodes = (
"181 454 OFFCURVE",
"152 490 OFFCURVE",
"152 545 CURVE SMOOTH",
"152 599 OFFCURVE",
"181 635 OFFCURVE",
"224 635 CURVE SMOOTH",
"267 635 OFFCURVE",
"296 599 OFFCURVE",
"296 545 CURVE SMOOTH",
"296 490 OFFCURVE",
"267 454 OFFCURVE",
"224 454 CURVE SMOOTH"
);
}
);
width = 451;
}
);
unicode = 00BA;
},
{
glyphname = pi;
lastChange = "2016-03-12 22:01:07 +0000";
layers = (
{
hints = (
{
horizontal = 1;
origin = "{0, 29}";
target = up;
type = BottomGhost;
},
{
horizontal = 1;
origin = "{0, 17}";
target = "{0, 16}";
},
{
horizontal = 1;
origin = "{0, 29}";
target = "{0, 6}";
},
{
horizontal = 1;
origin = "{0, 19}";
target = up;
type = BottomGhost;
},
{
origin = "{0, 26}";
target = "{0, 9}";
},
{
horizontal = 1;
origin = "{0, 3}";
target = down;
type = TopGhost;
}
);
layerId = "67A5D7A9-2C6D-4B81-A947-AF9C36497881";
name = Regular;
paths = (
{
closed = 1;
nodes = (
"673 -15 OFFCURVE",
"720 -5 OFFCURVE",
"767 15 CURVE",
"752 121 LINE",
"729 113 OFFCURVE",
"705 108 OFFCURVE",
"687 108 CURVE SMOOTH",
"659 108 OFFCURVE",
"644 120 OFFCURVE",
"644 141 CURVE SMOOTH",
"644 156 OFFCURVE",
"652 207 OFFCURVE",
"657 240 CURVE SMOOTH",
"681 414 LINE",
"789 414 LINE",
"806 536 LINE",
"125 536 LINE",
"108 414 LINE",
"203 414 LINE",
"147 0 LINE",
"291 0 LINE",
"347 414 LINE",
"537 414 LINE",
"521 296 LINE SMOOTH",
"505 178 OFFCURVE",
"496 128 OFFCURVE",
"496 99 CURVE SMOOTH",
"496 28 OFFCURVE",
"542 -15 OFFCURVE",
"630 -15 CURVE SMOOTH"
);
}
);
width = 871;
}
);
unicode = 03C0;
},
{
glyphname = "alef-hb";
lastChange = "2016-03-12 22:34:19 +0000";
layers = (
{
anchors = (
{
name = bottom;
position = "{289, 0}";
},
{
name = bottomleft;
position = "{20, 0}";
},
{
name = center;
position = "{314, 470}";
},
{
name = top;
position = "{292, 515}";
},
{
name = topleft;
position = "{30, 515}";
}
);
hints = (
{
horizontal = 1;
origin = "{0, 38}";
target = up;
type = BottomGhost;
},
{
horizontal = 1;
origin = "{0, 34}";
target = up;
type = BottomGhost;
},
{
origin = "{0, 34}";
target = "{0, 38}";
},
{
horizontal = 1;
origin = "{0, 45}";
target = up;
type = BottomGhost;
},
{
horizontal = 1;
origin = "{0, 22}";
target = down;
type = TopGhost;
},
{
origin = "{0, 13}";
target = "{0, 6}";
},
{
horizontal = 1;
origin = "{0, 44}";
target = "{0, 19}";
}
);
layerId = "67A5D7A9-2C6D-4B81-A947-AF9C36497881";
name = Regular;
paths = (
{
closed = 1;
nodes = (
"455 -4 OFFCURVE",
"497 16 OFFCURVE",
"543 40 CURVE",
"408 253 LINE",
"486 282 OFFCURVE",
"526 328 OFFCURVE",
"533 420 CURVE SMOOTH",
"542 540 LINE",
"522 540 OFFCURVE",
"510 541 OFFCURVE",
"485 541 CURVE SMOOTH",
"460 541 OFFCURVE",
"427 540 OFFCURVE",
"397 538 CURVE",
"394 495 OFFCURVE",
"389 425 OFFCURVE",
"384 394 CURVE SMOOTH",
"378 355 OFFCURVE",
"362 339 OFFCURVE",
"319 329 CURVE",
"264 405 OFFCURVE",
"216 483 OFFCURVE",
"171 558 CURVE",
"126 537 OFFCURVE",
"84 515 OFFCURVE",
"44 490 CURVE",
"76 432 OFFCURVE",
"113 375 OFFCURVE",
"154 318 CURVE",
"86 281 OFFCURVE",
"60 224 OFFCURVE",
"53 142 CURVE SMOOTH",
"51 116 OFFCURVE",
"48 61 OFFCURVE",
"47 -5 CURVE",
"82 -5 LINE SMOOTH",
"118 -5 OFFCURVE",
"153 -4 OFFCURVE",
"188 -2 CURVE",
"191 59 OFFCURVE",
"194 127 OFFCURVE",
"197 155 CURVE SMOOTH",
"202 204 OFFCURVE",
"217 228 OFFCURVE",
"250 246 CURVE",
"414 -19 LINE"
);
}
);
width = 583;
}
);
leftKerningGroup = "alef-hb";
note = alef;
rightKerningGroup = "alef-hb";
unicode = 05D0;
},
{
glyphname = "bet-hb";
lastChange = "2016-03-12 22:01:07 +0000";
layers = (
{
anchors = (
{
name = bottom;
position = "{257, 0}";
},
{
name = bottomleft;
position = "{20, 0}";
},
{
name = center;
position = "{170, 268}";
},
{
name = top;
position = "{268, 515}";
},
{
name = topleft;
position = "{20, 515}";
}
);
hints = (
{
horizontal = 1;
origin = "{0, 15}";
target = "{0, 14}";
},
{
horizontal = 1;
origin = "{0, 8}";
target = "{0, 7}";
},
{
origin = "{0, 13}";
target = "{0, 2}";
}
);
layerId = "67A5D7A9-2C6D-4B81-A947-AF9C36497881";
name = Regular;
paths = (
{
closed = 1;
nodes = (
"507 0 LINE",
"521 125 LINE",
"441 125 LINE",
"441 366 LINE SMOOTH",
"441 473 OFFCURVE",
"379 536 OFFCURVE",
"273 536 CURVE SMOOTH",
"57 536 LINE",
"57 411 LINE",
"246 411 LINE SMOOTH",
"282 411 OFFCURVE",
"304 387 OFFCURVE",
"304 349 CURVE SMOOTH",
"304 125 LINE",
"33 125 LINE",
"33 0 LINE"
);
}
);
width = 536;
}
);
leftKerningGroup = "bet-hb";
note = bet;
rightKerningGroup = "bet-hb";
unicode = 05D1;
},
{
glyphname = "gimel-hb";
lastChange = "2016-03-12 22:01:07 +0000";
layers = (
{
anchors = (
{
name = bottom;
position = "{187, 0}";
},
{
name = bottomleft;
position = "{20, 0}";
},
{
name = center;
position = "{108, 279}";
},
{
name = top;
position = "{204, 515}";
},
{
name = topleft;
position = "{30, 515}";
}
);
hints = (
{
horizontal = 1;
origin = "{0, 10}";
target = "{0, 9}";
},
{
origin = "{0, 18}";
target = "{0, 7}";
},
{
horizontal = 1;
origin = "{0, 18}";
target = up;
type = BottomGhost;
},
{
horizontal = 1;
origin = "{0, 3}";
target = down;
type = TopGhost;
}
);
layerId = "67A5D7A9-2C6D-4B81-A947-AF9C36497881";
name = Regular;
paths = (
{
closed = 1;
nodes = (
"32 -21 LINE",
"100 9 OFFCURVE",
"169 41 OFFCURVE",
"237 79 CURVE",
"248 -16 LINE",
"285 -8 OFFCURVE",
"327 5 OFFCURVE",
"368 22 CURVE",
"315 536 LINE",
"72 536 LINE",
"72 411 LINE",
"195 411 LINE",
"217 201 LINE",
"154 166 OFFCURVE",
"90 137 OFFCURVE",
"27 111 CURVE",
"24 68 OFFCURVE",
"22 24 OFFCURVE",
"21 -21 CURVE"
);
}
);
width = 407;
}
);
leftKerningGroup = "gimel-hb";
note = gimel;
rightKerningGroup = "gimel-hb";
unicode = 05D2;
},
{
glyphname = "dalet-hb";
lastChange = "2016-03-12 22:01:07 +0000";
layers = (
{
anchors = (
{
name = bottom;
position = "{331, 0}";
},
{
name = bottomleft;
position = "{20, 0}";
},
{
name = center;
position = "{143, 258}";
},
{
name = top;
position = "{263, 515}";
},
{
name = topleft;
position = "{-20, 515}";
}
);
hints = (
{
horizontal = 1;
origin = "{0, 7}";
target = up;
type = BottomGhost;
},
{
horizontal = 1;
origin = "{0, 5}";
target = "{0, 4}";
},
{
origin = "{0, 7}";
target = "{0, 0}";
}
);
layerId = "67A5D7A9-2C6D-4B81-A947-AF9C36497881";
name = Regular;
paths = (
{
closed = 1;
nodes = (
"399 4 LINE",
"399 411 LINE",
"482 411 LINE",
"496 536 LINE",
"20 536 LINE",
"20 411 LINE",
"262 411 LINE",
"262 -5 LINE"
);
}
);
width = 526;
}
);
leftKerningGroup = "dalet-hb";
note = dalet;
rightKerningGroup = "dalet-hb";
unicode = 05D3;
},
{
glyphname = "he-hb";
lastChange = "2016-03-12 22:01:08 +0000";
layers = (
{
anchors = (
{
name = bottom;
position = "{293, 0}";
},
{
name = bottomleft;
position = "{20, 0}";
},
{
name = center;
position = "{293, 308}";
},
{
name = top;
position = "{293, 515}";
},
{
name = topleft;
position = "{20, 515}";
}
);
hints = (
{
horizontal = 1;
origin = "{1, 5}";
target = up;
type = BottomGhost;
},
{
horizontal = 1;
origin = "{0, 6}";
target = "{0, 5}";
},
{
origin = "{1, 5}";
target = "{1, 0}";
},
{
origin = "{0, 11}";
target = "{0, 0}";
},
{
horizontal = 1;
origin = "{1, 1}";
target = down;
type = TopGhost;
}
);
layerId = "67A5D7A9-2C6D-4B81-A947-AF9C36497881";
name = Regular;
paths = (
{
closed = 1;
nodes = (
"528 4 LINE",
"528 366 LINE SMOOTH",
"528 473 OFFCURVE",
"466 536 OFFCURVE",
"360 536 CURVE SMOOTH",
"58 536 LINE",
"58 411 LINE",
"333 411 LINE SMOOTH",
"369 411 OFFCURVE",
"391 387 OFFCURVE",
"391 349 CURVE SMOOTH",
"391 -5 LINE"
);
},
{
closed = 1;
nodes = (
"202 4 LINE",
"202 278 LINE",
"156 277 OFFCURVE",
"109 273 OFFCURVE",
"63 269 CURVE",
"63 -5 LINE"
);
}
);
width = 586;
}
);
leftKerningGroup = "he-hb";
note = he;
rightKerningGroup = "he-hb";
unicode = 05D4;
},
{
glyphname = "vav-hb";
lastChange = "2016-03-12 22:01:07 +0000";
layers = (
{
anchors = (
{
name = bottom;
position = "{196, 0}";
},
{
name = bottomleft;
position = "{20, 0}";
},
{
name = center;
position = "{33, 258}";
},
{
name = top;
position = "{157, 515}";
},
{
name = topleft;
position = "{155, 515}";
}
);
hints = (
{
horizontal = 1;
origin = "{0, 5}";
target = up;
type = BottomGhost;
},
{
horizontal = 1;
origin = "{0, 3}";
target = "{0, 2}";
},
{
origin = "{0, 5}";
target = "{0, 0}";
}
);
layerId = "67A5D7A9-2C6D-4B81-A947-AF9C36497881";
name = Regular;
paths = (
{
closed = 1;
nodes = (
"265 4 LINE",
"265 536 LINE",
"30 536 LINE",
"30 411 LINE",
"128 411 LINE",
"128 -5 LINE"
);
}
);
width = 333;
}
);
leftKerningGroup = "vav-hb";
note = vav;
rightKerningGroup = "vav-hb";
unicode = 05D5;
},
{
glyphname = "zayin-hb";
lastChange = "2016-03-12 22:01:07 +0000";
layers = (
{
anchors = (
{
name = bottom;
position = "{193, 0}";
},
{
name = bottomleft;
position = "{20, 0}";
},
{
name = center;
position = "{34, 258}";
},
{
name = top;
position = "{200, 515}";
},
{
name = topleft;
position = "{10, 515}";
}
);
hints = (
{
horizontal = 1;
origin = "{0, 16}";
target = up;
type = BottomGhost;
},
{
horizontal = 1;
origin = "{0, 15}";
target = "{0, 11}";
},
{
origin = "{0, 16}";
target = "{0, 0}";
},
{
horizontal = 1;
origin = "{0, 5}";
target = down;
type = TopGhost;
}
);
layerId = "67A5D7A9-2C6D-4B81-A947-AF9C36497881";
name = Regular;
paths = (
{
closed = 1;
nodes = (
"262 0 LINE",
"262 403 LINE",
"297 407 OFFCURVE",
"336 414 OFFCURVE",
"368 424 CURVE",
"351 546 LINE",
"298 533 OFFCURVE",
"245 526 OFFCURVE",
"193 526 CURVE SMOOTH",
"141 526 OFFCURVE",
"88 533 OFFCURVE",
"35 546 CURVE",
"18 424 LINE",
"51 414 OFFCURVE",
"89 407 OFFCURVE",
"125 403 CURVE",
"125 0 LINE"
);
}
);
width = 400;
}
);
leftKerningGroup = "zayin-hb";
note = zayin;
rightKerningGroup = "zayin-hb";
unicode = 05D6;
},
{
glyphname = "het-hb";
lastChange = "2016-03-12 22:01:07 +0000";
layers = (
{
anchors = (
{
name = bottom;
position = "{305, 0}";
},
{
name = bottomleft;
position = "{25, 0}";
},
{
name = center;
position = "{305, 258}";
},
{
name = top;
position = "{305, 515}";
},
{
name = topleft;
position = "{25, 515}";
}
);
hints = (
{
horizontal = 1;
origin = "{0, 13}";
target = up;
type = BottomGhost;
},
{
horizontal = 1;
origin = "{0, 1}";
target = "{0, 12}";
},
{
origin = "{0, 13}";
target = "{0, 0}";
},
{
origin = "{0, 6}";
target = "{0, 7}";
}
);
layerId = "67A5D7A9-2C6D-4B81-A947-AF9C36497881";
name = Regular;
paths = (
{
closed = 1;
nodes = (
"207 4 LINE",
"207 411 LINE",
"350 411 LINE SMOOTH",
"387 411 OFFCURVE",
"410 387 OFFCURVE",
"410 347 CURVE SMOOTH",
"410 -5 LINE",
"547 4 LINE",
"547 366 LINE SMOOTH",
"547 473 OFFCURVE",
"485 536 OFFCURVE",
"379 536 CURVE SMOOTH",
"70 536 LINE",
"70 -5 LINE"
);
}
);
width = 605;
}
);
leftKerningGroup = "het-hb";
note = het;
rightKerningGroup = "het-hb";
unicode = 05D7;
},
{
glyphname = "tet-hb";
lastChange = "2016-03-12 22:01:07 +0000";
layers = (
{
anchors = (
{
name = bottom;
position = "{270, 0}";
},
{
name = bottomleft;
position = "{20, 0}";
},
{
name = center;
position = "{299, 288}";
},
{
name = top;
position = "{296, 515}";
},
{
name = topleft;
position = "{30, 515}";
}
);
hints = (
{
horizontal = 1;
origin = "{0, 28}";
target = "{0, 21}";
},
{
horizontal = 1;
origin = "{0, 23}";
target = down;
type = TopGhost;
},
{
horizontal = 1;
origin = "{0, 15}";
target = "{0, 8}";
},
{
place = "{60.000000, 143.000000}";
},
{
origin = "{0, 18}";
target = "{0, 5}";
},
{
horizontal = 1;
origin = "{0, 12}";
target = up;
type = BottomGhost;
}
);
layerId = "67A5D7A9-2C6D-4B81-A947-AF9C36497881";
name = Regular;
paths = (
{
closed = 1;
nodes = (
"239 -6 OFFCURVE",
"318 11 OFFCURVE",
"375 40 CURVE SMOOTH",
"483 95 OFFCURVE",
"553 217 OFFCURVE",
"553 348 CURVE SMOOTH",
"553 473 OFFCURVE",
"488 547 OFFCURVE",
"381 547 CURVE SMOOTH",
"335 547 OFFCURVE",
"288 533 OFFCURVE",
"255 513 CURVE",
"287 406 LINE",
"310 414 OFFCURVE",
"328 419 OFFCURVE",
"347 419 CURVE SMOOTH",
"390 419 OFFCURVE",
"418 395 OFFCURVE",
"418 329 CURVE SMOOTH",
"418 208 OFFCURVE",
"334 126 OFFCURVE",
"215 126 CURVE",
"191 537 LINE",
"60 528 LINE",
"60 467 LINE",
"85 -4 LINE",
"105 -5 OFFCURVE",
"126 -6 OFFCURVE",
"148 -6 CURVE SMOOTH"
);
}
);
width = 591;
}
);
leftKerningGroup = "tet-hb";
note = tet;
rightKerningGroup = "tet-hb";
unicode = 05D8;
},
{
glyphname = "yod-hb";
lastChange = "2016-03-12 22:01:07 +0000";
layers = (
{
anchors = (
{
name = bottom;
position = "{193, 0}";
},
{
name = bottomleft;
position = "{20, 0}";
},
{
name = center;
position = "{33, 301}";
},
{
name = top;
position = "{163, 515}";
},
{
name = topleft;
position = "{-10, 515}";
}
);
hints = (
{
horizontal = 1;
origin = "{0, 3}";
target = "{0, 2}";
},
{
origin = "{0, 5}";
target = "{0, 0}";
}
);
layerId = "67A5D7A9-2C6D-4B81-A947-AF9C36497881";
name = Regular;
paths = (
{
closed = 1;
nodes = (
"266 201 LINE",
"266 536 LINE",
"24 536 LINE",
"24 411 LINE",
"127 411 LINE",
"127 192 LINE"
);
}
);
width = 326;
}
);
leftKerningGroup = "yod-hb";
note = yod;
rightKerningGroup = "yod-hb";
unicode = 05D9;
},
{
glyphname = "finalkaf-hb";
lastChange = "2016-03-12 22:01:07 +0000";
layers = (
{
anchors = (
{
name = bottom;
position = "{86, 384}";
},
{
name = bottomleft;
position = "{20, 0}";
},
{
name = center;
position = "{139, 258}";
},
{
name = top;
position = "{235, 515}";
},
{
name = topleft;
position = "{20, 515}";
}
);
hints = (
{
horizontal = 1;
origin = "{0, 6}";
target = "{0, 5}";
},
{
origin = "{0, 11}";
target = "{0, 0}";
},
{
horizontal = 1;
origin = "{0, 11}";
target = up;
type = BottomGhost;
}
);
layerId = "67A5D7A9-2C6D-4B81-A947-AF9C36497881";
name = Regular;
paths = (
{
closed = 1;
nodes = (
"412 -120 LINE",
"412 366 LINE SMOOTH",
"412 473 OFFCURVE",
"350 536 OFFCURVE",
"244 536 CURVE SMOOTH",
"26 536 LINE",
"26 411 LINE",
"215 411 LINE SMOOTH",
"252 411 OFFCURVE",
"275 387 OFFCURVE",
"275 347 CURVE SMOOTH",
"275 -129 LINE"
);
}
);
width = 470;
}
);
leftKerningGroup = "finalkaf-hb";
note = finalkaf;
rightKerningGroup = "finalkaf-hb";
unicode = 05DA;
},
{
glyphname = "kaf-hb";
lastChange = "2016-03-12 22:01:07 +0000";
layers = (
{
anchors = (
{
name = bottom;
position = "{230, 0}";
},
{
name = bottomleft;
position = "{20, 0}";
},
{
name = center;
position = "{162, 268}";
},
{
name = top;
position = "{252, 515}";
},
{
name = topleft;
position = "{20, 515}";
}
);
hints = (
{
horizontal = 1;
origin = "{0, 17}";
target = "{0, 16}";
},
{
horizontal = 1;
origin = "{0, 8}";
target = "{0, 7}";
},
{
origin = "{0, 12}";
target = "{0, 3}";
}
);
layerId = "67A5D7A9-2C6D-4B81-A947-AF9C36497881";
name = Regular;
paths = (
{
closed = 1;
nodes = (
"162 0 LINE SMOOTH",
"372 0 OFFCURVE",
"462 85 OFFCURVE",
"462 284 CURVE SMOOTH",
"462 456 OFFCURVE",
"386 536 OFFCURVE",
"222 536 CURVE SMOOTH",
"57 536 LINE",
"57 411 LINE",
"219 411 LINE SMOOTH",
"290 411 OFFCURVE",
"324 368 OFFCURVE",
"324 279 CURVE SMOOTH",
"324 171 OFFCURVE",
"282 125 OFFCURVE",
"182 125 CURVE SMOOTH",
"46 125 LINE",
"37 0 LINE"
);
}
);
width = 504;
}
);
leftKerningGroup = "kaf-hb";
note = kaf;
rightKerningGroup = "kaf-hb";
unicode = 05DB;
},
{
glyphname = "lamed-hb";
lastChange = "2016-03-12 22:01:07 +0000";
layers = (
{
anchors = (
{
name = bottom;
position = "{166, 0}";
},
{
name = bottomleft;
position = "{20, 0}";
},
{
name = center;
position = "{162, 310}";
},
{
name = top;
position = "{237, 515}";
},
{
name = topleft;
position = "{-70, 515}";
}
);
hints = (
{
horizontal = 1;
origin = "{0, 7}";
target = "{0, 4}";
},
{
horizontal = 1;
origin = "{0, 6}";
target = down;
type = TopGhost;
},
{
origin = "{0, 7}";
target = "{0, 4}";
},
{
origin = "{0, 9}";
target = "{0, 2}";
},
{
horizontal = 1;
origin = "{0, 15}";
target = up;
type = BottomGhost;
}
);
layerId = "67A5D7A9-2C6D-4B81-A947-AF9C36497881";
name = Regular;
paths = (
{
closed = 1;
nodes = (
"325 123 OFFCURVE",
"423 197 OFFCURVE",
"423 362 CURVE SMOOTH",
"423 536 LINE",
"168 536 LINE",
"168 676 LINE",
"31 676 LINE",
"31 411 LINE",
"286 411 LINE",
"286 342 LINE SMOOTH",
"286 259 OFFCURVE",
"217 216 OFFCURVE",
"77 82 CURVE",
"100 45 OFFCURVE",
"125 7 OFFCURVE",
"154 -30 CURVE"
);
}
);
width = 473;
}
);
leftKerningGroup = "lamed-hb";
note = lamed;
rightKerningGroup = "lamed-hb";
unicode = 05DC;
},
{
glyphname = "finalmem-hb";
lastChange = "2016-03-12 22:01:08 +0000";
layers = (
{
hints = (
{
horizontal = 1;
origin = "{0, 6}";
target = "{1, 6}";
},
{
horizontal = 1;
origin = "{1, 0}";
target = "{0, 5}";
},
{
origin = "{0, 6}";
target = "{1, 6}";
},
{
origin = "{1, 5}";
target = "{0, 0}";
}
);
layerId = "67A5D7A9-2C6D-4B81-A947-AF9C36497881";
name = Regular;
paths = (
{
closed = 1;
nodes = (
"551 0 LINE",
"551 366 LINE SMOOTH",
"551 473 OFFCURVE",
"489 536 OFFCURVE",
"383 536 CURVE SMOOTH",
"65 536 LINE",
"65 0 LINE"
);
},
{
closed = 1;
nodes = (
"202 411 LINE",
"354 411 LINE SMOOTH",
"391 411 OFFCURVE",
"414 387 OFFCURVE",
"414 347 CURVE SMOOTH",
"414 125 LINE",
"202 125 LINE"
);
}
);
width = 609;
}
);
leftKerningGroup = "finalmem-hb";
note = finalmem;
rightKerningGroup = "finalmem-hb";
unicode = 05DD;
},
{
glyphname = "mem-hb";
lastChange = "2016-03-12 22:01:07 +0000";
layers = (
{
anchors = (
{
name = bottom;
position = "{309, 0}";
},
{
name = bottomleft;
position = "{20, 0}";
},
{
name = center;
position = "{345, 268}";
},
{
name = top;
position = "{317, 515}";
},
{
name = topleft;
position = "{10, 515}";
}
);
hints = (
{
horizontal = 1;
origin = "{0, 18}";
target = up;
type = BottomGhost;
},
{
horizontal = 1;
origin = "{0, 1}";
target = "{0, 14}";
},
{
horizontal = 1;
origin = "{0, 8}";
target = "{0, 7}";
},
{
origin = "{0, 6}";
target = "{0, 9}";
},
{
horizontal = 1;
origin = "{0, 15}";
target = down;
type = TopGhost;
}
);
layerId = "67A5D7A9-2C6D-4B81-A947-AF9C36497881";
name = Regular;
paths = (
{
closed = 1;
nodes = (
"194 -3 LINE",
"281 413 LINE",
"353 413 LINE SMOOTH",
"406 413 OFFCURVE",
"438 380 OFFCURVE",
"438 326 CURVE SMOOTH",
"438 125 LINE",
"303 125 LINE",
"303 0 LINE",
"575 0 LINE",
"575 338 LINE SMOOTH",
"575 463 OFFCURVE",
"501 536 OFFCURVE",
"375 536 CURVE SMOOTH",
"148 536 LINE",
"68 551 LINE",
"42 431 LINE",
"141 410 LINE",
"51 -3 LINE"
);
}
);
width = 633;
}
);
leftKerningGroup = "mem-hb";
note = mem;
rightKerningGroup = "mem-hb";
unicode = 05DE;
},
{
glyphname = "finalnun-hb";
lastChange = "2016-03-12 22:01:07 +0000";
layers = (
{
hints = (
{
horizontal = 1;
origin = "{0, 3}";
target = "{0, 2}";
},
{
origin = "{0, 5}";
target = "{0, 0}";
}
);
layerId = "67A5D7A9-2C6D-4B81-A947-AF9C36497881";
name = Regular;
paths = (
{
closed = 1;
nodes = (
"266 -120 LINE",
"266 536 LINE",
"24 536 LINE",
"24 411 LINE",
"130 411 LINE",
"130 -129 LINE"
);
}
);
width = 330;
}
);
note = finalnun;
unicode = 05DF;
},
{
glyphname = "nun-hb";
lastChange = "2016-03-12 22:01:07 +0000";
layers = (
{
anchors = (
{
name = bottom;
position = "{171, 0}";
},
{
name = bottomleft;
position = "{20, 0}";
},
{
name = center;
position = "{85, 268}";
},
{
name = top;
position = "{195, 515}";
},
{
name = topleft;
position = "{20, 515}";
}
);
hints = (
{
horizontal = 1;
origin = "{0, 7}";
target = "{0, 6}";
},
{
horizontal = 1;
origin = "{0, 3}";
target = "{0, 2}";
},
{
origin = "{0, 5}";
target = "{0, 0}";
}
);
layerId = "67A5D7A9-2C6D-4B81-A947-AF9C36497881";
name = Regular;
paths = (
{
closed = 1;
nodes = (
"324 0 LINE",
"324 536 LINE",
"72 536 LINE",
"72 411 LINE",
"187 411 LINE",
"187 125 LINE",
"35 125 LINE",
"35 0 LINE"
);
}
);
width = 389;
}
);
leftKerningGroup = "nun-hb";
note = nun;
rightKerningGroup = "nun-hb";
unicode = 05E0;
},
{
glyphname = "samekh-hb";
lastChange = "2016-03-12 22:01:08 +0000";
layers = (
{
anchors = (
{
name = bottom;
position = "{280, 0}";
},
{
name = bottomleft;
position = "{20, 0}";
},
{
name = center;
position = "{326, 288}";
},
{
name = top;
position = "{308, 515}";
},
{
name = topleft;
position = "{10, 515}";
}
);
hints = (
{
horizontal = 1;
origin = "{0, 12}";
target = up;
type = BottomGhost;
},
{
horizontal = 1;
origin = "{0, 10}";
target = "{0, 9}";
},
{
place = "{102.500000, 130.000000}";
},
{
origin = "{1, 4}";
target = "{0, 5}";
},
{
horizontal = 1;
origin = "{0, 15}";
target = "{1, 7}";
}
);
layerId = "67A5D7A9-2C6D-4B81-A947-AF9C36497881";
name = Regular;
paths = (
{
closed = 1;
nodes = (
"262 -8 OFFCURVE",
"368 19 OFFCURVE",
"452 86 CURVE SMOOTH",
"532 152 OFFCURVE",
"578 246 OFFCURVE",
"578 351 CURVE SMOOTH",
"578 473 OFFCURVE",
"510 536 OFFCURVE",
"396 536 CURVE SMOOTH",
"25 536 LINE",
"25 411 LINE",
"96 411 LINE",
"109 -7 LINE",
"122 -8 OFFCURVE",
"134 -8 OFFCURVE",
"146 -8 CURVE SMOOTH"
);
},
{
closed = 1;
nodes = (
"227 411 LINE",
"365 411 LINE SMOOTH",
"411 411 OFFCURVE",
"439 392 OFFCURVE",
"439 337 CURVE SMOOTH",
"439 220 OFFCURVE",
"356 137 OFFCURVE",
"238 126 CURVE"
);
}
);
width = 616;
}
);
leftKerningGroup = "samekh-hb";
note = samekh;
rightKerningGroup = "samekh-hb";
unicode = 05E1;
},
{
glyphname = "ayin-hb";
lastChange = "2016-03-12 22:01:07 +0000";
layers = (
{
anchors = (
{
name = bottom;
position = "{277, 0}";
},
{
name = bottomleft;
position = "{20, 0}";
},
{
name = center;
position = "{308, 394}";
},
{
name = top;
position = "{281, 515}";
},
{
name = topleft;
position = "{40, 515}";
}
);
hints = (
{
origin = "{0, 11}";
target = "{0, 2}";
},
{
horizontal = 1;
origin = "{0, 26}";
target = down;
type = TopGhost;
},
{
horizontal = 1;
origin = "{0, 29}";
target = up;
type = BottomGhost;
}
);
layerId = "67A5D7A9-2C6D-4B81-A947-AF9C36497881";
name = Regular;
paths = (
{
closed = 1;
nodes = (
"401 13 OFFCURVE",
"514 108 OFFCURVE",
"514 407 CURVE SMOOTH",
"514 444 OFFCURVE",
"512 498 OFFCURVE",
"504 542 CURVE",
"453 538 OFFCURVE",
"409 532 OFFCURVE",
"367 521 CURVE",
"375 470 OFFCURVE",
"379 420 OFFCURVE",
"379 378 CURVE SMOOTH",
"379 266 OFFCURVE",
"359 202 OFFCURVE",
"303 160 CURVE",
"220 433 LINE SMOOTH",
"208 473 OFFCURVE",
"195 515 OFFCURVE",
"167 548 CURVE",
"127 533 OFFCURVE",
"84 514 OFFCURVE",
"43 490 CURVE",
"76 423 LINE",
"179 108 LINE",
"134 96 OFFCURVE",
"80 85 OFFCURVE",
"17 73 CURVE",
"21 31 OFFCURVE",
"27 -10 OFFCURVE",
"33 -52 CURVE"
);
}
);
width = 562;
}
);
note = ayin;
unicode = 05E2;
},
{
glyphname = "finalpe-hb";
lastChange = "2016-03-12 22:01:07 +0000";
layers = (
{
anchors = (
{
name = bottom;
position = "{273, 0}";
},
{
name = bottomleft;
position = "{20, 0}";
},
{
name = center;
position = "{273, 335}";
},
{
name = top;
position = "{273, 515}";
},
{
name = topleft;
position = "{20, 515}";
}
);
guideLines = (
{
position = "{169, 156}";
}
);
hints = (
{
horizontal = 1;
origin = "{0, 16}";
target = "{0, 10}";
},
{
origin = "{0, 21}";
target = "{0, 0}";
},
{
horizontal = 1;
origin = "{0, 21}";
target = up;
type = BottomGhost;
},
{
horizontal = 1;
origin = "{0, 13}";
target = up;
type = BottomGhost;
},
{
horizontal = 1;
origin = "{0, 12}";
target = "{0, 11}";
}
);
layerId = "67A5D7A9-2C6D-4B81-A947-AF9C36497881";
name = Regular;
paths = (
{
closed = 1;
nodes = (
"488 -120 LINE",
"488 366 LINE SMOOTH",
"488 472 OFFCURVE",
"426 535 OFFCURVE",
"320 536 CURVE SMOOTH",
"285 537 OFFCURVE",
"249 537 OFFCURVE",
"213 537 CURVE SMOOTH",
"177 537 OFFCURVE",
"141 537 OFFCURVE",
"106 536 CURVE",
"35 263 LINE",
"35 224 LINE",
"203 141 LINE",
"257 257 LINE",
"177 298 LINE",
"208 411 LINE",
"291 411 LINE SMOOTH",
"328 411 OFFCURVE",
"351 387 OFFCURVE",
"351 347 CURVE SMOOTH",
"351 -129 LINE"
);
}
);
width = 546;
}
);
note = finalpe;
unicode = 05E3;
},
{
glyphname = "pe-hb";
lastChange = "2016-03-12 22:01:07 +0000";
layers = (
{
anchors = (
{
name = bottom;
position = "{274, 0}";
},
{
name = bottomleft;
position = "{20, 0}";
},
{
name = center;
position = "{310, 199}";
},
{
name = top;
position = "{282, 515}";
},
{
name = topleft;
position = "{80, 515}";
}
);
hints = (
{
horizontal = 1;
origin = "{0, 30}";
target = "{0, 29}";
},
{
horizontal = 1;
origin = "{0, 21}";
target = "{0, 13}";
},
{
origin = "{0, 25}";
target = "{0, 0}";
},
{
horizontal = 1;
origin = "{0, 15}";
target = "{0, 14}";
},
{
horizontal = 1;
origin = "{0, 16}";
target = up;
type = BottomGhost;
}
);
layerId = "67A5D7A9-2C6D-4B81-A947-AF9C36497881";
name = Regular;
paths = (
{
closed = 1;
nodes = (
"512 0 LINE",
"512 47 LINE SMOOTH",
"512 167 OFFCURVE",
"506 301 OFFCURVE",
"498 372 CURVE SMOOTH",
"486 481 OFFCURVE",
"426 534 OFFCURVE",
"317 536 CURVE SMOOTH",
"283 537 OFFCURVE",
"249 537 OFFCURVE",
"215 537 CURVE SMOOTH",
"180 537 OFFCURVE",
"146 537 OFFCURVE",
"112 536 CURVE",
"57 299 LINE",
"57 269 LINE",
"230 180 LINE",
"246 215 OFFCURVE",
"262 253 OFFCURVE",
"276 294 CURVE",
"197 335 LINE",
"216 414 LINE",
"298 414 LINE SMOOTH",
"339 414 OFFCURVE",
"365 390 OFFCURVE",
"370 346 CURVE SMOOTH",
"379 262 OFFCURVE",
"382 198 OFFCURVE",
"383 122 CURVE",
"32 122 LINE",
"32 0 LINE"
);
}
);
width = 564;
}
);
leftKerningGroup = "pe-hb";
note = pe;
rightKerningGroup = "pe-hb";
unicode = 05E4;
},
{
glyphname = "finaltsadi-hb";
lastChange = "2016-03-12 22:01:07 +0000";
layers = (
{
hints = (
{
place = "{266.500000, 144.500000}";
},
{
origin = "{0, 18}";
target = "{0, 15}";
},
{
horizontal = 1;
origin = "{0, 27}";
target = down;
type = TopGhost;
},
{
horizontal = 1;
origin = "{0, 34}";
target = up;
type = BottomGhost;
}
);
layerId = "67A5D7A9-2C6D-4B81-A947-AF9C36497881";
name = Regular;
paths = (
{
closed = 1;
nodes = (
"406 -120 LINE",
"409 -80 OFFCURVE",
"411 -48 OFFCURVE",
"411 -20 CURVE SMOOTH",
"411 67 OFFCURVE",
"394 108 OFFCURVE",
"349 181 CURVE SMOOTH",
"337 200 OFFCURVE",
"326 217 OFFCURVE",
"308 244 CURVE",
"426 275 OFFCURVE",
"452 342 OFFCURVE",
"459 417 CURVE SMOOTH",
"461 439 OFFCURVE",
"465 502 OFFCURVE",
"466 538 CURVE",
"420 538 OFFCURVE",
"375 537 OFFCURVE",
"330 534 CURVE",
"328 479 OFFCURVE",
"322 411 OFFCURVE",
"316 382 CURVE SMOOTH",
"309 346 OFFCURVE",
"293 333 OFFCURVE",
"257 324 CURVE",
"206 405 OFFCURVE",
"180 452 OFFCURVE",
"135 550 CURVE",
"90 536 OFFCURVE",
"43 520 OFFCURVE",
"1 502 CURVE",
"58 345 OFFCURVE",
"239 125 OFFCURVE",
"267 46 CURVE",
"266 -129 LINE"
);
}
);
width = 509;
}
);
note = finaltsadi;
unicode = 05E5;
},
{
glyphname = "tsadi-hb";
lastChange = "2016-03-12 22:01:07 +0000";
layers = (
{
anchors = (
{
name = bottom;
position = "{247, 0}";
},
{
name = bottomleft;
position = "{20, 0}";
},
{
name = center;
position = "{89, 215}";
},
{
name = top;
position = "{258, 515}";
},
{
name = topleft;
position = "{48, 515}";
}
);
hints = (
{
horizontal = 1;
origin = "{0, 31}";
target = "{0, 30}";
},
{
place = "{338.000000, 133.000000}";
},
{
place = "{285.500000, 161.500000}";
},
{
horizontal = 1;
origin = "{0, 20}";
target = down;
type = TopGhost;
}
);
layerId = "67A5D7A9-2C6D-4B81-A947-AF9C36497881";
name = Regular;
paths = (
{
closed = 1;
nodes = (
"447 0 LINE",
"447 116 LINE",
"343 252 LINE",
"438 286 OFFCURVE",
"459 343 OFFCURVE",
"467 417 CURVE SMOOTH",
"470 453 OFFCURVE",
"474 502 OFFCURVE",
"475 538 CURVE",
"429 538 OFFCURVE",
"384 537 OFFCURVE",
"338 534 CURVE",
"336 481 OFFCURVE",
"330 411 OFFCURVE",
"324 382 CURVE",
"320 355 OFFCURVE",
"309 340 OFFCURVE",
"284 329 CURVE",
"231 408 OFFCURVE",
"186 481 OFFCURVE",
"148 551 CURVE",
"101 534 OFFCURVE",
"54 513 OFFCURVE",
"18 491 CURVE",
"64 407 OFFCURVE",
"116 323 OFFCURVE",
"179 241 CURVE",
"285 127 LINE",
"286 117 LINE",
"111 128 LINE",
"41 128 LINE",
"41 0 LINE"
);
}
);
width = 515;
}
);
leftKerningGroup = "tsadi-hb";
note = tsadi;
rightKerningGroup = "tsadi-hb";
unicode = 05E6;
},
{
glyphname = "qof-hb";
lastChange = "2016-03-12 22:01:08 +0000";
layers = (
{
anchors = (
{
name = bottom;
position = "{385, 0}";
},
{
name = bottomleft;
position = "{20, 0}";
},
{
name = center;
position = "{303, 311}";
},
{
name = top;
position = "{295, 515}";
},
{
name = topleft;
position = "{20, 515}";
}
);
hints = (
{
horizontal = 1;
origin = "{0, 5}";
target = "{0, 4}";
},
{
origin = "{1, 5}";
target = "{1, 0}";
},
{
origin = "{0, 7}";
target = "{0, 2}";
},
{
horizontal = 1;
origin = "{0, 13}";
target = up;
type = BottomGhost;
},
{
horizontal = 1;
origin = "{1, 5}";
target = up;
type = BottomGhost;
},
{
horizontal = 1;
origin = "{1, 1}";
target = down;
type = TopGhost;
}
);
layerId = "67A5D7A9-2C6D-4B81-A947-AF9C36497881";
name = Regular;
paths = (
{
closed = 1;
nodes = (
"475 128 OFFCURVE",
"538 187 OFFCURVE",
"538 339 CURVE SMOOTH",
"538 536 LINE",
"60 536 LINE",
"60 411 LINE",
"401 411 LINE",
"401 308 LINE SMOOTH",
"401 249 OFFCURVE",
"360 202 OFFCURVE",
"269 86 CURVE",
"296 48 OFFCURVE",
"325 12 OFFCURVE",
"356 -22 CURVE"
);
},
{
closed = 1;
nodes = (
"204 -120 LINE",
"204 290 LINE",
"158 289 OFFCURVE",
"111 285 OFFCURVE",
"65 281 CURVE",
"65 -129 LINE"
);
}
);
width = 590;
}
);
leftKerningGroup = "qof-hb";
note = qof;
rightKerningGroup = "qof-hb";
unicode = 05E7;
},
{
glyphname = "resh-hb";
lastChange = "2016-03-12 22:01:07 +0000";
layers = (
{
anchors = (
{
name = bottom;
position = "{342, 0}";
},
{
name = bottomleft;
position = "{20, 0}";
},
{
name = center;
position = "{134, 258}";
},
{
name = top;
position = "{234, 515}";
},
{
name = topleft;
position = "{0, 515}";
}
);
hints = (
{
horizontal = 1;
origin = "{0, 11}";
target = up;
type = BottomGhost;
},
{
horizontal = 1;
origin = "{0, 6}";
target = "{0, 5}";
},
{
origin = "{0, 11}";
target = "{0, 0}";
}
);
layerId = "67A5D7A9-2C6D-4B81-A947-AF9C36497881";
name = Regular;
paths = (
{
closed = 1;
nodes = (
"410 4 LINE",
"410 366 LINE SMOOTH",
"410 473 OFFCURVE",
"348 536 OFFCURVE",
"242 536 CURVE SMOOTH",
"25 536 LINE",
"25 411 LINE",
"213 411 LINE SMOOTH",
"250 411 OFFCURVE",
"273 386 OFFCURVE",
"273 347 CURVE SMOOTH",
"273 -5 LINE"
);
}
);
width = 468;
}
);
leftKerningGroup = "resh-hb";
note = resh;
rightKerningGroup = "resh-hb";
unicode = 05E8;
},
{
glyphname = "shin-hb";
lastChange = "2016-03-12 22:01:07 +0000";
layers = (
{
anchors = (
{
name = bottom;
position = "{329, 0}";
},
{
name = bottomleft;
position = "{20, 0}";
},
{
name = center;
position = "{398, 209}";
},
{
name = top;
position = "{369, 515}";
},
{
name = topleft;
position = "{112, 515}";
},
{
name = topright;
position = "{627, 515}";
}
);
hints = (
{
horizontal = 1;
origin = "{0, 31}";
target = "{0, 15}";
},
{
horizontal = 1;
origin = "{0, 26}";
target = down;
type = TopGhost;
},
{
place = "{58.000000, 141.000000}";
},
{
origin = "{0, 21}";
target = "{0, 19}";
},
{
origin = "{0, 9}";
target = "{0, 2}";
},
{
horizontal = 1;
origin = "{0, 25}";
target = down;
type = TopGhost;
}
);
layerId = "67A5D7A9-2C6D-4B81-A947-AF9C36497881";
name = Regular;
paths = (
{
closed = 1;
nodes = (
"542 -15 OFFCURVE",
"692 118 OFFCURVE",
"692 461 CURVE SMOOTH",
"692 486 OFFCURVE",
"692 512 OFFCURVE",
"690 539 CURVE",
"552 528 LINE",
"552 514 OFFCURVE",
"553 502 OFFCURVE",
"553 489 CURVE SMOOTH",
"553 472 OFFCURVE",
"552 453 OFFCURVE",
"551 428 CURVE SMOOTH",
"540 168 OFFCURVE",
"437 110 OFFCURVE",
"222 112 CURVE",
"215 213 LINE",
"396 236 OFFCURVE",
"450 313 OFFCURVE",
"446 539 CURVE",
"312 528 LINE",
"312 497 LINE SMOOTH",
"312 352 OFFCURVE",
"297 328 OFFCURVE",
"208 306 CURVE",
"190 539 LINE",
"58 528 LINE",
"58 467 LINE",
"92 -14 LINE",
"116 -15 OFFCURVE",
"138 -15 OFFCURVE",
"160 -15 CURVE SMOOTH"
);
}
);
width = 737;
}
);
leftKerningGroup = "shin-hb";
note = shin;
rightKerningGroup = "shin-hb";
unicode = 05E9;
},
{
glyphname = "tav-hb";
lastChange = "2016-03-12 22:01:07 +0000";
layers = (
{
anchors = (
{
name = bottom;
position = "{342, 0}";
},
{
name = bottomleft;
position = "{20, 0}";
},
{
name = center;
position = "{373, 258}";
},
{
name = top;
position = "{328, 515}";
},
{
name = topleft;
position = "{0, 515}";
}
);
background = {
paths = (
{
closed = 1;
nodes = (
"31 520 LINE",
"31 428 LINE",
"135 428 LINE",
"135 135 LINE SMOOTH",
"135 108 OFFCURVE",
"114 87 OFFCURVE",
"87 87 CURVE SMOOTH",
"31 87 LINE",
"31 0 LINE",
"110 0 LINE SMOOTH",
"180 0 OFFCURVE",
"232 58 OFFCURVE",
"232 132 CURVE SMOOTH",
"232 428 LINE",
"382 428 LINE",
"434 428 OFFCURVE",
"469 393 OFFCURVE",
"469 341 CURVE SMOOTH",
"469 0 LINE",
"566 0 LINE",
"566 341 LINE SMOOTH",
"566 457 OFFCURVE",
"503 520 OFFCURVE",
"387 520 CURVE"
);
}
);
};
hints = (
{
horizontal = 1;
origin = "{0, 29}";
target = "{0, 20}";
},
{
horizontal = 1;
origin = "{0, 15}";
target = "{0, 14}";
},
{
horizontal = 1;
origin = "{0, 8}";
target = up;
type = BottomGhost;
},
{
horizontal = 1;
origin = "{0, 26}";
target = down;
type = TopGhost;
},
{
origin = "{0, 17}";
target = "{0, 2}";
},
{
origin = "{0, 8}";
target = "{0, 9}";
},
{
horizontal = 1;
origin = "{0, 23}";
target = down;
type = TopGhost;
}
);
layerId = "67A5D7A9-2C6D-4B81-A947-AF9C36497881";
name = Regular;
paths = (
{
closed = 1;
nodes = (
"235 -11 OFFCURVE",
"285 37 OFFCURVE",
"285 150 CURVE SMOOTH",
"285 411 LINE",
"401 411 LINE SMOOTH",
"438 411 OFFCURVE",
"461 386 OFFCURVE",
"461 347 CURVE SMOOTH",
"461 -5 LINE",
"598 4 LINE",
"598 366 LINE SMOOTH",
"598 473 OFFCURVE",
"536 536 OFFCURVE",
"430 536 CURVE SMOOTH",
"37 536 LINE",
"37 411 LINE",
"148 411 LINE",
"148 173 LINE SMOOTH",
"148 133 OFFCURVE",
"130 113 OFFCURVE",
"92 113 CURVE SMOOTH",
"83 113 OFFCURVE",
"67 114 OFFCURVE",
"52 116 CURVE",
"38 75 OFFCURVE",
"27 36 OFFCURVE",
"20 -1 CURVE",
"54 -8 OFFCURVE",
"93 -11 OFFCURVE",
"121 -11 CURVE SMOOTH"
);
}
);
width = 656;
}
);
leftKerningGroup = "tav-hb";
note = tav;
rightKerningGroup = "tav-hb";
unicode = 05EA;
},
{
glyphname = "pedagesh-hb";
lastChange = "2016-03-12 22:01:08 +0000";
layers = (
{
hints = (
{
horizontal = 1;
origin = "{0, 30}";
target = "{0, 29}";
},
{
horizontal = 1;
origin = "{0, 21}";
target = "{0, 13}";
},
{
horizontal = 1;
origin = "{1, 11}";
target = "{1, 5}";
},
{
origin = "{0, 25}";
target = "{0, 0}";
},
{
origin = "{1, 8}";
target = "{1, 2}";
},
{
horizontal = 1;
origin = "{0, 16}";
target = up;
type = BottomGhost;
},
{
horizontal = 1;
origin = "{0, 15}";
target = "{0, 14}";
}
);
layerId = "67A5D7A9-2C6D-4B81-A947-AF9C36497881";
name = Regular;
paths = (
{
closed = 1;
nodes = (
"512 0 LINE",
"512 47 LINE SMOOTH",
"512 167 OFFCURVE",
"506 301 OFFCURVE",
"498 372 CURVE SMOOTH",
"486 481 OFFCURVE",
"426 534 OFFCURVE",
"317 536 CURVE SMOOTH",
"283 537 OFFCURVE",
"249 537 OFFCURVE",
"215 537 CURVE SMOOTH",
"180 537 OFFCURVE",
"146 537 OFFCURVE",
"112 536 CURVE",
"57 299 LINE",
"57 269 LINE",
"202 194 LINE",
"219 231 OFFCURVE",
"235 270 OFFCURVE",
"248 309 CURVE",
"197 335 LINE",
"216 414 LINE",
"298 414 LINE SMOOTH",
"339 414 OFFCURVE",
"365 390 OFFCURVE",
"370 346 CURVE SMOOTH",
"379 262 OFFCURVE",
"382 198 OFFCURVE",
"383 122 CURVE",
"32 122 LINE",
"32 0 LINE"
);
},
{
closed = 1;
nodes = (
"325 160 OFFCURVE",
"348 183 OFFCURVE",
"348 211 CURVE SMOOTH",
"348 241 OFFCURVE",
"325 264 OFFCURVE",
"296 264 CURVE SMOOTH",
"266 264 OFFCURVE",
"243 241 OFFCURVE",
"243 211 CURVE SMOOTH",
"243 183 OFFCURVE",
"266 160 OFFCURVE",
"296 160 CURVE SMOOTH"
);
}
);
width = 564;
}
);
leftKerningGroup = "pe-hb";
rightKerningGroup = "pe-hb";
unicode = FB44;
},
{
glyphname = zero;
lastChange = "2016-03-12 22:01:08 +0000";
layers = (
{
hints = (
{
horizontal = 1;
origin = "{0, 11}";
target = "{1, 11}";
},
{
horizontal = 1;
origin = "{0, 5}";
target = "{1, 5}";
},
{
origin = "{0, 8}";
target = "{1, 2}";
},
{
origin = "{1, 8}";
target = "{0, 2}";
}
);
layerId = "67A5D7A9-2C6D-4B81-A947-AF9C36497881";
name = Regular;
paths = (
{
closed = 1;
nodes = (
"454 -15 OFFCURVE",
"546 106 OFFCURVE",
"546 332 CURVE SMOOTH",
"546 558 OFFCURVE",
"454 680 OFFCURVE",
"293 680 CURVE SMOOTH",
"132 680 OFFCURVE",
"40 559 OFFCURVE",
"40 333 CURVE SMOOTH",
"40 107 OFFCURVE",
"132 -15 OFFCURVE",
"293 -15 CURVE SMOOTH"
);
},
{
closed = 1;
nodes = (
"224 111 OFFCURVE",
"183 195 OFFCURVE",
"183 335 CURVE SMOOTH",
"183 475 OFFCURVE",
"224 555 OFFCURVE",
"293 555 CURVE SMOOTH",
"362 555 OFFCURVE",
"403 471 OFFCURVE",
"403 331 CURVE SMOOTH",
"403 191 OFFCURVE",
"362 111 OFFCURVE",
"293 111 CURVE SMOOTH"
);
}
);
width = 586;
}
);
unicode = 0030;
},
{
glyphname = one;
lastChange = "2016-03-12 22:01:07 +0000";
layers = (
{
hints = (
{
horizontal = 1;
origin = "{0, 10}";
target = "{0, 9}";
},
{
horizontal = 1;
origin = "{0, 4}";
target = down;
type = TopGhost;
},
{
origin = "{0, 8}";
target = "{0, 2}";
},
{
horizontal = 1;
origin = "{0, 6}";
target = "{0, 5}";
},
{
horizontal = 1;
origin = "{0, 4}";
target = "{0, 7}";
}
);
layerId = "67A5D7A9-2C6D-4B81-A947-AF9C36497881";
name = Regular;
paths = (
{
closed = 1;
nodes = (
"406 0 LINE",
"416 121 LINE",
"305 121 LINE",
"305 671 LINE",
"228 671 LINE",
"48 581 LINE",
"48 532 LINE",
"165 485 LINE",
"165 121 LINE",
"50 121 LINE",
"40 0 LINE"
);
}
);
width = 438;
}
);
unicode = 0031;
},
{
glyphname = two;
lastChange = "2016-03-12 22:01:07 +0000";
layers = (
{
hints = (
{
horizontal = 1;
origin = "{0, 22}";
target = "{0, 2}";
},
{
horizontal = 1;
origin = "{0, 8}";
target = "{0, 15}";
},
{
origin = "{0, 18}";
target = "{0, 5}";
},
{
horizontal = 1;
origin = "{0, 12}";
target = up;
type = BottomGhost;
}
);
layerId = "67A5D7A9-2C6D-4B81-A947-AF9C36497881";
name = Regular;
paths = (
{
closed = 1;
nodes = (
"455 0 LINE",
"466 129 LINE",
"233 129 LINE",
"387 282 OFFCURVE",
"465 384 OFFCURVE",
"465 494 CURVE SMOOTH",
"465 611 OFFCURVE",
"378 681 OFFCURVE",
"262 681 CURVE SMOOTH",
"173 681 OFFCURVE",
"91 640 OFFCURVE",
"28 548 CURVE",
"131 475 LINE",
"165 523 OFFCURVE",
"204 550 OFFCURVE",
"247 550 CURVE SMOOTH",
"291 550 OFFCURVE",
"321 521 OFFCURVE",
"321 476 CURVE SMOOTH",
"321 401 OFFCURVE",
"241 311 OFFCURVE",
"48 105 CURVE",
"48 0 LINE"
);
}
);
width = 517;
}
);
unicode = 0032;
},
{
glyphname = three;
lastChange = "2016-03-12 22:01:07 +0000";
layers = (
{
hints = (
{
horizontal = 1;
origin = "{0, 41}";
target = "{0, 34}";
},
{
horizontal = 1;
origin = "{0, 11}";
target = "{0, 18}";
},
{
horizontal = 1;
origin = "{0, 38}";
target = down;
type = TopGhost;
},
{
origin = "{0, 31}";
target = "{0, 2}";
},
{
origin = "{0, 21}";
target = "{0, 8}";
},
{
horizontal = 1;
origin = "{0, 28}";
target = "{0, 24}";
},
{
horizontal = 1;
origin = "{0, 15}";
target = up;
type = BottomGhost;
}
);
layerId = "67A5D7A9-2C6D-4B81-A947-AF9C36497881";
name = Regular;
paths = (
{
closed = 1;
nodes = (
"308 -15 OFFCURVE",
"441 95 OFFCURVE",
"441 238 CURVE SMOOTH",
"441 308 OFFCURVE",
"408 366 OFFCURVE",
"345 396 CURVE",
"390 439 OFFCURVE",
"410 485 OFFCURVE",
"410 530 CURVE SMOOTH",
"410 616 OFFCURVE",
"337 681 OFFCURVE",
"225 681 CURVE SMOOTH",
"144 681 OFFCURVE",
"70 647 OFFCURVE",
"15 593 CURVE",
"99 501 LINE",
"134 539 OFFCURVE",
"176 560 OFFCURVE",
"213 560 CURVE SMOOTH",
"250 560 OFFCURVE",
"274 540 OFFCURVE",
"274 511 CURVE SMOOTH",
"274 462 OFFCURVE",
"207 411 OFFCURVE",
"147 392 CURVE",
"167 296 LINE",
"188 303 OFFCURVE",
"206 306 OFFCURVE",
"222 306 CURVE SMOOTH",
"271 306 OFFCURVE",
"298 277 OFFCURVE",
"298 231 CURVE SMOOTH",
"298 158 OFFCURVE",
"230 108 OFFCURVE",
"122 108 CURVE SMOOTH",
"92 108 OFFCURVE",
"57 112 OFFCURVE",
"22 118 CURVE",
"4 -6 LINE",
"40 -12 OFFCURVE",
"76 -15 OFFCURVE",
"109 -15 CURVE SMOOTH"
);
}
);
width = 486;
}
);
unicode = 0033;
},
{
glyphname = four;
lastChange = "2016-03-12 22:01:08 +0000";
layers = (
{
hints = (
{
horizontal = 1;
origin = "{0, 10}";
target = up;
type = BottomGhost;
},
{
horizontal = 1;
origin = "{0, 8}";
target = "{1, 2}";
},
{
horizontal = 1;
origin = "{0, 6}";
target = down;
type = TopGhost;
},
{
origin = "{0, 10}";
target = "{0, 0}";
}
);
layerId = "67A5D7A9-2C6D-4B81-A947-AF9C36497881";
name = Regular;
paths = (
{
closed = 1;
nodes = (
"457 0 LINE",
"457 150 LINE",
"524 150 LINE",
"534 262 LINE",
"457 262 LINE",
"457 666 LINE",
"325 666 LINE",
"25 253 LINE",
"35 150 LINE",
"326 150 LINE",
"326 0 LINE"
);
},
{
closed = 1;
nodes = (
"326 492 LINE",
"326 262 LINE",
"170 262 LINE"
);
}
);
width = 574;
}
);
unicode = 0034;
},
{
glyphname = five;
lastChange = "2016-03-12 22:01:07 +0000";
layers = (
{
hints = (
{
horizontal = 1;
origin = "{0, 30}";
target = "{0, 23}";
},
{
horizontal = 1;
origin = "{0, 17}";
target = "{0, 5}";
},
{
horizontal = 1;
origin = "{0, 12}";
target = "{0, 9}";
},
{
horizontal = 1;
origin = "{0, 27}";
target = down;
type = TopGhost;
},
{
place = "{76.500000, 122.500000}";
},
{
origin = "{0, 20}";
target = "{0, 2}";
}
);
layerId = "67A5D7A9-2C6D-4B81-A947-AF9C36497881";
name = Regular;
paths = (
{
closed = 1;
nodes = (
"314 -15 OFFCURVE",
"446 94 OFFCURVE",
"446 243 CURVE SMOOTH",
"446 365 OFFCURVE",
"363 439 OFFCURVE",
"240 439 CURVE SMOOTH",
"224 439 OFFCURVE",
"209 438 OFFCURVE",
"196 435 CURVE",
"202 548 LINE",
"418 548 LINE",
"426 666 LINE",
"86 666 LINE",
"67 346 LINE",
"123 305 LINE",
"150 318 OFFCURVE",
"182 325 OFFCURVE",
"211 325 CURVE SMOOTH",
"271 325 OFFCURVE",
"303 296 OFFCURVE",
"303 240 CURVE SMOOTH",
"303 162 OFFCURVE",
"235 108 OFFCURVE",
"128 108 CURVE SMOOTH",
"98 108 OFFCURVE",
"63 112 OFFCURVE",
"28 118 CURVE",
"10 -6 LINE",
"46 -12 OFFCURVE",
"82 -15 OFFCURVE",
"115 -15 CURVE SMOOTH"
);
}
);
width = 491;
}
);
unicode = 0035;
},
{
glyphname = six;
lastChange = "2016-03-12 22:01:08 +0000";
layers = (
{
hints = (
{
horizontal = 1;
origin = "{0, 24}";
target = "{1, 14}";
},
{
horizontal = 1;
origin = "{1, 8}";
target = "{0, 5}";
},
{
horizontal = 1;
origin = "{0, 18}";
target = "{0, 11}";
},
{
horizontal = 1;
origin = "{0, 15}";
target = up;
type = BottomGhost;
},
{
origin = "{0, 21}";
target = "{1, 2}";
},
{
origin = "{1, 11}";
target = "{0, 2}";
}
);
layerId = "67A5D7A9-2C6D-4B81-A947-AF9C36497881";
name = Regular;
paths = (
{
closed = 1;
nodes = (
"403 -16 OFFCURVE",
"497 70 OFFCURVE",
"497 224 CURVE SMOOTH",
"497 352 OFFCURVE",
"432 429 OFFCURVE",
"314 429 CURVE SMOOTH",
"278 429 OFFCURVE",
"237 422 OFFCURVE",
"190 406 CURVE",
"208 520 OFFCURVE",
"261 561 OFFCURVE",
"351 561 CURVE SMOOTH",
"376 561 OFFCURVE",
"403 558 OFFCURVE",
"433 554 CURVE",
"438 670 LINE",
"403 678 OFFCURVE",
"369 681 OFFCURVE",
"342 681 CURVE SMOOTH",
"139 681 OFFCURVE",
"45 515 OFFCURVE",
"45 282 CURVE SMOOTH",
"45 61 OFFCURVE",
"130 -16 OFFCURVE",
"263 -16 CURVE SMOOTH"
);
},
{
closed = 1;
nodes = (
"212 101 OFFCURVE",
"180 159 OFFCURVE",
"180 242 CURVE SMOOTH",
"180 257 OFFCURVE",
"181 273 OFFCURVE",
"182 291 CURVE",
"225 308 OFFCURVE",
"260 316 OFFCURVE",
"285 316 CURVE SMOOTH",
"340 316 OFFCURVE",
"361 274 OFFCURVE",
"361 213 CURVE SMOOTH",
"361 136 OFFCURVE",
"327 101 OFFCURVE",
"277 101 CURVE SMOOTH"
);
}
);
width = 542;
}
);
unicode = 0036;
},
{
glyphname = seven;
lastChange = "2016-03-12 22:01:07 +0000";
layers = (
{
hints = (
{
horizontal = 1;
origin = "{0, 2}";
target = "{0, 3}";
},
{
origin = "{0, 3}";
target = "{0, 0}";
},
{
horizontal = 1;
origin = "{0, 6}";
target = up;
type = BottomGhost;
},
{
horizontal = 1;
origin = "{0, 5}";
target = up;
type = BottomGhost;
}
);
layerId = "67A5D7A9-2C6D-4B81-A947-AF9C36497881";
name = Regular;
paths = (
{
closed = 1;
nodes = (
"438 560 LINE",
"438 666 LINE",
"36 666 LINE",
"26 547 LINE",
"301 547 LINE",
"79 10 LINE",
"226 -20 LINE"
);
}
);
width = 473;
}
);
unicode = 0037;
},
{
glyphname = eight;
lastChange = "2016-03-12 22:01:08 +0000";
layers = (
{
hints = (
{
horizontal = 1;
origin = "{0, 23}";
target = "{1, 11}";
},
{
horizontal = 1;
origin = "{0, 11}";
target = "{2, 5}";
},
{
origin = "{0, 20}";
target = "{1, 2}";
},
{
origin = "{1, 8}";
target = "{0, 2}";
},
{
origin = "{0, 14}";
target = "{2, 2}";
},
{
origin = "{2, 8}";
target = "{0, 8}";
}
);
layerId = "67A5D7A9-2C6D-4B81-A947-AF9C36497881";
name = Regular;
paths = (
{
closed = 1;
nodes = (
"426 -15 OFFCURVE",
"516 66 OFFCURVE",
"516 186 CURVE SMOOTH",
"516 270 OFFCURVE",
"472 319 OFFCURVE",
"417 354 CURVE",
"462 396 OFFCURVE",
"492 451 OFFCURVE",
"492 513 CURVE SMOOTH",
"492 621 OFFCURVE",
"399 681 OFFCURVE",
"285 681 CURVE SMOOTH",
"168 681 OFFCURVE",
"69 619 OFFCURVE",
"69 502 CURVE SMOOTH",
"69 447 OFFCURVE",
"91 400 OFFCURVE",
"133 361 CURVE",
"74 320 OFFCURVE",
"43 257 OFFCURVE",
"43 182 CURVE SMOOTH",
"43 59 OFFCURVE",
"126 -15 OFFCURVE",
"273 -15 CURVE SMOOTH"
);
},
{
closed = 1;
nodes = (
"215 102 OFFCURVE",
"175 136 OFFCURVE",
"175 194 CURVE SMOOTH",
"175 230 OFFCURVE",
"190 270 OFFCURVE",
"225 302 CURVE",
"302 265 OFFCURVE",
"380 243 OFFCURVE",
"380 175 CURVE SMOOTH",
"380 130 OFFCURVE",
"345 102 OFFCURVE",
"283 102 CURVE SMOOTH"
);
},
{
closed = 1;
nodes = (
"259 431 OFFCURVE",
"205 456 OFFCURVE",
"205 506 CURVE SMOOTH",
"205 547 OFFCURVE",
"241 565 OFFCURVE",
"278 565 CURVE SMOOTH",
"317 565 OFFCURVE",
"360 544 OFFCURVE",
"360 491 CURVE SMOOTH",
"360 460 OFFCURVE",
"346 426 OFFCURVE",
"322 403 CURVE"
);
}
);
width = 561;
}
);
unicode = 0038;
},
{
glyphname = nine;
lastChange = "2016-03-12 22:01:08 +0000";
layers = (
{
hints = (
{
horizontal = 1;
origin = "{0, 24}";
target = "{0, 17}";
},
{
horizontal = 1;
origin = "{0, 11}";
target = "{1, 14}";
},
{
horizontal = 1;
origin = "{0, 5}";
target = "{1, 5}";
},
{
horizontal = 1;
origin = "{0, 21}";
target = down;
type = TopGhost;
},
{
origin = "{0, 8}";
target = "{1, 2}";
},
{
origin = "{1, 8}";
target = "{0, 2}";
}
);
layerId = "67A5D7A9-2C6D-4B81-A947-AF9C36497881";
name = Regular;
paths = (
{
closed = 1;
nodes = (
"403 -16 OFFCURVE",
"497 150 OFFCURVE",
"497 383 CURVE SMOOTH",
"497 604 OFFCURVE",
"412 681 OFFCURVE",
"279 681 CURVE SMOOTH",
"139 681 OFFCURVE",
"45 595 OFFCURVE",
"45 441 CURVE SMOOTH",
"45 313 OFFCURVE",
"110 236 OFFCURVE",
"228 236 CURVE SMOOTH",
"264 236 OFFCURVE",
"305 243 OFFCURVE",
"352 259 CURVE",
"334 145 OFFCURVE",
"281 104 OFFCURVE",
"191 104 CURVE SMOOTH",
"166 104 OFFCURVE",
"139 107 OFFCURVE",
"109 111 CURVE",
"104 -5 LINE",
"139 -13 OFFCURVE",
"173 -16 OFFCURVE",
"200 -16 CURVE SMOOTH"
);
},
{
closed = 1;
nodes = (
"202 349 OFFCURVE",
"181 391 OFFCURVE",
"181 452 CURVE SMOOTH",
"181 529 OFFCURVE",
"215 564 OFFCURVE",
"265 564 CURVE SMOOTH",
"330 564 OFFCURVE",
"362 506 OFFCURVE",
"362 423 CURVE SMOOTH",
"362 408 OFFCURVE",
"361 392 OFFCURVE",
"360 374 CURVE",
"317 357 OFFCURVE",
"282 349 OFFCURVE",
"257 349 CURVE SMOOTH"
);
}
);
width = 542;
}
);
unicode = 0039;
},
{
glyphname = zero.osf;
lastChange = "2016-03-12 22:01:08 +0000";
layers = (
{
hints = (
{
horizontal = 1;
origin = "{0, 11}";
target = "{1, 11}";
},
{
horizontal = 1;
origin = "{1, 5}";
target = "{0, 5}";
},
{
origin = "{0, 8}";
target = "{1, 2}";
},
{
origin = "{1, 8}";
target = "{0, 2}";
}
);
layerId = "67A5D7A9-2C6D-4B81-A947-AF9C36497881";
name = Regular;
paths = (
{
closed = 1;
nodes = (
"452 -15 OFFCURVE",
"541 89 OFFCURVE",
"541 274 CURVE SMOOTH",
"541 456 OFFCURVE",
"452 559 OFFCURVE",
"293 559 CURVE SMOOTH",
"134 559 OFFCURVE",
"45 456 OFFCURVE",
"45 273 CURVE SMOOTH",
"45 89 OFFCURVE",
"134 -15 OFFCURVE",
"293 -15 CURVE SMOOTH"
);
},
{
closed = 1;
nodes = (
"228 100 OFFCURVE",
"190 164 OFFCURVE",
"190 275 CURVE SMOOTH",
"190 385 OFFCURVE",
"228 445 OFFCURVE",
"293 445 CURVE SMOOTH",
"358 445 OFFCURVE",
"395 385 OFFCURVE",
"395 275 CURVE SMOOTH",
"395 164 OFFCURVE",
"358 100 OFFCURVE",
"293 100 CURVE SMOOTH"
);
}
);
width = 586;
}
);
},
{
glyphname = one.osf;
lastChange = "2016-03-12 22:01:07 +0000";
layers = (
{
hints = (
{
horizontal = 1;
origin = "{0, 10}";
target = "{0, 9}";
},
{
origin = "{0, 8}";
target = "{0, 2}";
},
{
horizontal = 1;
origin = "{0, 6}";
target = "{0, 5}";
},
{
horizontal = 1;
origin = "{0, 7}";
target = "{0, 4}";
}
);
layerId = "67A5D7A9-2C6D-4B81-A947-AF9C36497881";
name = Regular;
paths = (
{
closed = 1;
nodes = (
"393 0 LINE",
"403 121 LINE",
"290 121 LINE",
"290 546 LINE",
"228 546 LINE",
"58 472 LINE",
"58 423 LINE",
"154 391 LINE",
"154 121 LINE",
"50 121 LINE",
"40 0 LINE"
);
}
);
width = 418;
}
);
},
{
glyphname = two.osf;
lastChange = "2016-03-12 22:01:07 +0000";
layers = (
{
hints = (
{
horizontal = 1;
origin = "{0, 22}";
target = "{0, 2}";
},
{
horizontal = 1;
origin = "{0, 15}";
target = "{0, 8}";
},
{
origin = "{0, 18}";
target = "{0, 5}";
},
{
horizontal = 1;
origin = "{0, 12}";
target = up;
type = BottomGhost;
}
);
layerId = "67A5D7A9-2C6D-4B81-A947-AF9C36497881";
name = Regular;
paths = (
{
closed = 1;
nodes = (
"408 0 LINE",
"418 118 LINE",
"213 118 LINE",
"364 233 OFFCURVE",
"423 305 OFFCURVE",
"423 394 CURVE SMOOTH",
"423 496 OFFCURVE",
"345 559 OFFCURVE",
"234 559 CURVE SMOOTH",
"150 559 OFFCURVE",
"63 523 OFFCURVE",
"20 459 CURVE",
"120 382 LINE",
"153 418 OFFCURVE",
"191 439 OFFCURVE",
"226 439 CURVE SMOOTH",
"261 439 OFFCURVE",
"283 418 OFFCURVE",
"283 387 CURVE SMOOTH",
"283 333 OFFCURVE",
"215 257 OFFCURVE",
"36 96 CURVE",
"36 0 LINE"
);
}
);
width = 468;
}
);
},
{
glyphname = three.osf;
lastChange = "2016-03-12 22:01:07 +0000";
layers = (
{
hints = (
{
horizontal = 1;
origin = "{0, 44}";
target = "{0, 37}";
},
{
horizontal = 1;
origin = "{0, 18}";
target = "{0, 11}";
},
{
origin = "{0, 34}";
target = "{0, 2}";
},
{
origin = "{0, 21}";
target = "{0, 8}";
},
{
horizontal = 1;
origin = "{0, 15}";
target = up;
type = BottomGhost;
},
{
horizontal = 1;
origin = "{0, 31}";
target = "{0, 27}";
}
);
layerId = "67A5D7A9-2C6D-4B81-A947-AF9C36497881";
name = Regular;
paths = (
{
closed = 1;
nodes = (
"306 -137 OFFCURVE",
"441 -31 OFFCURVE",
"441 114 CURVE SMOOTH",
"441 186 OFFCURVE",
"408 240 OFFCURVE",
"353 270 CURVE",
"392 312 OFFCURVE",
"410 359 OFFCURVE",
"410 403 CURVE SMOOTH",
"410 492 OFFCURVE",
"336 559 OFFCURVE",
"226 559 CURVE SMOOTH",
"146 559 OFFCURVE",
"73 525 OFFCURVE",
"15 471 CURVE",
"99 379 LINE",
"134 420 OFFCURVE",
"176 443 OFFCURVE",
"212 443 CURVE SMOOTH",
"247 443 OFFCURVE",
"270 423 OFFCURVE",
"270 393 CURVE SMOOTH",
"270 360 OFFCURVE",
"243 321 OFFCURVE",
"198 292 CURVE SMOOTH",
"177 279 OFFCURVE",
"153 266 OFFCURVE",
"124 258 CURVE",
"142 162 LINE",
"173 168 OFFCURVE",
"200 176 OFFCURVE",
"225 186 CURVE",
"272 182 OFFCURVE",
"298 155 OFFCURVE",
"298 109 CURVE SMOOTH",
"298 34 OFFCURVE",
"229 -20 OFFCURVE",
"120 -20 CURVE SMOOTH",
"90 -20 OFFCURVE",
"55 -16 OFFCURVE",
"20 -10 CURVE",
"0 -128 LINE",
"36 -134 OFFCURVE",
"72 -137 OFFCURVE",
"105 -137 CURVE SMOOTH"
);
}
);
width = 486;
}
);
},
{
glyphname = four.osf;
lastChange = "2016-03-12 22:01:08 +0000";
layers = (
{
hints = (
{
horizontal = 1;
origin = "{0, 8}";
target = "{1, 2}";
},
{
origin = "{0, 10}";
target = "{0, 0}";
},
{
horizontal = 1;
origin = "{0, 10}";
target = up;
type = BottomGhost;
}
);
layerId = "67A5D7A9-2C6D-4B81-A947-AF9C36497881";
name = Regular;
paths = (
{
closed = 1;
nodes = (
"478 -159 LINE",
"478 0 LINE",
"548 0 LINE",
"558 118 LINE",
"478 118 LINE",
"478 546 LINE",
"339 546 LINE",
"25 109 LINE",
"36 0 LINE",
"341 0 LINE",
"341 -159 LINE"
);
},
{
closed = 1;
nodes = (
"341 362 LINE",
"341 118 LINE",
"177 118 LINE"
);
}
);
width = 588;
}
);
},
{
glyphname = five.osf;
lastChange = "2016-03-12 22:01:07 +0000";
layers = (
{
hints = (
{
horizontal = 1;
origin = "{0, 23}";
target = "{0, 30}";
},
{
horizontal = 1;
origin = "{0, 17}";
target = "{0, 5}";
},
{
horizontal = 1;
origin = "{0, 9}";
target = "{0, 12}";
},
{
place = "{75.500000, 122.500000}";
},
{
origin = "{0, 20}";
target = "{0, 2}";
},
{
horizontal = 1;
origin = "{0, 14}";
target = up;
type = BottomGhost;
}
);
layerId = "67A5D7A9-2C6D-4B81-A947-AF9C36497881";
name = Regular;
paths = (
{
closed = 1;
nodes = (
"314 -137 OFFCURVE",
"446 -29 OFFCURVE",
"446 123 CURVE SMOOTH",
"446 243 OFFCURVE",
"363 317 OFFCURVE",
"238 317 CURVE SMOOTH",
"224 317 OFFCURVE",
"209 316 OFFCURVE",
"195 313 CURVE",
"201 418 LINE",
"412 418 LINE",
"420 536 LINE",
"84 536 LINE",
"67 224 LINE",
"123 183 LINE",
"150 196 OFFCURVE",
"182 203 OFFCURVE",
"211 203 CURVE SMOOTH",
"272 203 OFFCURVE",
"303 173 OFFCURVE",
"303 119 CURVE SMOOTH",
"303 39 OFFCURVE",
"235 -14 OFFCURVE",
"128 -14 CURVE SMOOTH",
"98 -14 OFFCURVE",
"63 -10 OFFCURVE",
"28 -4 CURVE",
"10 -128 LINE",
"46 -134 OFFCURVE",
"82 -137 OFFCURVE",
"115 -137 CURVE SMOOTH"
);
}
);
width = 491;
}
);
},
{
glyphname = six.osf;
lastChange = "2016-03-12 22:01:08 +0000";
layers = (
{
hints = (
{
horizontal = 1;
origin = "{0, 24}";
target = "{1, 14}";
},
{
horizontal = 1;
origin = "{1, 8}";
target = "{0, 5}";
},
{
horizontal = 1;
origin = "{0, 18}";
target = "{0, 11}";
},
{
horizontal = 1;
origin = "{0, 15}";
target = up;
type = BottomGhost;
},
{
origin = "{0, 21}";
target = "{1, 2}";
},
{
origin = "{1, 11}";
target = "{0, 2}";
}
);
layerId = "67A5D7A9-2C6D-4B81-A947-AF9C36497881";
name = Regular;
paths = (
{
closed = 1;
nodes = (
"421 -16 OFFCURVE",
"516 70 OFFCURVE",
"516 224 CURVE SMOOTH",
"516 352 OFFCURVE",
"451 429 OFFCURVE",
"331 429 CURVE SMOOTH",
"295 429 OFFCURVE",
"254 422 OFFCURVE",
"206 406 CURVE",
"224 520 OFFCURVE",
"278 561 OFFCURVE",
"369 561 CURVE SMOOTH",
"394 561 OFFCURVE",
"421 558 OFFCURVE",
"452 554 CURVE",
"457 670 LINE",
"421 678 OFFCURVE",
"387 681 OFFCURVE",
"360 681 CURVE SMOOTH",
"155 681 OFFCURVE",
"60 515 OFFCURVE",
"60 282 CURVE SMOOTH",
"60 61 OFFCURVE",
"146 -16 OFFCURVE",
"280 -16 CURVE SMOOTH"
);
},
{
closed = 1;
nodes = (
"228 101 OFFCURVE",
"196 159 OFFCURVE",
"196 242 CURVE SMOOTH",
"196 257 OFFCURVE",
"197 273 OFFCURVE",
"198 291 CURVE",
"242 308 OFFCURVE",
"277 316 OFFCURVE",
"302 316 CURVE SMOOTH",
"358 316 OFFCURVE",
"379 274 OFFCURVE",
"379 213 CURVE SMOOTH",
"379 136 OFFCURVE",
"345 101 OFFCURVE",
"294 101 CURVE SMOOTH"
);
}
);
width = 576;
}
);
},
{
glyphname = seven.osf;
lastChange = "2016-03-12 22:01:07 +0000";
layers = (
{
hints = (
{
horizontal = 1;
origin = "{0, 3}";
target = "{0, 2}";
},
{
origin = "{0, 3}";
target = "{0, 0}";
},
{
horizontal = 1;
origin = "{0, 6}";
target = up;
type = BottomGhost;
},
{
horizontal = 1;
origin = "{0, 5}";
target = up;
type = BottomGhost;
}
);
layerId = "67A5D7A9-2C6D-4B81-A947-AF9C36497881";
name = Regular;
paths = (
{
closed = 1;
nodes = (
"443 430 LINE",
"443 536 LINE",
"41 536 LINE",
"30 416 LINE",
"305 416 LINE",
"84 -116 LINE",
"231 -146 LINE"
);
}
);
width = 483;
}
);
},
{
glyphname = eight.osf;
lastChange = "2016-03-12 22:01:08 +0000";
layers = (
{
hints = (
{
horizontal = 1;
origin = "{0, 23}";
target = "{1, 11}";
},
{
horizontal = 1;
origin = "{0, 11}";
target = "{2, 5}";
},
{
origin = "{0, 20}";
target = "{1, 2}";
},
{
origin = "{1, 8}";
target = "{0, 2}";
},
{
origin = "{0, 14}";
target = "{2, 2}";
},
{
origin = "{2, 8}";
target = "{0, 8}";
}
);
layerId = "67A5D7A9-2C6D-4B81-A947-AF9C36497881";
name = Regular;
paths = (
{
closed = 1;
nodes = (
"438 -15 OFFCURVE",
"528 66 OFFCURVE",
"528 186 CURVE SMOOTH",
"528 270 OFFCURVE",
"484 319 OFFCURVE",
"429 354 CURVE",
"474 396 OFFCURVE",
"504 451 OFFCURVE",
"504 513 CURVE SMOOTH",
"504 621 OFFCURVE",
"411 681 OFFCURVE",
"297 681 CURVE SMOOTH",
"180 681 OFFCURVE",
"81 619 OFFCURVE",
"81 502 CURVE SMOOTH",
"81 447 OFFCURVE",
"103 400 OFFCURVE",
"145 361 CURVE",
"86 320 OFFCURVE",
"55 257 OFFCURVE",
"55 182 CURVE SMOOTH",
"55 59 OFFCURVE",
"138 -15 OFFCURVE",
"285 -15 CURVE SMOOTH"
);
},
{
closed = 1;
nodes = (
"227 102 OFFCURVE",
"187 136 OFFCURVE",
"187 194 CURVE SMOOTH",
"187 230 OFFCURVE",
"202 270 OFFCURVE",
"237 302 CURVE",
"314 265 OFFCURVE",
"392 243 OFFCURVE",
"392 175 CURVE SMOOTH",
"392 130 OFFCURVE",
"357 102 OFFCURVE",
"295 102 CURVE SMOOTH"
);
},
{
closed = 1;
nodes = (
"271 431 OFFCURVE",
"217 456 OFFCURVE",
"217 506 CURVE SMOOTH",
"217 547 OFFCURVE",
"253 565 OFFCURVE",
"290 565 CURVE SMOOTH",
"329 565 OFFCURVE",
"372 544 OFFCURVE",
"372 491 CURVE SMOOTH",
"372 460 OFFCURVE",
"358 426 OFFCURVE",
"334 403 CURVE"
);
}
);
width = 583;
}
);
},
{
glyphname = nine.osf;
lastChange = "2016-03-12 22:01:08 +0000";
layers = (
{
hints = (
{
horizontal = 1;
origin = "{0, 24}";
target = "{0, 17}";
},
{
horizontal = 1;
origin = "{0, 11}";
target = "{1, 14}";
},
{
horizontal = 1;
origin = "{1, 5}";
target = "{0, 5}";
},
{
origin = "{0, 8}";
target = "{1, 2}";
},
{
origin = "{1, 8}";
target = "{0, 2}";
}
);
layerId = "67A5D7A9-2C6D-4B81-A947-AF9C36497881";
name = Regular;
paths = (
{
closed = 1;
nodes = (
"411 -138 OFFCURVE",
"506 28 OFFCURVE",
"506 261 CURVE SMOOTH",
"506 482 OFFCURVE",
"420 559 OFFCURVE",
"286 559 CURVE SMOOTH",
"145 559 OFFCURVE",
"50 473 OFFCURVE",
"50 319 CURVE SMOOTH",
"50 191 OFFCURVE",
"115 114 OFFCURVE",
"235 114 CURVE SMOOTH",
"271 114 OFFCURVE",
"312 121 OFFCURVE",
"360 137 CURVE",
"342 23 OFFCURVE",
"288 -18 OFFCURVE",
"197 -18 CURVE SMOOTH",
"172 -18 OFFCURVE",
"145 -15 OFFCURVE",
"114 -11 CURVE",
"109 -127 LINE",
"145 -135 OFFCURVE",
"179 -138 OFFCURVE",
"206 -138 CURVE SMOOTH"
);
},
{
closed = 1;
nodes = (
"208 227 OFFCURVE",
"187 269 OFFCURVE",
"187 330 CURVE SMOOTH",
"187 407 OFFCURVE",
"221 442 OFFCURVE",
"272 442 CURVE SMOOTH",
"338 442 OFFCURVE",
"370 384 OFFCURVE",
"370 301 CURVE SMOOTH",
"370 286 OFFCURVE",
"369 270 OFFCURVE",
"368 252 CURVE",
"324 235 OFFCURVE",
"289 227 OFFCURVE",
"264 227 CURVE SMOOTH"
);
}
);
width = 566;
}
);
},
{
glyphname = fraction;
lastChange = "2016-03-12 22:01:07 +0000";
layers = (
{
hints = (
{
horizontal = 1;
origin = "{0, 3}";
target = up;
type = BottomGhost;
},
{
horizontal = 1;
origin = "{0, 1}";
target = down;
type = TopGhost;
},
{
horizontal = 1;
origin = "{0, 2}";
target = up;
type = BottomGhost;
}
);
layerId = "67A5D7A9-2C6D-4B81-A947-AF9C36497881";
name = Regular;
paths = (
{
closed = 1;
nodes = (
"564 663 LINE",
"496 671 LINE",
"45 -1 LINE",
"112 -10 LINE"
);
}
);
width = 609;
}
);
unicode = 2044;
},
{
glyphname = onehalf;
lastChange = "2016-03-12 22:01:08 +0000";
layers = (
{
hints = (
{
horizontal = 1;
origin = "{0, 3}";
target = up;
type = BottomGhost;
},
{
horizontal = 1;
origin = "{1, 10}";
target = "{1, 9}";
},
{
horizontal = 1;
origin = "{0, 1}";
target = down;
type = TopGhost;
},
{
horizontal = 1;
origin = "{2, 22}";
target = "{2, 2}";
},
{
horizontal = 1;
origin = "{1, 4}";
target = down;
type = TopGhost;
},
{
horizontal = 1;
origin = "{2, 15}";
target = "{2, 8}";
},
{
origin = "{1, 8}";
target = "{1, 2}";
},
{
origin = "{2, 18}";
target = "{2, 1}";
},
{
horizontal = 1;
origin = "{2, 12}";
target = up;
type = BottomGhost;
},
{
horizontal = 1;
origin = "{1, 6}";
target = "{1, 5}";
},
{
horizontal = 1;
origin = "{1, 4}";
target = "{1, 7}";
}
);
layerId = "67A5D7A9-2C6D-4B81-A947-AF9C36497881";
name = Regular;
paths = (
{
closed = 1;
nodes = (
"709 663 LINE",
"641 671 LINE",
"190 -1 LINE",
"257 -10 LINE"
);
},
{
closed = 1;
nodes = (
"287 294 LINE",
"292 362 LINE",
"230 362 LINE",
"230 668 LINE",
"189 668 LINE",
"100 618 LINE",
"100 591 LINE",
"155 564 LINE",
"155 362 LINE",
"96 362 LINE",
"91 294 LINE"
);
},
{
closed = 1;
nodes = (
"817 0 LINE",
"824 72 LINE",
"695 72 LINE",
"780 157 OFFCURVE",
"824 213 OFFCURVE",
"824 275 CURVE SMOOTH",
"824 340 OFFCURVE",
"775 378 OFFCURVE",
"711 378 CURVE SMOOTH",
"661 378 OFFCURVE",
"616 356 OFFCURVE",
"581 305 CURVE",
"637 262 LINE",
"657 288 OFFCURVE",
"679 303 OFFCURVE",
"702 303 CURVE SMOOTH",
"727 303 OFFCURVE",
"744 288 OFFCURVE",
"744 263 CURVE SMOOTH",
"744 222 OFFCURVE",
"699 172 OFFCURVE",
"592 58 CURVE",
"592 0 LINE"
);
}
);
width = 914;
}
);
leftKerningGroup = onehalf;
rightKerningGroup = onehalf;
unicode = 00BD;
},
{
glyphname = onethird;
lastChange = "2016-03-12 22:01:08 +0000";
layers = (
{
hints = (
{
horizontal = 1;
origin = "{2, 41}";
target = "{2, 34}";
},
{
horizontal = 1;
origin = "{1, 10}";
target = "{1, 9}";
},
{
horizontal = 1;
origin = "{0, 1}";
target = down;
type = TopGhost;
},
{
horizontal = 1;
origin = "{0, 2}";
target = up;
type = BottomGhost;
},
{
horizontal = 1;
origin = "{1, 4}";
target = down;
type = TopGhost;
},
{
horizontal = 1;
origin = "{2, 18}";
target = "{2, 11}";
},
{
horizontal = 1;
origin = "{2, 38}";
target = down;
type = TopGhost;
},
{
origin = "{1, 8}";
target = "{1, 2}";
},
{
origin = "{2, 31}";
target = "{2, 2}";
},
{
origin = "{2, 21}";
target = "{2, 8}";
},
{
horizontal = 1;
origin = "{2, 15}";
target = up;
type = BottomGhost;
},
{
horizontal = 1;
origin = "{1, 6}";
target = "{1, 5}";
},
{
horizontal = 1;
origin = "{1, 4}";
target = "{1, 7}";
}
);
layerId = "67A5D7A9-2C6D-4B81-A947-AF9C36497881";
name = Regular;
paths = (
{
closed = 1;
nodes = (
"708 663 LINE",
"640 671 LINE",
"189 -1 LINE",
"256 -10 LINE"
);
},
{
closed = 1;
nodes = (
"286 294 LINE",
"291 362 LINE",
"229 362 LINE",
"229 668 LINE",
"188 668 LINE",
"99 618 LINE",
"99 591 LINE",
"154 564 LINE",
"154 362 LINE",
"95 362 LINE",
"90 294 LINE"
);
},
{
closed = 1;
nodes = (
"726 -8 OFFCURVE",
"800 53 OFFCURVE",
"800 133 CURVE SMOOTH",
"800 172 OFFCURVE",
"782 204 OFFCURVE",
"747 221 CURVE",
"772 244 OFFCURVE",
"783 270 OFFCURVE",
"783 295 CURVE SMOOTH",
"783 343 OFFCURVE",
"742 379 OFFCURVE",
"680 379 CURVE SMOOTH",
"635 379 OFFCURVE",
"594 360 OFFCURVE",
"563 330 CURVE",
"610 279 LINE",
"629 300 OFFCURVE",
"653 312 OFFCURVE",
"673 312 CURVE SMOOTH",
"694 312 OFFCURVE",
"707 301 OFFCURVE",
"707 285 CURVE SMOOTH",
"707 257 OFFCURVE",
"670 229 OFFCURVE",
"637 218 CURVE",
"648 165 LINE",
"659 169 OFFCURVE",
"669 171 OFFCURVE",
"678 171 CURVE SMOOTH",
"705 171 OFFCURVE",
"720 155 OFFCURVE",
"720 129 CURVE SMOOTH",
"720 88 OFFCURVE",
"683 61 OFFCURVE",
"623 61 CURVE SMOOTH",
"606 61 OFFCURVE",
"587 63 OFFCURVE",
"567 66 CURVE",
"557 -3 LINE",
"577 -6 OFFCURVE",
"597 -8 OFFCURVE",
"615 -8 CURVE SMOOTH"
);
}
);
width = 890;
}
);
leftKerningGroup = onehalf;
rightKerningGroup = onehalf;
unicode = 2153;
},
{
glyphname = onequarter;
lastChange = "2016-03-12 22:01:08 +0000";
layers = (
{
hints = (
{
horizontal = 1;
origin = "{0, 3}";
target = up;
type = BottomGhost;
},
{
horizontal = 1;
origin = "{1, 10}";
target = "{1, 9}";
},
{
horizontal = 1;
origin = "{0, 1}";
target = down;
type = TopGhost;
},
{
horizontal = 1;
origin = "{2, 10}";
target = "{3, 2}";
},
{
horizontal = 1;
origin = "{1, 4}";
target = down;
type = TopGhost;
},
{
horizontal = 1;
origin = "{3, 2}";
target = "{2, 8}";
},
{
origin = "{1, 8}";
target = "{1, 2}";
},
{
origin = "{2, 10}";
target = "{2, 0}";
},
{
horizontal = 1;
origin = "{1, 6}";
target = "{1, 5}";
},
{
horizontal = 1;
origin = "{1, 4}";
target = "{1, 7}";
},
{
horizontal = 1;
origin = "{2, 5}";
target = down;
type = TopGhost;
}
);
layerId = "67A5D7A9-2C6D-4B81-A947-AF9C36497881";
name = Regular;
paths = (
{
closed = 1;
nodes = (
"710 663 LINE",
"642 671 LINE",
"191 -1 LINE",
"258 -10 LINE"
);
},
{
closed = 1;
nodes = (
"288 294 LINE",
"293 362 LINE",
"231 362 LINE",
"231 668 LINE",
"190 668 LINE",
"101 618 LINE",
"101 591 LINE",
"156 564 LINE",
"156 362 LINE",
"97 362 LINE",
"92 294 LINE"
);
},
{
closed = 1;
nodes = (
"756 0 LINE",
"756 86 LINE",
"793 86 LINE",
"800 148 LINE",
"756 148 LINE",
"756 373 LINE",
"683 373 LINE",
"516 143 LINE",
"522 86 LINE",
"683 86 LINE",
"683 0 LINE"
);
},
{
closed = 1;
nodes = (
"683 276 LINE",
"683 148 LINE",
"597 148 LINE"
);
}
);
width = 890;
}
);
leftKerningGroup = onehalf;
rightKerningGroup = onehalf;
unicode = 00BC;
},
{
glyphname = threequarters;
lastChange = "2016-03-12 22:01:08 +0000";
layers = (
{
hints = (
{
horizontal = 1;
origin = "{2, 10}";
target = "{3, 2}";
},
{
horizontal = 1;
origin = "{1, 41}";
target = "{1, 34}";
},
{
horizontal = 1;
origin = "{1, 5}";
target = up;
type = BottomGhost;
},
{
horizontal = 1;
origin = "{1, 11}";
target = "{1, 18}";
},
{
horizontal = 1;
origin = "{0, 3}";
target = up;
type = BottomGhost;
},
{
horizontal = 1;
origin = "{0, 1}";
target = down;
type = TopGhost;
},
{
horizontal = 1;
origin = "{3, 2}";
target = "{2, 8}";
},
{
origin = "{1, 31}";
target = "{1, 2}";
},
{
origin = "{2, 10}";
target = "{2, 0}";
},
{
origin = "{1, 21}";
target = "{1, 8}";
},
{
horizontal = 1;
origin = "{2, 5}";
target = down;
type = TopGhost;
},
{
horizontal = 1;
origin = "{1, 15}";
target = up;
type = BottomGhost;
},
{
horizontal = 1;
origin = "{1, 28}";
target = "{1, 24}";
}
);
layerId = "67A5D7A9-2C6D-4B81-A947-AF9C36497881";
name = Regular;
paths = (
{
closed = 1;
nodes = (
"728 663 LINE",
"660 671 LINE",
"209 -1 LINE",
"276 -10 LINE"
);
},
{
closed = 1;
nodes = (
"260 287 OFFCURVE",
"334 348 OFFCURVE",
"334 428 CURVE SMOOTH",
"334 467 OFFCURVE",
"316 499 OFFCURVE",
"281 516 CURVE",
"306 539 OFFCURVE",
"317 565 OFFCURVE",
"317 590 CURVE SMOOTH",
"317 638 OFFCURVE",
"276 674 OFFCURVE",
"214 674 CURVE SMOOTH",
"169 674 OFFCURVE",
"128 655 OFFCURVE",
"97 625 CURVE",
"144 574 LINE",
"163 595 OFFCURVE",
"187 607 OFFCURVE",
"207 607 CURVE SMOOTH",
"228 607 OFFCURVE",
"241 596 OFFCURVE",
"241 580 CURVE SMOOTH",
"241 552 OFFCURVE",
"204 524 OFFCURVE",
"171 513 CURVE",
"182 460 LINE",
"193 464 OFFCURVE",
"203 466 OFFCURVE",
"212 466 CURVE SMOOTH",
"239 466 OFFCURVE",
"254 450 OFFCURVE",
"254 424 CURVE SMOOTH",
"254 383 OFFCURVE",
"217 356 OFFCURVE",
"157 356 CURVE SMOOTH",
"140 356 OFFCURVE",
"121 358 OFFCURVE",
"101 361 CURVE",
"91 292 LINE",
"111 289 OFFCURVE",
"131 287 OFFCURVE",
"149 287 CURVE SMOOTH"
);
},
{
closed = 1;
nodes = (
"774 0 LINE",
"774 86 LINE",
"811 86 LINE",
"818 148 LINE",
"774 148 LINE",
"774 373 LINE",
"701 373 LINE",
"534 143 LINE",
"540 86 LINE",
"701 86 LINE",
"701 0 LINE"
);
},
{
closed = 1;
nodes = (
"701 276 LINE",
"701 148 LINE",
"615 148 LINE"
);
}
);
width = 908;
}
);
leftKerningGroup = onehalf;
rightKerningGroup = onehalf;
unicode = 00BE;
},
{
glyphname = onesuperior;
lastChange = "2016-03-12 22:01:07 +0000";
layers = (
{
hints = (
{
horizontal = 1;
origin = "{0, 10}";
target = "{0, 9}";
},
{
horizontal = 1;
origin = "{0, 5}";
target = down;
type = TopGhost;
},
{
horizontal = 1;
origin = "{0, 4}";
target = down;
type = TopGhost;
},
{
origin = "{0, 8}";
target = "{0, 2}";
},
{
horizontal = 1;
origin = "{0, 5}";
target = "{0, 6}";
},
{
horizontal = 1;
origin = "{0, 4}";
target = "{0, 7}";
}
);
layerId = "67A5D7A9-2C6D-4B81-A947-AF9C36497881";
name = Regular;
paths = (
{
closed = 1;
nodes = (
"287 356 LINE",
"292 424 LINE",
"230 424 LINE",
"230 730 LINE",
"189 730 LINE",
"100 680 LINE",
"100 653 LINE",
"155 626 LINE",
"155 424 LINE",
"96 424 LINE",
"91 356 LINE"
);
}
);
width = 382;
}
);
unicode = 00B9;
},
{
glyphname = twosuperior;
lastChange = "2016-03-12 22:01:07 +0000";
layers = (
{
hints = (
{
horizontal = 1;
origin = "{0, 22}";
target = "{0, 2}";
},
{
horizontal = 1;
origin = "{0, 8}";
target = "{0, 15}";
},
{
origin = "{0, 18}";
target = "{0, 1}";
},
{
horizontal = 1;
origin = "{0, 12}";
target = up;
type = BottomGhost;
}
);
layerId = "67A5D7A9-2C6D-4B81-A947-AF9C36497881";
name = Regular;
paths = (
{
closed = 1;
nodes = (
"316 356 LINE",
"323 428 LINE",
"194 428 LINE",
"279 513 OFFCURVE",
"323 569 OFFCURVE",
"323 631 CURVE SMOOTH",
"323 696 OFFCURVE",
"274 734 OFFCURVE",
"210 734 CURVE SMOOTH",
"160 734 OFFCURVE",
"115 712 OFFCURVE",
"80 661 CURVE",
"136 618 LINE",
"156 644 OFFCURVE",
"178 659 OFFCURVE",
"201 659 CURVE SMOOTH",
"226 659 OFFCURVE",
"243 644 OFFCURVE",
"243 619 CURVE SMOOTH",
"243 578 OFFCURVE",
"198 528 OFFCURVE",
"91 414 CURVE",
"91 356 LINE"
);
}
);
width = 403;
}
);
unicode = 00B2;
},
{
glyphname = threesuperior;
lastChange = "2016-03-12 22:01:07 +0000";
layers = (
{
hints = (
{
horizontal = 1;
origin = "{0, 41}";
target = "{0, 34}";
},
{
horizontal = 1;
origin = "{0, 18}";
target = "{0, 11}";
},
{
origin = "{0, 31}";
target = "{0, 2}";
},
{
origin = "{0, 21}";
target = "{0, 8}";
},
{
horizontal = 1;
origin = "{0, 28}";
target = "{0, 24}";
},
{
horizontal = 1;
origin = "{0, 15}";
target = up;
type = BottomGhost;
}
);
layerId = "67A5D7A9-2C6D-4B81-A947-AF9C36497881";
name = Regular;
paths = (
{
closed = 1;
nodes = (
"233 347 OFFCURVE",
"307 408 OFFCURVE",
"307 488 CURVE SMOOTH",
"307 527 OFFCURVE",
"289 559 OFFCURVE",
"254 576 CURVE",
"279 599 OFFCURVE",
"290 625 OFFCURVE",
"290 650 CURVE SMOOTH",
"290 698 OFFCURVE",
"249 734 OFFCURVE",
"187 734 CURVE SMOOTH",
"142 734 OFFCURVE",
"101 715 OFFCURVE",
"70 685 CURVE",
"117 634 LINE",
"136 655 OFFCURVE",
"160 667 OFFCURVE",
"180 667 CURVE SMOOTH",
"201 667 OFFCURVE",
"214 656 OFFCURVE",
"214 640 CURVE SMOOTH",
"214 612 OFFCURVE",
"177 584 OFFCURVE",
"144 573 CURVE",
"155 520 LINE",
"166 524 OFFCURVE",
"176 526 OFFCURVE",
"185 526 CURVE SMOOTH",
"212 526 OFFCURVE",
"227 510 OFFCURVE",
"227 484 CURVE SMOOTH",
"227 443 OFFCURVE",
"190 416 OFFCURVE",
"130 416 CURVE SMOOTH",
"113 416 OFFCURVE",
"94 418 OFFCURVE",
"74 421 CURVE",
"64 352 LINE",
"84 349 OFFCURVE",
"104 347 OFFCURVE",
"122 347 CURVE SMOOTH"
);
}
);
width = 387;
}
);
unicode = 00B3;
},
{
glyphname = asterisk;
lastChange = "2016-03-12 22:01:07 +0000";
layers = (
{
hints = (
{
horizontal = 1;
origin = "{0, 4}";
target = up;
type = BottomGhost;
},
{
horizontal = 1;
origin = "{0, 5}";
target = down;
type = TopGhost;
},
{
horizontal = 1;
origin = "{0, 6}";
target = down;
type = TopGhost;
},
{
horizontal = 1;
origin = "{0, 14}";
target = up;
type = BottomGhost;
},
{
origin = "{0, 9}";
target = "{0, 2}";
}
);
layerId = "67A5D7A9-2C6D-4B81-A947-AF9C36497881";
name = Regular;
paths = (
{
closed = 1;
nodes = (
"420 280 LINE",
"361 420 LINE",
"508 419 LINE",
"502 548 LINE",
"353 529 LINE",
"402 675 LINE",
"281 709 LINE",
"252 559 LINE",
"131 648 LINE",
"62 540 LINE",
"192 465 LINE",
"68 374 LINE",
"146 274 LINE",
"260 381 LINE",
"302 234 LINE"
);
}
);
width = 570;
}
);
unicode = 002A;
},
{
glyphname = backslash;
lastChange = "2016-03-12 22:01:07 +0000";
layers = (
{
hints = (
{
horizontal = 1;
origin = "{0, 3}";
target = up;
type = BottomGhost;
},
{
horizontal = 1;
origin = "{0, 2}";
target = down;
type = TopGhost;
}
);
layerId = "67A5D7A9-2C6D-4B81-A947-AF9C36497881";
name = Regular;
paths = (
{
closed = 1;
nodes = (
"489 0 LINE",
"132 675 LINE",
"-2 675 LINE",
"356 0 LINE"
);
}
);
width = 488;
}
);
unicode = 005C;
},
{
glyphname = periodcentered;
lastChange = "2016-03-12 22:01:07 +0000";
layers = (
{
hints = (
{
horizontal = 1;
origin = "{0, 11}";
target = "{0, 5}";
},
{
origin = "{0, 8}";
target = "{0, 2}";
}
);
layerId = "67A5D7A9-2C6D-4B81-A947-AF9C36497881";
name = Regular;
paths = (
{
closed = 1;
nodes = (
"205 186 OFFCURVE",
"249 230 OFFCURVE",
"249 283 CURVE SMOOTH",
"249 336 OFFCURVE",
"205 379 OFFCURVE",
"152 379 CURVE SMOOTH",
"99 379 OFFCURVE",
"55 336 OFFCURVE",
"55 283 CURVE SMOOTH",
"55 230 OFFCURVE",
"99 186 OFFCURVE",
"152 186 CURVE SMOOTH"
);
}
);
width = 306;
}
);
unicode = 00B7;
},
{
glyphname = bullet;
lastChange = "2016-03-12 22:01:07 +0000";
layers = (
{
hints = (
{
horizontal = 1;
origin = "{0, 11}";
target = "{0, 5}";
},
{
origin = "{0, 8}";
target = "{0, 2}";
}
);
layerId = "67A5D7A9-2C6D-4B81-A947-AF9C36497881";
name = Regular;
paths = (
{
closed = 1;
nodes = (
"304 145 OFFCURVE",
"364 206 OFFCURVE",
"364 279 CURVE SMOOTH",
"364 351 OFFCURVE",
"303 412 OFFCURVE",
"231 412 CURVE SMOOTH",
"158 412 OFFCURVE",
"97 352 OFFCURVE",
"97 279 CURVE SMOOTH",
"97 206 OFFCURVE",
"157 145 OFFCURVE",
"231 145 CURVE SMOOTH"
);
}
);
width = 463;
}
);
unicode = 2022;
},
{
glyphname = colon;
lastChange = "2016-03-12 22:01:08 +0000";
layers = (
{
hints = (
{
horizontal = 1;
origin = "{1, 11}";
target = "{1, 5}";
},
{
horizontal = 1;
origin = "{0, 11}";
target = "{0, 5}";
},
{
origin = "{1, 8}";
target = "{1, 2}";
}
);
layerId = "67A5D7A9-2C6D-4B81-A947-AF9C36497881";
name = Regular;
paths = (
{
closed = 1;
nodes = (
"249 339 OFFCURVE",
"296 386 OFFCURVE",
"296 442 CURVE SMOOTH",
"296 498 OFFCURVE",
"249 544 OFFCURVE",
"193 544 CURVE SMOOTH",
"136 544 OFFCURVE",
"90 498 OFFCURVE",
"90 442 CURVE SMOOTH",
"90 386 OFFCURVE",
"136 339 OFFCURVE",
"193 339 CURVE SMOOTH"
);
},
{
closed = 1;
nodes = (
"249 -24 OFFCURVE",
"296 23 OFFCURVE",
"296 79 CURVE SMOOTH",
"296 135 OFFCURVE",
"249 181 OFFCURVE",
"193 181 CURVE SMOOTH",
"136 181 OFFCURVE",
"90 135 OFFCURVE",
"90 79 CURVE SMOOTH",
"90 23 OFFCURVE",
"136 -24 OFFCURVE",
"193 -24 CURVE SMOOTH"
);
}
);
width = 386;
}
);
leftKerningGroup = colon;
rightKerningGroup = colon;
unicode = 003A;
},
{
glyphname = comma;
lastChange = "2016-03-12 22:01:07 +0000";
layers = (
{
hints = (
{
horizontal = 1;
origin = "{0, 9}";
target = down;
type = TopGhost;
},
{
origin = "{0, 12}";
target = "{0, 2}";
},
{
origin = "{0, 8}";
target = "{0, 2}";
},
{
horizontal = 1;
origin = "{0, 13}";
target = up;
type = BottomGhost;
},
{
horizontal = 1;
origin = "{0, 9}";
target = "{0, 5}";
}
);
layerId = "67A5D7A9-2C6D-4B81-A947-AF9C36497881";
name = Regular;
paths = (
{
closed = 1;
nodes = (
"220 -100 OFFCURVE",
"266 1 OFFCURVE",
"266 65 CURVE SMOOTH",
"266 129 OFFCURVE",
"219 173 OFFCURVE",
"163 173 CURVE SMOOTH",
"102 173 OFFCURVE",
"63 122 OFFCURVE",
"63 77 CURVE",
"121 -10 LINE",
"109 -41 OFFCURVE",
"86 -76 OFFCURVE",
"60 -109 CURVE",
"84 -196 LINE"
);
}
);
width = 346;
}
);
leftKerningGroup = comma;
rightKerningGroup = comma;
unicode = 002C;
},
{
glyphname = ellipsis;
lastChange = "2016-03-12 22:01:08 +0000";
layers = (
{
hints = (
{
horizontal = 1;
origin = "{1, 11}";
target = "{1, 5}";
},
{
origin = "{1, 8}";
target = "{1, 2}";
},
{
origin = "{2, 8}";
target = "{2, 2}";
},
{
origin = "{0, 8}";
target = "{0, 2}";
}
);
layerId = "67A5D7A9-2C6D-4B81-A947-AF9C36497881";
name = Regular;
paths = (
{
closed = 1;
nodes = (
"804 -15 OFFCURVE",
"846 28 OFFCURVE",
"846 79 CURVE SMOOTH",
"846 131 OFFCURVE",
"804 174 OFFCURVE",
"752 174 CURVE SMOOTH",
"701 174 OFFCURVE",
"658 131 OFFCURVE",
"658 79 CURVE SMOOTH",
"658 28 OFFCURVE",
"701 -15 OFFCURVE",
"752 -15 CURVE SMOOTH"
);
},
{
closed = 1;
nodes = (
"194 -15 OFFCURVE",
"236 28 OFFCURVE",
"236 79 CURVE SMOOTH",
"236 131 OFFCURVE",
"194 174 OFFCURVE",
"142 174 CURVE SMOOTH",
"91 174 OFFCURVE",
"48 131 OFFCURVE",
"48 79 CURVE SMOOTH",
"48 28 OFFCURVE",
"91 -15 OFFCURVE",
"142 -15 CURVE SMOOTH"
);
},
{
closed = 1;
nodes = (
"499 -15 OFFCURVE",
"541 28 OFFCURVE",
"541 79 CURVE SMOOTH",
"541 131 OFFCURVE",
"499 174 OFFCURVE",
"447 174 CURVE SMOOTH",
"396 174 OFFCURVE",
"353 131 OFFCURVE",
"353 79 CURVE SMOOTH",
"353 28 OFFCURVE",
"396 -15 OFFCURVE",
"447 -15 CURVE SMOOTH"
);
}
);
width = 896;
}
);
leftKerningGroup = period;
rightKerningGroup = period;
unicode = 2026;
},
{
color = 6;
glyphname = exclam;
lastChange = "2016-03-12 22:01:08 +0000";
layers = (
{
hints = (
{
horizontal = 1;
origin = "{1, 11}";
target = "{1, 5}";
},
{
horizontal = 1;
origin = "{0, 1}";
target = down;
type = TopGhost;
},
{
origin = "{1, 8}";
target = "{1, 2}";
},
{
horizontal = 1;
origin = "{0, 3}";
target = up;
type = BottomGhost;
}
);
layerId = "67A5D7A9-2C6D-4B81-A947-AF9C36497881";
name = Regular;
paths = (
{
closed = 1;
nodes = (
"254 235 LINE",
"291 736 LINE",
"100 716 LINE",
"136 235 LINE"
);
},
{
closed = 1;
nodes = (
"249 -25 OFFCURVE",
"292 17 OFFCURVE",
"292 68 CURVE SMOOTH",
"292 119 OFFCURVE",
"250 162 OFFCURVE",
"199 162 CURVE SMOOTH",
"148 162 OFFCURVE",
"106 119 OFFCURVE",
"106 68 CURVE SMOOTH",
"106 17 OFFCURVE",
"148 -25 OFFCURVE",
"199 -25 CURVE SMOOTH"
);
}
);
width = 391;
}
);
leftKerningGroup = exclam;
rightKerningGroup = exclam;
unicode = 0021;
},
{
color = 6;
glyphname = exclamdown;
lastChange = "2016-03-12 22:01:08 +0000";
layers = (
{
hints = (
{
horizontal = 1;
origin = "{1, 11}";
target = "{1, 5}";
},
{
origin = "{1, 8}";
target = "{1, 2}";
},
{
horizontal = 1;
origin = "{0, 3}";
target = up;
type = BottomGhost;
},
{
horizontal = 1;
origin = "{0, 2}";
target = down;
type = TopGhost;
}
);
layerId = "67A5D7A9-2C6D-4B81-A947-AF9C36497881";
name = Regular;
paths = (
{
closed = 1;
nodes = (
"292 -190 LINE",
"256 291 LINE",
"138 291 LINE",
"101 -210 LINE"
);
},
{
closed = 1;
nodes = (
"244 364 OFFCURVE",
"286 407 OFFCURVE",
"286 458 CURVE SMOOTH",
"286 509 OFFCURVE",
"244 551 OFFCURVE",
"193 551 CURVE SMOOTH",
"143 551 OFFCURVE",
"100 509 OFFCURVE",
"100 458 CURVE SMOOTH",
"100 407 OFFCURVE",
"142 364 OFFCURVE",
"193 364 CURVE SMOOTH"
);
}
);
width = 392;
}
);
leftKerningGroup = exclamdown;
rightKerningGroup = exclamdown;
unicode = 00A1;
},
{
glyphname = numbersign;
lastChange = "2016-03-12 22:01:08 +0000";
layers = (
{
hints = (
{
horizontal = 1;
origin = "{0, 27}";
target = up;
type = BottomGhost;
},
{
horizontal = 1;
origin = "{0, 25}";
target = "{0, 24}";
},
{
horizontal = 1;
origin = "{0, 21}";
target = "{0, 20}";
},
{
horizontal = 1;
origin = "{0, 13}";
target = down;
type = TopGhost;
}
);
layerId = "67A5D7A9-2C6D-4B81-A947-AF9C36497881";
name = Regular;
paths = (
{
closed = 1;
nodes = (
"244 0 LINE",
"266 124 LINE",
"374 124 LINE",
"351 -7 LINE",
"444 0 LINE",
"465 124 LINE",
"616 124 LINE",
"616 214 LINE",
"482 214 LINE",
"501 326 LINE",
"616 326 LINE",
"616 415 LINE",
"518 415 LINE",
"539 540 LINE",
"447 533 LINE",
"426 415 LINE",
"318 415 LINE",
"340 540 LINE",
"248 533 LINE",
"227 415 LINE",
"76 415 LINE",
"76 326 LINE",
"210 326 LINE",
"191 214 LINE",
"76 214 LINE",
"76 124 LINE",
"175 124 LINE",
"152 -7 LINE"
);
},
{
closed = 1;
nodes = (
"301 326 LINE",
"409 326 LINE",
"390 214 LINE",
"283 214 LINE"
);
}
);
width = 693;
}
);
unicode = 0023;
},
{
glyphname = period;
lastChange = "2016-03-12 22:01:07 +0000";
layers = (
{
hints = (
{
horizontal = 1;
origin = "{0, 11}";
target = "{0, 5}";
},
{
origin = "{0, 8}";
target = "{0, 2}";
}
);
layerId = "67A5D7A9-2C6D-4B81-A947-AF9C36497881";
name = Regular;
paths = (
{
closed = 1;
nodes = (
"225 -34 OFFCURVE",
"271 13 OFFCURVE",
"271 69 CURVE SMOOTH",
"271 126 OFFCURVE",
"225 173 OFFCURVE",
"168 173 CURVE SMOOTH",
"112 173 OFFCURVE",
"65 126 OFFCURVE",
"65 69 CURVE SMOOTH",
"65 13 OFFCURVE",
"112 -34 OFFCURVE",
"168 -34 CURVE SMOOTH"
);
}
);
width = 336;
}
);
leftKerningGroup = period;
rightKerningGroup = period;
unicode = 002E;
},
{
glyphname = question;
lastChange = "2016-03-12 22:32:10 +0000";
layers = (
{
hints = (
{
horizontal = 1;
origin = "{1, 11}";
target = "{1, 5}";
},
{
horizontal = 1;
origin = "{0, 10}";
target = "{0, 19}";
},
{
place = "{159.000000, 110.000000}";
},
{
origin = "{0, 22}";
target = "{0, 7}";
},
{
origin = "{1, 8}";
target = "{1, 2}";
},
{
horizontal = 1;
origin = "{0, 0}";
target = up;
type = BottomGhost;
},
{
horizontal = 1;
origin = "{0, 16}";
target = up;
type = BottomGhost;
}
);
layerId = "67A5D7A9-2C6D-4B81-A947-AF9C36497881";
name = Regular;
paths = (
{
closed = 1;
nodes = (
"268 240 LINE",
"270 278 LINE SMOOTH",
"272 310 OFFCURVE",
"288 321 OFFCURVE",
"353 387 CURVE SMOOTH",
"403 438 OFFCURVE",
"452 490 OFFCURVE",
"452 569 CURVE SMOOTH",
"452 671 OFFCURVE",
"371 735 OFFCURVE",
"257 735 CURVE SMOOTH",
"135 735 OFFCURVE",
"49 661 OFFCURVE",
"25 571 CURVE",
"68 557 OFFCURVE",
"112 545 OFFCURVE",
"159 535 CURVE",
"171 597 OFFCURVE",
"214 619 OFFCURVE",
"252 619 CURVE SMOOTH",
"292 619 OFFCURVE",
"317 595 OFFCURVE",
"317 559 CURVE SMOOTH",
"317 505 OFFCURVE",
"263 477 OFFCURVE",
"206 417 CURVE SMOOTH",
"177 386 OFFCURVE",
"159 361 OFFCURVE",
"159 304 CURVE SMOOTH",
"159 291 OFFCURVE",
"160 273 OFFCURVE",
"167 231 CURVE"
);
},
{
closed = 1;
nodes = (
"269 -25 OFFCURVE",
"311 18 OFFCURVE",
"311 69 CURVE SMOOTH",
"311 121 OFFCURVE",
"269 164 OFFCURVE",
"217 164 CURVE SMOOTH",
"165 164 OFFCURVE",
"123 121 OFFCURVE",
"123 70 CURVE SMOOTH",
"123 18 OFFCURVE",
"166 -25 OFFCURVE",
"217 -25 CURVE SMOOTH"
);
}
);
width = 511;
}
);
unicode = 003F;
},
{
glyphname = questiondown;
lastChange = "2016-03-12 22:01:08 +0000";
layers = (
{
hints = (
{
horizontal = 1;
origin = "{0, 31}";
target = "{0, 8}";
},
{
horizontal = 1;
origin = "{1, 11}";
target = "{1, 5}";
},
{
origin = "{1, 8}";
target = "{1, 2}";
},
{
origin = "{0, 28}";
target = "{0, 11}";
},
{
place = "{243.000000, 110.000000}";
},
{
horizontal = 1;
origin = "{0, 21}";
target = down;
type = TopGhost;
},
{
horizontal = 1;
origin = "{0, 5}";
target = down;
type = TopGhost;
}
);
layerId = "67A5D7A9-2C6D-4B81-A947-AF9C36497881";
name = Regular;
paths = (
{
closed = 1;
nodes = (
"377 -214 OFFCURVE",
"463 -140 OFFCURVE",
"487 -50 CURVE",
"444 -36 OFFCURVE",
"400 -24 OFFCURVE",
"353 -14 CURVE",
"341 -76 OFFCURVE",
"298 -98 OFFCURVE",
"260 -98 CURVE SMOOTH",
"220 -98 OFFCURVE",
"195 -74 OFFCURVE",
"195 -38 CURVE SMOOTH",
"195 16 OFFCURVE",
"249 44 OFFCURVE",
"306 104 CURVE SMOOTH",
"335 135 OFFCURVE",
"353 160 OFFCURVE",
"353 217 CURVE SMOOTH",
"353 230 OFFCURVE",
"352 248 OFFCURVE",
"345 290 CURVE",
"244 281 LINE",
"242 243 LINE SMOOTH",
"240 211 OFFCURVE",
"224 200 OFFCURVE",
"159 134 CURVE SMOOTH",
"109 83 OFFCURVE",
"60 31 OFFCURVE",
"60 -48 CURVE SMOOTH",
"60 -150 OFFCURVE",
"141 -214 OFFCURVE",
"255 -214 CURVE SMOOTH"
);
},
{
closed = 1;
nodes = (
"347 357 OFFCURVE",
"389 400 OFFCURVE",
"389 451 CURVE SMOOTH",
"389 503 OFFCURVE",
"346 546 OFFCURVE",
"295 546 CURVE SMOOTH",
"243 546 OFFCURVE",
"201 503 OFFCURVE",
"201 452 CURVE SMOOTH",
"201 400 OFFCURVE",
"243 357 OFFCURVE",
"295 357 CURVE SMOOTH"
);
}
);
width = 517;
}
);
unicode = 00BF;
},
{
glyphname = quotedbl;
lastChange = "2016-03-12 22:01:08 +0000";
layers = (
{
hints = (
{
horizontal = 1;
origin = "{1, 13}";
target = "{1, 5}";
},
{
origin = "{1, 8}";
target = "{1, 2}";
},
{
origin = "{0, 8}";
target = "{0, 2}";
}
);
layerId = "67A5D7A9-2C6D-4B81-A947-AF9C36497881";
name = Regular;
paths = (
{
closed = 1;
nodes = (
"492 415 OFFCURVE",
"538 516 OFFCURVE",
"538 580 CURVE SMOOTH",
"538 644 OFFCURVE",
"491 688 OFFCURVE",
"435 688 CURVE SMOOTH",
"374 688 OFFCURVE",
"335 637 OFFCURVE",
"335 592 CURVE",
"393 505 LINE",
"381 474 OFFCURVE",
"358 439 OFFCURVE",
"332 406 CURVE",
"356 319 LINE"
);
},
{
closed = 1;
nodes = (
"230 415 OFFCURVE",
"276 516 OFFCURVE",
"276 580 CURVE SMOOTH",
"276 644 OFFCURVE",
"229 688 OFFCURVE",
"173 688 CURVE SMOOTH",
"112 688 OFFCURVE",
"73 637 OFFCURVE",
"73 592 CURVE",
"131 505 LINE",
"119 474 OFFCURVE",
"96 439 OFFCURVE",
"70 406 CURVE",
"94 319 LINE"
);
}
);
width = 608;
}
);
leftKerningGroup = quoteright;
rightKerningGroup = quoteright;
unicode = 0022;
},
{
glyphname = quotesingle;
lastChange = "2016-03-12 22:01:07 +0000";
layers = (
{
hints = (
{
horizontal = 1;
origin = "{0, 13}";
target = "{0, 5}";
},
{
origin = "{0, 12}";
target = "{0, 2}";
},
{
origin = "{0, 8}";
target = "{0, 2}";
}
);
layerId = "67A5D7A9-2C6D-4B81-A947-AF9C36497881";
name = Regular;
paths = (
{
closed = 1;
nodes = (
"230 415 OFFCURVE",
"276 516 OFFCURVE",
"276 580 CURVE SMOOTH",
"276 644 OFFCURVE",
"229 688 OFFCURVE",
"173 688 CURVE SMOOTH",
"112 688 OFFCURVE",
"73 637 OFFCURVE",
"73 592 CURVE",
"131 505 LINE",
"119 474 OFFCURVE",
"96 439 OFFCURVE",
"70 406 CURVE",
"94 319 LINE"
);
}
);
width = 346;
}
);
leftKerningGroup = quoteright;
rightKerningGroup = quoteright;
unicode = 0027;
},
{
glyphname = semicolon;
lastChange = "2016-03-12 22:01:08 +0000";
layers = (
{
hints = (
{
horizontal = 1;
origin = "{0, 9}";
target = down;
type = TopGhost;
},
{
horizontal = 1;
origin = "{1, 11}";
target = "{1, 5}";
},
{
origin = "{1, 8}";
target = "{1, 2}";
},
{
origin = "{0, 8}";
target = "{0, 2}";
},
{
horizontal = 1;
origin = "{0, 13}";
target = "{0, 5}";
}
);
layerId = "67A5D7A9-2C6D-4B81-A947-AF9C36497881";
name = Regular;
paths = (
{
closed = 1;
nodes = (
"250 -100 OFFCURVE",
"296 1 OFFCURVE",
"296 65 CURVE SMOOTH",
"296 129 OFFCURVE",
"249 173 OFFCURVE",
"193 173 CURVE SMOOTH",
"132 173 OFFCURVE",
"93 122 OFFCURVE",
"93 77 CURVE",
"151 -10 LINE",
"139 -41 OFFCURVE",
"116 -76 OFFCURVE",
"90 -109 CURVE",
"114 -196 LINE"
);
},
{
closed = 1;
nodes = (
"253 339 OFFCURVE",
"300 386 OFFCURVE",
"300 442 CURVE SMOOTH",
"300 498 OFFCURVE",
"253 544 OFFCURVE",
"197 544 CURVE SMOOTH",
"140 544 OFFCURVE",
"94 498 OFFCURVE",
"94 442 CURVE SMOOTH",
"94 386 OFFCURVE",
"140 339 OFFCURVE",
"197 339 CURVE SMOOTH"
);
}
);
width = 410;
}
);
leftKerningGroup = colon;
rightKerningGroup = colon;
unicode = 003B;
},
{
glyphname = slash;
lastChange = "2016-03-12 22:01:07 +0000";
layers = (
{
hints = (
{
horizontal = 1;
origin = "{0, 3}";
target = up;
type = BottomGhost;
},
{
horizontal = 1;
origin = "{0, 1}";
target = down;
type = TopGhost;
},
{
horizontal = 1;
origin = "{0, 2}";
target = up;
type = BottomGhost;
}
);
layerId = "67A5D7A9-2C6D-4B81-A947-AF9C36497881";
name = Regular;
paths = (
{
closed = 1;
nodes = (
"487 720 LINE",
"374 730 LINE",
"20 0 LINE",
"133 -10 LINE"
);
}
);
width = 507;
}
);
unicode = 002F;
},
{
glyphname = underscore;
lastChange = "2016-03-12 22:01:07 +0000";
layers = (
{
hints = (
{
horizontal = 1;
origin = "{0, 2}";
target = "{0, 3}";
}
);
layerId = "67A5D7A9-2C6D-4B81-A947-AF9C36497881";
name = Regular;
paths = (
{
closed = 1;
nodes = (
"574 -110 LINE",
"574 0 LINE",
"11 0 LINE",
"11 -110 LINE"
);
}
);
width = 585;
}
);
unicode = 005F;
},
{
glyphname = braceleft;
lastChange = "2016-03-12 22:01:07 +0000";
layers = (
{
hints = (
{
horizontal = 1;
origin = "{0, 8}";
target = down;
type = TopGhost;
},
{
origin = "{0, 17}";
target = "{0, 18}";
},
{
horizontal = 1;
origin = "{0, 13}";
target = "{0, 12}";
}
);
layerId = "67A5D7A9-2C6D-4B81-A947-AF9C36497881";
name = Regular;
paths = (
{
closed = 1;
nodes = (
"278 53 LINE SMOOTH",
"278 184 OFFCURVE",
"271 231 OFFCURVE",
"170 289 CURVE",
"271 347 OFFCURVE",
"278 393 OFFCURVE",
"278 525 CURVE SMOOTH",
"278 750 LINE",
"153 740 LINE",
"153 491 LINE SMOOTH",
"153 388 OFFCURVE",
"123 352 OFFCURVE",
"45 355 CURVE",
"45 223 LINE",
"123 226 OFFCURVE",
"153 190 OFFCURVE",
"153 87 CURVE SMOOTH",
"153 -162 LINE",
"278 -172 LINE"
);
}
);
width = 378;
}
);
unicode = 007B;
},
{
glyphname = braceright;
lastChange = "2016-03-12 22:01:07 +0000";
layers = (
{
hints = (
{
horizontal = 1;
origin = "{0, 9}";
target = down;
type = TopGhost;
},
{
origin = "{0, 18}";
target = "{0, 0}";
},
{
horizontal = 1;
origin = "{0, 4}";
target = "{0, 5}";
}
);
layerId = "67A5D7A9-2C6D-4B81-A947-AF9C36497881";
name = Regular;
paths = (
{
closed = 1;
nodes = (
"225 -162 LINE",
"225 87 LINE SMOOTH",
"225 190 OFFCURVE",
"255 226 OFFCURVE",
"333 223 CURVE",
"333 355 LINE",
"255 352 OFFCURVE",
"225 388 OFFCURVE",
"225 491 CURVE SMOOTH",
"225 740 LINE",
"100 750 LINE",
"100 525 LINE SMOOTH",
"100 393 OFFCURVE",
"107 347 OFFCURVE",
"208 289 CURVE",
"107 231 OFFCURVE",
"100 184 OFFCURVE",
"100 53 CURVE SMOOTH",
"100 -172 LINE"
);
}
);
width = 378;
}
);
unicode = 007D;
},
{
glyphname = bracketleft;
lastChange = "2016-03-12 22:01:07 +0000";
layers = (
{
hints = (
{
horizontal = 1;
origin = "{0, 7}";
target = "{0, 2}";
},
{
horizontal = 1;
origin = "{0, 6}";
target = "{0, 3}";
},
{
origin = "{0, 7}";
target = "{0, 2}";
}
);
layerId = "67A5D7A9-2C6D-4B81-A947-AF9C36497881";
name = Regular;
paths = (
{
closed = 1;
nodes = (
"279 -182 LINE",
"289 -78 LINE",
"185 -78 LINE",
"185 636 LINE",
"279 636 LINE",
"289 740 LINE",
"75 740 LINE",
"75 -182 LINE"
);
}
);
width = 324;
}
);
unicode = 005B;
},
{
glyphname = bracketright;
lastChange = "2016-03-12 22:01:07 +0000";
layers = (
{
hints = (
{
horizontal = 1;
origin = "{0, 7}";
target = "{0, 6}";
},
{
horizontal = 1;
origin = "{0, 2}";
target = "{0, 3}";
},
{
origin = "{0, 5}";
target = "{0, 0}";
}
);
layerId = "67A5D7A9-2C6D-4B81-A947-AF9C36497881";
name = Regular;
paths = (
{
closed = 1;
nodes = (
"249 -182 LINE",
"249 740 LINE",
"45 740 LINE",
"35 636 LINE",
"139 636 LINE",
"139 -78 LINE",
"45 -78 LINE",
"35 -182 LINE"
);
}
);
width = 324;
}
);
unicode = 005D;
},
{
glyphname = parenleft;
lastChange = "2016-03-12 22:01:07 +0000";
layers = (
{
hints = (
{
origin = "{0, 10}";
target = "{0, 3}";
},
{
horizontal = 1;
origin = "{0, 13}";
target = up;
type = BottomGhost;
},
{
horizontal = 1;
origin = "{0, 7}";
target = down;
type = TopGhost;
}
);
layerId = "67A5D7A9-2C6D-4B81-A947-AF9C36497881";
name = Regular;
paths = (
{
closed = 1;
nodes = (
"383 -136 LINE",
"266 -10 OFFCURVE",
"215 107 OFFCURVE",
"215 289 CURVE SMOOTH",
"215 471 OFFCURVE",
"266 589 OFFCURVE",
"382 713 CURVE",
"358 761 LINE",
"181 661 OFFCURVE",
"75 494 OFFCURVE",
"75 288 CURVE SMOOTH",
"75 83 OFFCURVE",
"180 -81 OFFCURVE",
"358 -184 CURVE"
);
}
);
width = 399;
}
);
unicode = 0028;
},
{
glyphname = parenright;
lastChange = "2016-03-12 22:32:21 +0000";
layers = (
{
hints = (
{
origin = "{0, 9}";
target = "{0, 2}";
},
{
horizontal = 1;
origin = "{0, 5}";
target = down;
type = TopGhost;
},
{
horizontal = 1;
origin = "{0, 13}";
target = up;
type = BottomGhost;
}
);
layerId = "67A5D7A9-2C6D-4B81-A947-AF9C36497881";
name = Regular;
paths = (
{
closed = 1;
nodes = (
"219 -81 OFFCURVE",
"324 83 OFFCURVE",
"324 288 CURVE SMOOTH",
"324 494 OFFCURVE",
"218 661 OFFCURVE",
"41 761 CURVE",
"17 713 LINE",
"133 589 OFFCURVE",
"184 471 OFFCURVE",
"184 289 CURVE SMOOTH",
"184 107 OFFCURVE",
"133 -10 OFFCURVE",
"16 -136 CURVE",
"41 -184 LINE"
);
}
);
width = 400;
}
);
unicode = 0029;
},
{
glyphname = emdash;
lastChange = "2016-03-12 22:01:07 +0000";
layers = (
{
hints = (
{
horizontal = 1;
origin = "{0, 3}";
target = "{0, 2}";
}
);
layerId = "67A5D7A9-2C6D-4B81-A947-AF9C36497881";
name = Regular;
paths = (
{
closed = 1;
nodes = (
"876 243 LINE",
"886 358 LINE",
"86 358 LINE",
"76 243 LINE"
);
}
);
width = 962;
}
);
leftKerningGroup = hyphen;
rightKerningGroup = hyphen;
unicode = 2014;
},
{
glyphname = endash;
lastChange = "2016-03-12 22:01:07 +0000";
layers = (
{
hints = (
{
horizontal = 1;
origin = "{0, 3}";
target = "{0, 2}";
}
);
layerId = "67A5D7A9-2C6D-4B81-A947-AF9C36497881";
name = Regular;
paths = (
{
closed = 1;
nodes = (
"643 243 LINE",
"653 358 LINE",
"53 358 LINE",
"43 243 LINE"
);
}
);
width = 696;
}
);
leftKerningGroup = hyphen;
rightKerningGroup = hyphen;
unicode = 2013;
},
{
glyphname = hyphen;
lastChange = "2016-03-12 22:01:07 +0000";
layers = (
{
hints = (
{
horizontal = 1;
origin = "{0, 3}";
target = "{0, 2}";
},
{
origin = "{0, 3}";
target = "{0, 1}";
}
);
layerId = "67A5D7A9-2C6D-4B81-A947-AF9C36497881";
name = Regular;
paths = (
{
closed = 1;
nodes = (
"465 243 LINE",
"475 358 LINE",
"75 358 LINE",
"65 243 LINE"
);
}
);
width = 541;
}
);
leftKerningGroup = hyphen;
rightKerningGroup = hyphen;
unicode = 002D;
},
{
glyphname = guillemetleft;
lastChange = "2016-03-12 22:01:08 +0000";
layers = (
{
hints = (
{
horizontal = 1;
origin = "{1, 3}";
target = down;
type = TopGhost;
},
{
horizontal = 1;
origin = "{1, 5}";
target = up;
type = BottomGhost;
}
);
layerId = "67A5D7A9-2C6D-4B81-A947-AF9C36497881";
name = Regular;
paths = (
{
closed = 1;
nodes = (
"664 81 LINE",
"531 277 LINE",
"657 469 LINE",
"564 538 LINE",
"350 277 LINE",
"572 17 LINE"
);
},
{
closed = 1;
nodes = (
"394 81 LINE",
"261 277 LINE",
"387 469 LINE",
"294 538 LINE",
"80 277 LINE",
"302 17 LINE"
);
}
);
width = 729;
}
);
leftKerningGroup = guillemetleft;
rightKerningGroup = guillemetleft;
unicode = 00AB;
},
{
glyphname = guillemetright;
lastChange = "2016-03-12 22:01:08 +0000";
layers = (
{
hints = (
{
horizontal = 1;
origin = "{0, 1}";
target = down;
type = TopGhost;
},
{
horizontal = 1;
origin = "{0, 5}";
target = up;
type = BottomGhost;
}
);
layerId = "67A5D7A9-2C6D-4B81-A947-AF9C36497881";
name = Regular;
paths = (
{
closed = 1;
nodes = (
"649 277 LINE",
"435 538 LINE",
"342 469 LINE",
"468 277 LINE",
"335 81 LINE",
"427 17 LINE"
);
},
{
closed = 1;
nodes = (
"379 277 LINE",
"165 538 LINE",
"72 469 LINE",
"198 277 LINE",
"65 81 LINE",
"157 17 LINE"
);
}
);
width = 729;
}
);
leftKerningGroup = guillemetright;
rightKerningGroup = guillemetright;
unicode = 00BB;
},
{
glyphname = guilsinglleft;
lastChange = "2016-03-12 22:01:07 +0000";
layers = (
{
hints = (
{
origin = "{0, 4}";
target = "{0, 0}";
},
{
horizontal = 1;
origin = "{0, 5}";
target = up;
type = BottomGhost;
},
{
horizontal = 1;
origin = "{0, 3}";
target = down;
type = TopGhost;
}
);
layerId = "67A5D7A9-2C6D-4B81-A947-AF9C36497881";
name = Regular;
paths = (
{
closed = 1;
nodes = (
"394 81 LINE",
"261 277 LINE",
"387 469 LINE",
"294 538 LINE",
"80 277 LINE",
"302 17 LINE"
);
}
);
width = 459;
}
);
leftKerningGroup = guillemetleft;
rightKerningGroup = guillemetleft;
unicode = 2039;
},
{
glyphname = guilsinglright;
lastChange = "2016-03-12 22:01:07 +0000";
layers = (
{
hints = (
{
origin = "{0, 4}";
target = "{0, 0}";
},
{
horizontal = 1;
origin = "{0, 5}";
target = up;
type = BottomGhost;
},
{
horizontal = 1;
origin = "{0, 1}";
target = down;
type = TopGhost;
}
);
layerId = "67A5D7A9-2C6D-4B81-A947-AF9C36497881";
name = Regular;
paths = (
{
closed = 1;
nodes = (
"379 277 LINE",
"165 538 LINE",
"72 469 LINE",
"198 277 LINE",
"65 81 LINE",
"157 17 LINE"
);
}
);
width = 459;
}
);
leftKerningGroup = guillemetright;
rightKerningGroup = guillemetright;
unicode = 203A;
},
{
glyphname = quotedblbase;
lastChange = "2016-03-12 22:01:08 +0000";
layers = (
{
hints = (
{
horizontal = 1;
origin = "{1, 13}";
target = "{1, 5}";
},
{
origin = "{1, 8}";
target = "{1, 2}";
},
{
origin = "{0, 8}";
target = "{0, 2}";
}
);
layerId = "67A5D7A9-2C6D-4B81-A947-AF9C36497881";
name = Regular;
paths = (
{
closed = 1;
nodes = (
"477 -66 OFFCURVE",
"523 35 OFFCURVE",
"523 99 CURVE SMOOTH",
"523 163 OFFCURVE",
"476 207 OFFCURVE",
"420 207 CURVE SMOOTH",
"359 207 OFFCURVE",
"320 156 OFFCURVE",
"320 111 CURVE",
"378 24 LINE",
"366 -7 OFFCURVE",
"343 -42 OFFCURVE",
"317 -75 CURVE",
"341 -162 LINE"
);
},
{
closed = 1;
nodes = (
"215 -66 OFFCURVE",
"261 35 OFFCURVE",
"261 99 CURVE SMOOTH",
"261 163 OFFCURVE",
"214 207 OFFCURVE",
"158 207 CURVE SMOOTH",
"97 207 OFFCURVE",
"58 156 OFFCURVE",
"58 111 CURVE",
"116 24 LINE",
"104 -7 OFFCURVE",
"81 -42 OFFCURVE",
"55 -75 CURVE",
"79 -162 LINE"
);
}
);
width = 568;
}
);
leftKerningGroup = quotesinglbase;
rightKerningGroup = quotesinglbase;
unicode = 201E;
},
{
glyphname = quotedblleft;
lastChange = "2016-03-12 22:01:08 +0000";
layers = (
{
hints = (
{
horizontal = 1;
origin = "{1, 13}";
target = "{1, 7}";
},
{
origin = "{1, 10}";
target = "{1, 2}";
},
{
origin = "{0, 10}";
target = "{0, 2}";
}
);
layerId = "67A5D7A9-2C6D-4B81-A947-AF9C36497881";
name = Regular;
paths = (
{
closed = 1;
nodes = (
"481 319 OFFCURVE",
"520 370 OFFCURVE",
"520 415 CURVE",
"462 502 LINE",
"474 533 OFFCURVE",
"497 568 OFFCURVE",
"523 601 CURVE",
"499 688 LINE",
"363 592 OFFCURVE",
"317 491 OFFCURVE",
"317 427 CURVE SMOOTH",
"317 363 OFFCURVE",
"364 319 OFFCURVE",
"420 319 CURVE SMOOTH"
);
},
{
closed = 1;
nodes = (
"219 319 OFFCURVE",
"258 370 OFFCURVE",
"258 415 CURVE",
"200 502 LINE",
"212 533 OFFCURVE",
"235 568 OFFCURVE",
"261 601 CURVE",
"237 688 LINE",
"101 592 OFFCURVE",
"55 491 OFFCURVE",
"55 427 CURVE SMOOTH",
"55 363 OFFCURVE",
"102 319 OFFCURVE",
"158 319 CURVE SMOOTH"
);
}
);
width = 578;
}
);
leftKerningGroup = quoteleft;
rightKerningGroup = quoteleft;
unicode = 201C;
},
{
glyphname = quotedblright;
lastChange = "2016-03-12 22:01:08 +0000";
layers = (
{
hints = (
{
horizontal = 1;
origin = "{1, 13}";
target = "{1, 5}";
},
{
origin = "{1, 8}";
target = "{1, 2}";
},
{
origin = "{0, 8}";
target = "{0, 2}";
}
);
layerId = "67A5D7A9-2C6D-4B81-A947-AF9C36497881";
name = Regular;
paths = (
{
closed = 1;
nodes = (
"477 415 OFFCURVE",
"523 516 OFFCURVE",
"523 580 CURVE SMOOTH",
"523 644 OFFCURVE",
"476 688 OFFCURVE",
"420 688 CURVE SMOOTH",
"359 688 OFFCURVE",
"320 637 OFFCURVE",
"320 592 CURVE",
"378 505 LINE",
"366 474 OFFCURVE",
"343 439 OFFCURVE",
"317 406 CURVE",
"341 319 LINE"
);
},
{
closed = 1;
nodes = (
"215 415 OFFCURVE",
"261 516 OFFCURVE",
"261 580 CURVE SMOOTH",
"261 644 OFFCURVE",
"214 688 OFFCURVE",
"158 688 CURVE SMOOTH",
"97 688 OFFCURVE",
"58 637 OFFCURVE",
"58 592 CURVE",
"116 505 LINE",
"104 474 OFFCURVE",
"81 439 OFFCURVE",
"55 406 CURVE",
"79 319 LINE"
);
}
);
width = 578;
}
);
leftKerningGroup = quoteright;
rightKerningGroup = quoteright;
unicode = 201D;
},
{
glyphname = quoteleft;
lastChange = "2016-03-12 22:01:07 +0000";
layers = (
{
hints = (
{
horizontal = 1;
origin = "{0, 13}";
target = "{0, 7}";
},
{
origin = "{0, 10}";
target = "{0, 2}";
}
);
layerId = "67A5D7A9-2C6D-4B81-A947-AF9C36497881";
name = Regular;
paths = (
{
closed = 1;
nodes = (
"219 319 OFFCURVE",
"258 370 OFFCURVE",
"258 415 CURVE",
"200 502 LINE",
"212 533 OFFCURVE",
"235 568 OFFCURVE",
"261 601 CURVE",
"237 688 LINE",
"101 592 OFFCURVE",
"55 491 OFFCURVE",
"55 427 CURVE SMOOTH",
"55 363 OFFCURVE",
"102 319 OFFCURVE",
"158 319 CURVE SMOOTH"
);
}
);
width = 316;
}
);
leftKerningGroup = quoteleft;
rightKerningGroup = quoteleft;
unicode = 2018;
},
{
glyphname = quoteright;
lastChange = "2016-03-12 22:01:07 +0000";
layers = (
{
hints = (
{
horizontal = 1;
origin = "{0, 13}";
target = "{0, 5}";
},
{
origin = "{0, 12}";
target = "{0, 2}";
},
{
origin = "{0, 8}";
target = "{0, 2}";
}
);
layerId = "67A5D7A9-2C6D-4B81-A947-AF9C36497881";
name = Regular;
paths = (
{
closed = 1;
nodes = (
"205 415 OFFCURVE",
"251 516 OFFCURVE",
"251 580 CURVE SMOOTH",
"251 644 OFFCURVE",
"204 688 OFFCURVE",
"148 688 CURVE SMOOTH",
"87 688 OFFCURVE",
"48 637 OFFCURVE",
"48 592 CURVE",
"106 505 LINE",
"94 474 OFFCURVE",
"71 439 OFFCURVE",
"45 406 CURVE",
"69 319 LINE"
);
}
);
width = 306;
}
);
leftKerningGroup = quoteright;
rightKerningGroup = quoteright;
unicode = 2019;
},
{
glyphname = quotesinglbase;
lastChange = "2016-03-12 22:01:07 +0000";
layers = (
{
hints = (
{
horizontal = 1;
origin = "{0, 13}";
target = "{0, 5}";
},
{
origin = "{0, 12}";
target = "{0, 2}";
},
{
origin = "{0, 8}";
target = "{0, 2}";
}
);
layerId = "67A5D7A9-2C6D-4B81-A947-AF9C36497881";
name = Regular;
paths = (
{
closed = 1;
nodes = (
"205 -66 OFFCURVE",
"251 35 OFFCURVE",
"251 99 CURVE SMOOTH",
"251 163 OFFCURVE",
"204 207 OFFCURVE",
"148 207 CURVE SMOOTH",
"87 207 OFFCURVE",
"48 156 OFFCURVE",
"48 111 CURVE",
"106 24 LINE",
"94 -7 OFFCURVE",
"71 -42 OFFCURVE",
"45 -75 CURVE",
"69 -162 LINE"
);
}
);
width = 306;
}
);
leftKerningGroup = quotesinglbase;
rightKerningGroup = quotesinglbase;
unicode = 201A;
},
{
glyphname = "geresh-hb";
lastChange = "2016-03-12 22:01:07 +0000";
layers = (
{
hints = (
{
horizontal = 1;
origin = "{0, 13}";
target = "{0, 5}";
},
{
origin = "{0, 12}";
target = "{0, 2}";
},
{
origin = "{0, 8}";
target = "{0, 2}";
}
);
layerId = "67A5D7A9-2C6D-4B81-A947-AF9C36497881";
name = Regular;
paths = (
{
closed = 1;
nodes = (
"215 415 OFFCURVE",
"261 516 OFFCURVE",
"261 580 CURVE SMOOTH",
"261 644 OFFCURVE",
"214 688 OFFCURVE",
"158 688 CURVE SMOOTH",
"97 688 OFFCURVE",
"58 637 OFFCURVE",
"58 592 CURVE",
"116 505 LINE",
"104 474 OFFCURVE",
"81 439 OFFCURVE",
"55 406 CURVE",
"79 319 LINE"
);
}
);
width = 306;
}
);
leftKerningGroup = quoteright;
rightKerningGroup = quoteright;
unicode = 05F3;
},
{
glyphname = "gershayim-hb";
lastChange = "2016-03-12 22:01:08 +0000";
layers = (
{
hints = (
{
horizontal = 1;
origin = "{1, 13}";
target = "{1, 5}";
},
{
origin = "{1, 8}";
target = "{1, 2}";
},
{
origin = "{0, 8}";
target = "{0, 2}";
}
);
layerId = "67A5D7A9-2C6D-4B81-A947-AF9C36497881";
name = Regular;
paths = (
{
closed = 1;
nodes = (
"477 415 OFFCURVE",
"523 516 OFFCURVE",
"523 580 CURVE SMOOTH",
"523 644 OFFCURVE",
"476 688 OFFCURVE",
"420 688 CURVE SMOOTH",
"359 688 OFFCURVE",
"320 637 OFFCURVE",
"320 592 CURVE",
"378 505 LINE",
"366 474 OFFCURVE",
"343 439 OFFCURVE",
"317 406 CURVE",
"341 319 LINE"
);
},
{
closed = 1;
nodes = (
"215 415 OFFCURVE",
"261 516 OFFCURVE",
"261 580 CURVE SMOOTH",
"261 644 OFFCURVE",
"214 688 OFFCURVE",
"158 688 CURVE SMOOTH",
"97 688 OFFCURVE",
"58 637 OFFCURVE",
"58 592 CURVE",
"116 505 LINE",
"104 474 OFFCURVE",
"81 439 OFFCURVE",
"55 406 CURVE",
"79 319 LINE"
);
}
);
width = 568;
}
);
leftKerningGroup = quoteright;
rightKerningGroup = quoteright;
unicode = 05F4;
},
{
glyphname = "maqaf-hb";
lastChange = "2016-03-12 22:01:07 +0000";
layers = (
{
hints = (
{
horizontal = 1;
origin = "{0, 3}";
target = "{0, 2}";
},
{
origin = "{0, 3}";
target = "{0, 0}";
}
);
layerId = "67A5D7A9-2C6D-4B81-A947-AF9C36497881";
name = Regular;
paths = (
{
closed = 1;
nodes = (
"380 411 LINE",
"380 536 LINE",
"55 536 LINE",
"55 411 LINE"
);
}
);
width = 450;
}
);
unicode = 05BE;
},
{
glyphname = cent;
lastChange = "2016-03-12 22:01:08 +0000";
layers = (
{
hints = (
{
horizontal = 1;
origin = "{0, 3}";
target = "{0, 10}";
},
{
horizontal = 1;
origin = "{0, 25}";
target = down;
type = TopGhost;
},
{
horizontal = 1;
origin = "{0, 23}";
target = down;
type = TopGhost;
},
{
horizontal = 1;
origin = "{0, 21}";
target = up;
type = BottomGhost;
},
{
origin = "{0, 28}";
target = "{1, 2}";
},
{
horizontal = 1;
origin = "{0, 25}";
target = "{1, 5}";
},
{
horizontal = 1;
origin = "{0, 3}";
target = "{0, 13}";
},
{
horizontal = 1;
origin = "{0, 7}";
target = down;
type = TopGhost;
},
{
horizontal = 1;
origin = "{0, 17}";
target = up;
type = BottomGhost;
},
{
horizontal = 1;
origin = "{0, 33}";
target = up;
type = BottomGhost;
}
);
layerId = "67A5D7A9-2C6D-4B81-A947-AF9C36497881";
name = Regular;
paths = (
{
closed = 1;
nodes = (
"268 -13 LINE",
"280 -14 OFFCURVE",
"292 -15 OFFCURVE",
"305 -15 CURVE SMOOTH",
"354 -15 OFFCURVE",
"400 -7 OFFCURVE",
"445 11 CURVE",
"424 125 LINE",
"388 113 OFFCURVE",
"355 107 OFFCURVE",
"323 107 CURVE SMOOTH",
"314 107 OFFCURVE",
"306 107 OFFCURVE",
"298 108 CURVE",
"367 399 LINE",
"384 394 OFFCURVE",
"400 389 OFFCURVE",
"414 382 CURVE",
"441 501 LINE",
"430 507 OFFCURVE",
"414 512 OFFCURVE",
"396 517 CURVE",
"445 720 LINE",
"358 730 LINE",
"310 529 LINE",
"301 529 LINE SMOOTH",
"142 529 OFFCURVE",
"36 415 OFFCURVE",
"36 245 CURVE SMOOTH",
"36 124 OFFCURVE",
"89 41 OFFCURVE",
"184 5 CURVE",
"135 -199 LINE",
"221 -209 LINE"
);
},
{
closed = 1;
nodes = (
"190 167 OFFCURVE",
"175 205 OFFCURVE",
"175 253 CURVE SMOOTH",
"175 332 OFFCURVE",
"216 388 OFFCURVE",
"279 403 CURVE",
"217 142 LINE"
);
}
);
width = 531;
}
);
unicode = 00A2;
},
{
glyphname = currency;
lastChange = "2016-03-12 22:01:08 +0000";
layers = (
{
hints = (
{
horizontal = 1;
origin = "{0, 35}";
target = "{1, 11}";
},
{
horizontal = 1;
origin = "{0, 12}";
target = up;
type = BottomGhost;
},
{
horizontal = 1;
origin = "{0, 3}";
target = up;
type = BottomGhost;
},
{
horizontal = 1;
origin = "{0, 31}";
target = down;
type = TopGhost;
},
{
horizontal = 1;
origin = "{0, 14}";
target = up;
type = BottomGhost;
},
{
horizontal = 1;
origin = "{1, 5}";
target = "{0, 17}";
},
{
horizontal = 1;
origin = "{0, 22}";
target = down;
type = TopGhost;
},
{
origin = "{0, 26}";
target = "{1, 2}";
},
{
origin = "{1, 8}";
target = "{0, 8}";
}
);
layerId = "67A5D7A9-2C6D-4B81-A947-AF9C36497881";
name = Regular;
paths = (
{
closed = 1;
nodes = (
"423 -17 OFFCURVE",
"487 5 OFFCURVE",
"536 43 CURVE",
"589 -10 LINE",
"638 55 LINE",
"592 101 LINE",
"625 149 OFFCURVE",
"643 209 OFFCURVE",
"643 277 CURVE SMOOTH",
"643 349 OFFCURVE",
"623 411 OFFCURVE",
"587 460 CURVE",
"650 523 LINE",
"585 573 LINE",
"528 517 LINE",
"480 552 OFFCURVE",
"419 571 OFFCURVE",
"349 571 CURVE SMOOTH",
"281 571 OFFCURVE",
"221 553 OFFCURVE",
"174 520 CURVE",
"113 581 LINE",
"63 516 LINE",
"115 464 LINE",
"77 415 OFFCURVE",
"55 351 OFFCURVE",
"55 277 CURVE SMOOTH",
"55 207 OFFCURVE",
"74 146 OFFCURVE",
"108 98 CURVE",
"56 46 LINE",
"121 -4 LINE",
"165 40 LINE",
"214 4 OFFCURVE",
"277 -17 OFFCURVE",
"349 -17 CURVE SMOOTH"
);
},
{
closed = 1;
nodes = (
"227 63 OFFCURVE",
"143 151 OFFCURVE",
"143 277 CURVE SMOOTH",
"143 403 OFFCURVE",
"227 491 OFFCURVE",
"349 491 CURVE SMOOTH",
"471 491 OFFCURVE",
"555 403 OFFCURVE",
"555 277 CURVE SMOOTH",
"555 151 OFFCURVE",
"471 63 OFFCURVE",
"349 63 CURVE SMOOTH"
);
}
);
width = 705;
}
);
unicode = 00A4;
},
{
glyphname = dollar;
lastChange = "2016-03-12 22:01:08 +0000";
layers = (
{
hints = (
{
horizontal = 1;
origin = "{0, 0}";
target = "{1, 6}";
},
{
horizontal = 1;
origin = "{0, 21}";
target = "{2, 5}";
},
{
horizontal = 1;
origin = "{0, 16}";
target = down;
type = TopGhost;
},
{
horizontal = 1;
origin = "{0, 35}";
target = down;
type = TopGhost;
},
{
origin = "{0, 24}";
target = "{2, 2}";
},
{
origin = "{1, 3}";
target = "{0, 4}";
},
{
horizontal = 1;
origin = "{0, 31}";
target = down;
type = TopGhost;
},
{
horizontal = 1;
origin = "{0, 11}";
target = up;
type = BottomGhost;
}
);
layerId = "67A5D7A9-2C6D-4B81-A947-AF9C36497881";
name = Regular;
paths = (
{
closed = 1;
nodes = (
"245 -13 LINE",
"266 -13 LINE SMOOTH",
"424 -13 OFFCURVE",
"516 63 OFFCURVE",
"516 192 CURVE SMOOTH",
"516 312 OFFCURVE",
"435 356 OFFCURVE",
"357 387 CURVE",
"400 541 LINE",
"424 534 OFFCURVE",
"448 523 OFFCURVE",
"470 511 CURVE",
"492 643 LINE",
"472 651 OFFCURVE",
"453 657 OFFCURVE",
"433 662 CURVE",
"455 740 LINE",
"379 751 LINE",
"358 677 LINE",
"343 678 OFFCURVE",
"327 679 OFFCURVE",
"312 679 CURVE SMOOTH",
"157 679 OFFCURVE",
"66 600 OFFCURVE",
"66 473 CURVE SMOOTH",
"66 343 OFFCURVE",
"162 306 OFFCURVE",
"246 273 CURVE",
"203 117 LINE",
"161 126 OFFCURVE",
"117 144 OFFCURVE",
"77 169 CURVE",
"65 35 LINE",
"93 18 OFFCURVE",
"129 5 OFFCURVE",
"170 -3 CURVE",
"146 -88 LINE",
"221 -99 LINE"
);
},
{
closed = 1;
nodes = (
"317 245 LINE",
"349 230 OFFCURVE",
"371 213 OFFCURVE",
"371 183 CURVE SMOOTH",
"371 143 OFFCURVE",
"334 115 OFFCURVE",
"279 111 CURVE"
);
},
{
closed = 1;
nodes = (
"242 433 OFFCURVE",
"211 449 OFFCURVE",
"211 488 CURVE SMOOTH",
"211 529 OFFCURVE",
"247 556 OFFCURVE",
"310 556 CURVE SMOOTH",
"325 556 LINE",
"286 415 LINE"
);
}
);
width = 581;
}
);
unicode = 0024;
},
{
glyphname = euro;
lastChange = "2016-03-12 22:01:07 +0000";
layers = (
{
hints = (
{
horizontal = 1;
origin = "{0, 47}";
target = "{0, 6}";
},
{
horizontal = 1;
origin = "{0, 43}";
target = "{0, 42}";
},
{
horizontal = 1;
origin = "{0, 36}";
target = "{0, 35}";
},
{
horizontal = 1;
origin = "{0, 31}";
target = "{0, 24}";
},
{
origin = "{0, 41}";
target = "{0, 15}";
},
{
horizontal = 1;
origin = "{0, 27}";
target = up;
type = BottomGhost;
},
{
horizontal = 1;
origin = "{0, 3}";
target = down;
type = TopGhost;
}
);
layerId = "67A5D7A9-2C6D-4B81-A947-AF9C36497881";
name = Regular;
paths = (
{
closed = 1;
nodes = (
"514 -13 OFFCURVE",
"570 -4 OFFCURVE",
"618 14 CURVE",
"597 133 LINE",
"556 120 OFFCURVE",
"510 114 OFFCURVE",
"473 114 CURVE SMOOTH",
"376 114 OFFCURVE",
"308 155 OFFCURVE",
"278 230 CURVE",
"523 230 LINE",
"537 295 LINE",
"262 295 LINE",
"261 306 OFFCURVE",
"260 317 OFFCURVE",
"260 329 CURVE SMOOTH",
"260 336 OFFCURVE",
"260 343 OFFCURVE",
"261 350 CURVE",
"548 350 LINE",
"561 415 LINE",
"272 415 LINE",
"298 497 OFFCURVE",
"363 548 OFFCURVE",
"457 548 CURVE SMOOTH",
"499 548 OFFCURVE",
"541 538 OFFCURVE",
"583 520 CURVE",
"610 648 LINE",
"563 666 OFFCURVE",
"511 676 OFFCURVE",
"456 676 CURVE SMOOTH",
"282 676 OFFCURVE",
"159 575 OFFCURVE",
"123 415 CURVE",
"30 415 LINE",
"20 350 LINE",
"114 350 LINE",
"113 339 OFFCURVE",
"113 328 OFFCURVE",
"113 316 CURVE SMOOTH",
"113 295 LINE",
"30 295 LINE",
"20 230 LINE",
"121 230 LINE",
"152 74 OFFCURVE",
"271 -13 OFFCURVE",
"455 -13 CURVE SMOOTH"
);
}
);
width = 673;
}
);
unicode = 20AC;
},
{
glyphname = florin;
lastChange = "2016-03-12 22:01:07 +0000";
layers = (
{
guideLines = (
{
position = "{371, 231}";
}
);
hints = (
{
horizontal = 1;
origin = "{0, 35}";
target = "{0, 28}";
},
{
horizontal = 1;
origin = "{0, 23}";
target = "{0, 22}";
},
{
horizontal = 1;
origin = "{0, 17}";
target = "{0, 10}";
},
{
horizontal = 1;
origin = "{0, 13}";
target = up;
type = BottomGhost;
},
{
horizontal = 1;
origin = "{0, 31}";
target = down;
type = TopGhost;
}
);
layerId = "67A5D7A9-2C6D-4B81-A947-AF9C36497881";
name = Regular;
paths = (
{
closed = 1;
nodes = (
"225 -173 OFFCURVE",
"303 -126 OFFCURVE",
"322 -7 CURVE SMOOTH",
"375 324 LINE",
"482 324 LINE",
"501 445 LINE",
"394 445 LINE",
"414 571 LINE SMOOTH",
"420 609 OFFCURVE",
"441 622 OFFCURVE",
"470 622 CURVE SMOOTH",
"490 622 OFFCURVE",
"509 616 OFFCURVE",
"529 605 CURVE",
"596 716 LINE",
"554 734 OFFCURVE",
"517 744 OFFCURVE",
"471 744 CURVE SMOOTH",
"372 744 OFFCURVE",
"293 698 OFFCURVE",
"274 578 CURVE SMOOTH",
"253 445 LINE",
"148 445 LINE",
"129 324 LINE",
"234 324 LINE",
"182 0 LINE SMOOTH",
"176 -36 OFFCURVE",
"158 -51 OFFCURVE",
"126 -51 CURVE SMOOTH",
"106 -51 OFFCURVE",
"87 -45 OFFCURVE",
"67 -34 CURVE",
"0 -145 LINE",
"42 -163 OFFCURVE",
"79 -173 OFFCURVE",
"125 -173 CURVE SMOOTH"
);
}
);
width = 572;
}
);
unicode = 0192;
},
{
glyphname = liraTurkish;
lastChange = "2016-03-12 22:01:07 +0000";
layers = (
{
hints = (
{
horizontal = 1;
origin = "{0, 23}";
target = "{0, 2}";
},
{
horizontal = 1;
origin = "{0, 10}";
target = up;
type = BottomGhost;
},
{
horizontal = 1;
origin = "{0, 12}";
target = "{0, 13}";
},
{
origin = "{0, 23}";
target = "{0, 2}";
},
{
horizontal = 1;
origin = "{0, 22}";
target = down;
type = TopGhost;
},
{
horizontal = 1;
origin = "{0, 21}";
target = down;
type = TopGhost;
},
{
horizontal = 1;
origin = "{0, 17}";
target = down;
type = TopGhost;
},
{
horizontal = 1;
origin = "{0, 16}";
target = down;
type = TopGhost;
},
{
horizontal = 1;
origin = "{0, 9}";
target = up;
type = BottomGhost;
},
{
horizontal = 1;
origin = "{0, 8}";
target = up;
type = BottomGhost;
},
{
horizontal = 1;
origin = "{0, 5}";
target = up;
type = BottomGhost;
},
{
horizontal = 1;
origin = "{0, 4}";
target = up;
type = BottomGhost;
}
);
layerId = "67A5D7A9-2C6D-4B81-A947-AF9C36497881";
name = Regular;
paths = (
{
closed = 1;
nodes = (
"435 0 LINE",
"435 121 LINE",
"313 121 LINE",
"313 315 LINE",
"445 389 LINE",
"455 468 LINE",
"313 388 LINE",
"314 456 LINE",
"445 530 LINE",
"455 608 LINE",
"314 529 LINE",
"314 730 LINE",
"87 730 LINE",
"87 610 LINE",
"173 610 LINE",
"173 449 LINE",
"55 383 LINE",
"45 304 LINE",
"173 376 LINE",
"173 309 LINE",
"55 242 LINE",
"45 164 LINE",
"173 236 LINE",
"173 0 LINE"
);
}
);
width = 520;
}
);
unicode = 20BA;
},
